STARTFONT 2.1
COMMENT
COMMENT Converted from OpenType font "Q:\font stuff\winfont\Revue Hollow.ttf" by "otf2bdf 3.0".
COMMENT
FONT -FreeType-Revue Hollow-Medium-R-Normal--179-1800-72-72-P-480-ISO10646-1
SIZE 180 72 72
FONTBOUNDINGBOX 216 238 -10 -45
STARTPROPERTIES 19
FOUNDRY "FreeType"
FAMILY_NAME "Revue Hollow"
WEIGHT_NAME "Medium"
SLANT "R"
SETWIDTH_NAME "Normal"
ADD_STYLE_NAME ""
PIXEL_SIZE 160
POINT_SIZE 1800
RESOLUTION_X 72
RESOLUTION_Y 72
SPACING "P"
AVERAGE_WIDTH 480
CHARSET_REGISTRY "ISO10646"
CHARSET_ENCODING "1"
FONT_ASCENT 150
FONT_DESCENT 16
COPYRIGHT "Copyright (c)1993 by Fantazia Concepts"
_OTF_FONTFILE "Q:\font stuff\winfont\Revue Hollow.ttf"
_OTF_PSNAME "RevueHollow"
ENDPROPERTIES
CHARS 394
STARTCHAR 0020
ENCODING 32
SWIDTH 350 0
DWIDTH 63 0
BBX 0 0 0 0
BITMAP
ENDCHAR
STARTCHAR 0021
ENCODING 33
SWIDTH 400 0
DWIDTH 72 0
BBX 42 151 15 -2
BITMAP
7FFFFFFFFF80
FFFFFFFFFFC0
FFFFFFFFFFC0
FFFFFFFFFFC0
F000000003C0
F000000003C0
F000000003C0
F000000003C0
F000000003C0
F000000003C0
F000000003C0
F000000003C0
F000000003C0
F000000003C0
F000000003C0
F000000003C0
F000000003C0
F000000003C0
F000000003C0
F000000003C0
F000000003C0
F000000003C0
F000000003C0
F000000003C0
F000000003C0
F000000003C0
F000000003C0
F000000003C0
F000000003C0
F000000003C0
F000000003C0
F000000003C0
F000000003C0
F000000003C0
F000000003C0
F000000003C0
F000000003C0
F000000003C0
F000000003C0
F000000003C0
F000000003C0
F000000003C0
F000000003C0
F000000003C0
F000000003C0
F000000003C0
F000000003C0
F000000003C0
F000000003C0
F000000003C0
F000000003C0
F000000003C0
F000000003C0
F000000003C0
F000000003C0
F000000003C0
F000000003C0
F000000003C0
F000000003C0
F000000003C0
F000000003C0
F000000003C0
F000000003C0
F000000003C0
F000000003C0
F000000003C0
F000000003C0
F000000003C0
F000000003C0
F000000003C0
F000000003C0
F000000003C0
F000000003C0
F000000003C0
F000000003C0
F000000003C0
F000000003C0
F000000003C0
F000000003C0
F000000003C0
F000000003C0
F000000003C0
F000000003C0
F000000003C0
F000000003C0
F000000003C0
F000000003C0
F000000003C0
F000000003C0
F000000003C0
F000000003C0
F000000003C0
F000000003C0
F000000003C0
F000000003C0
F000000003C0
F000000003C0
F000000003C0
F000000003C0
F000000003C0
F000000003C0
F000000003C0
F000000003C0
F000000003C0
F000000003C0
FFFFFFFFFFC0
FFFFFFFFFFC0
FFFFFFFFFFC0
7FFFFFFFFF80
000000000000
000000000000
000000000000
000000000000
000000000000
7FFFFFFFFF80
FFFFFFFFFFC0
FFFFFFFFFFC0
FFFFFFFFFFC0
F000000003C0
F000000003C0
F000000003C0
F000000003C0
F000000003C0
F000000003C0
F000000003C0
F000000003C0
F000000003C0
F000000003C0
F000000003C0
F000000003C0
F000000003C0
F000000003C0
F000000003C0
F000000003C0
F000000003C0
F000000003C0
F000000003C0
F000000003C0
F000000003C0
F000000003C0
F000000003C0
F000000003C0
F000000003C0
F000000003C0
F000000003C0
F000000003C0
F000000003C0
FFFFFFFFFFC0
FFFFFFFFFFC0
FFFFFFFFFFC0
3FFFFFFFFF80
ENDCHAR
STARTCHAR 0022
ENCODING 34
SWIDTH 500 0
DWIDTH 90 0
BBX 0 0 0 0
BITMAP
ENDCHAR
STARTCHAR 0023
ENCODING 35
SWIDTH 500 0
DWIDTH 90 0
BBX 0 0 0 0
BITMAP
ENDCHAR
STARTCHAR 0024
ENCODING 36
SWIDTH 600 0
DWIDTH 108 0
BBX 99 183 5 -20
BITMAP
00000001FFFFFFFF8000000000
00000001FFFFFFFFC000000000
00000003FFFFFFFFC000000000
00000003FFFFFFFFC000000000
00000003C0000003C000000000
00000003C0000003C000000000
00000003C0000003C000000000
00000003C0000003C000000000
00000003C0000003C000000000
00000003C0000003C000000000
00000003C0000003C000000000
00000003C0000003C000000000
00000003C0000003C000000000
00000003C0000003C000000000
00000003C0000003C000000000
00000003C0000003FFFFF00000
00000007C0000003FFFFF80000
0000003FC0000001FFFFF80000
000001FFC0000001FFFFFC0000
00000FFF8000000000003C0000
00003FF80000000000003C0000
0000FF800000000000003C0000
0001FC000000000000001E0000
0007F0000000000000001E0000
000FC0000000000000001E0000
001F80000000000000000E0000
003E00000000000000000F0000
007C00000000000000000F0000
00F800000000000000000F0000
00F00000000000000000078000
01E00000000000000000078000
03E00000000000000000078000
03C00000000000000000078000
0780000000000000000003C000
0F80000000000000000003C000
0F00000000000000000003C000
1E00000000000000000001C000
1E00000000000000000001E000
1C00000000000000000001E000
3C00000000000000000001E000
3C00000000000000000000F000
3800000000000000000000F000
7800000000000000000000F000
7800000000000000000000F000
78000000000000000000007800
70000000000000000000007800
70000000000000000000007800
70000000000000000000007800
F0000000000007FFFFFFFFFC00
F00000000000FFFFFFFFFFFC00
F00000000003FFFFFFFFFFFC00
F00000000007FFFFFFFFFFF800
F0000000000FE0000000000000
F0000000000F00000000000000
F0000000000E00000000000000
70000000000E00000000000000
70000000000F00000000000000
78000000000F00000000000000
78000000000F00000000000000
78000000000780000000000000
780000000007C0000000000000
3C0000000003E0000000000000
3C0000000001F0000000000000
3C0000000000F0000000000000
1E0000000000FC000000000000
1E00000000007E000000000000
1F00000000003E000000000000
0F00000000001F000000000000
0F80000000000F800000000000
07800000000007C00000000000
03C00000000003E00000000000
03E00000000001F00000000000
01E00000000000F80000000000
00F000000000007C0000000000
00F800000000003E0000000000
007C00000000001F0000000000
003C00000000000F8000000000
001E00000000000F8000000000
001F000000000007C000000000
000F800000000003E000000000
0007C00000000001F000000000
0003C00000000000F800000000
0001E000000000007C00000000
0000F000000000003E00000000
0000F800000000001F00000000
00007C00000000000F80000000
00003E000000000007C0000000
00001F000000000003C0000000
00000F800000000003E0000000
000007C00000000001F0000000
000007E00000000000F8000000
000003E000000000007C000000
000001F000000000003E000000
000000F800000000001F000000
0000007C00000000000F800000
0000003E000000000007C00000
0000001F000000000003E00000
0000000F800000000003E00000
0000000FC00000000001F00000
00000007C00000000000F80000
00000003E000000000007C0000
00000001F000000000003E0000
00000000F800000000001E0000
000000007C00000000001F0000
000000003E00000000000F8000
000000001F0000000000078000
000000001F800000000003C000
000000000F800000000003E000
0000000007C00000000001F000
0000000003E00000000000F000
0000000001F000000000007800
0000000000F800000000007C00
00000000007C00000000003C00
00000000003E00000000001E00
00000000003F00000000001E00
00000000001F00000000000F00
00000000000F80000000000F00
000000000007C0000000000780
000000000003E0000000000780
000000000001F0000000000780
000000000000F8000000000380
000000000000780000000003C0
0000000000007C0000000003C0
0000000000003C0000000003C0
0000000000001C0000000001C0
0000000000001C0000000001C0
0000000000001C0000000001E0
0000000000001C0000000001E0
0000000000007C0000000001E0
3FFFFFFFFFFFF80000000001E0
3FFFFFFFFFFFF00000000001E0
3FFFFFFFFFFFE00000000001E0
3FFFFFFFFFFF000000000001E0
3C0000000000000000000001E0
3C0000000000000000000001C0
1E0000000000000000000001C0
1E0000000000000000000003C0
1E0000000000000000000003C0
0F0000000000000000000003C0
0F0000000000000000000003C0
0F000000000000000000000780
0F000000000000000000000780
07800000000000000000000700
07800000000000000000000F00
07800000000000000000000F00
07800000000000000000001E00
03C00000000000000000001E00
03C00000000000000000003C00
03C00000000000000000007C00
01E00000000000000000007800
01E0000000000000000000F000
01E0000000000000000001F000
01E0000000000000000003E000
00F0000000000000000007C000
00F000000000000000000F8000
00F000000000000000001F0000
00F000000000000000007E0000
00780000000000000000FC0000
00780000000000000003F80000
0078000000000000001FF00000
003800000000000000FFC00000
003C0000000000001FFF000000
003FFFFF80000001FFFC000000
003FFFFFC0000001FFE0000000
001FFFFFC0000003FE00000000
000FFFFFC0000003C000000000
00000003C0000003C000000000
00000003C0000003C000000000
00000003C0000003C000000000
00000003C0000003C000000000
00000003C0000003C000000000
00000003C0000003C000000000
00000003C0000003C000000000
00000003C0000003C000000000
00000003C0000003C000000000
00000003C0000003C000000000
00000003C0000003C000000000
00000003C0000003C000000000
00000003C0000003C000000000
00000003C0000003C000000000
00000003FFFFFFFFC000000000
00000003FFFFFFFFC000000000
00000001FFFFFFFFC000000000
ENDCHAR
STARTCHAR 0025
ENCODING 37
SWIDTH 1161 0
DWIDTH 209 0
BBX 203 157 3 -6
BITMAP
00000000FFFFF800000000000000000000000000000000000000
0000003FFFFFFFC0000000000000000000000000000000000000
000003FFFFFFFFFE000000000000000000000000000000000000
00001FFFFFFFFFFF8000000000007FFFFF000000000000000000
00007FF8000001FFE000000000007FFFFF800000000000000000
0001FF800000001FF80000000000FFFFFF800000000000000000
0007F80000000001FE0000000000FFFFFF800000000000000000
000FE000000000007F0000000000E00007000000000000000000
001F8000000000001F8000000001E0000F000000000000000000
003E00000000000007E000000001E0000E000000000000000000
007C00000000000003F000000001C0000E000000000000000000
00F800000000000000F800000003C0001E000000000000000000
01F0000000000000007800000003C0001C000000000000000000
03E0000000000000003C0000000380001C000000000000000000
07C0000000000000001E0000000780003C000000000000000000
0780000000000000001F00000007800038000000000000000000
0F00000000000000000F00000007000038000000000000000000
0F0000000000000000078000000F000078000000000000000000
1E0000000000000000078000000F000070000000000000000000
1E000000000000000003C000000E000070000000000000000000
3C000000000000000003C000001E0000F0000000000000000000
3C00000007FF00000001C000001E0000E0000000000000000000
380000003FFFE0000001E000001C0000E0000000000000000000
78000000FFFFF0000001E000003C0001E0000000000000000000
78000001FFFFFC000000E000003C0001C0000000000000000000
78000003F000FE000000E00000380001C0000000000000000000
70000007C0003E000000F00000780003C0000000000000000000
F000000F80000F000000F0000078000380000000000000000000
F000000F00000F800000F0000070000380000000000000000000
F000001E000007800000700000F0000780000000000000000000
F000001E000003C00000700000F0000700000000000000000000
E000003C000003C00000780000E0000F00000000000000000000
E000003C000003C00000780001E0000F00000000000000000000
E000003C000001C00000780001E0000E00000000000000000000
E000003C000001C00000780001C0001E00000000000000000000
E0000038000001E00000780003C0001E00000000000000000000
E0000038000001E0000078000380001C00000000000000000000
E0000038000001E0000078000380003C00000000000000000000
E0000038000001E0000078000780003C00000000000000000000
E000003C000001E0000078000700003800000000000000000000
E000003C000001C0000078000F00007800000000000000000000
E000003C000001C0000078000F00007800000000000000000000
E000003C000001C0000078000E00007000000000000000000000
F000003C000003C0000070001E0000F000000000000000000000
F000003C000003C0000070001E0000F000000000000000000000
F000003C000003C0000070001C0000E000000000000000000000
F000001C000003C00000F0003C0001E000000000000000000000
F000001E000003800000F0003C0001E000000000000000000000
7000001E000003800000F000380001C000000000000000000000
7000001E000007800000F000780003C000000000000000000000
7800001E000007800000E000780003C000000000000000000000
7800000E000007800000E0007000038000000000000000000000
7800000F000007800001E000F000078000000000000000000000
7800000F000007000001E000F000078000000000000000000000
3800000F00000F000001E000E000070000000000000000000000
3C00000700000F000001C001E0000F0000000000000000000000
3C00000780000E000003C001E0000F0000000000000000000000
3C00000780001E000003C001C0000E0000000000000000000000
1C00000380001E000003C003C0001E0000000000000000000000
1E000003C0001C0000078003C0001E0000000000000000000000
1E000003C0003C000007800380001C0000000000000000000000
0E000001E0003C000007800780003C0000000000000000000000
0F000001E0007800000F00078000380000000000000000000000
0F000000F0007800000F00070000380000003FFFFFFE00000000
07800000F000F000001E000F000078000003FFFFFFFFE0000000
078000007801F000001E000F00007000001FFFFFFFFFFE000000
03C000007C03E000001E000E0000700000FFFF00003FFF800000
03C000003E07C000003C001E0000F00003FF80000000FFE00000
01E000001FFF8000003C001E0000E00007F8000000000FF80000
01E000000FFF00000078001C0000E0001FC00000000001FC0000
00F0000007FE000000F8003C0001E0003F0000000000007E0000
00F0000001F8000000F0003C0001C0007E0000000000001F0000
007800000000000001F000380001C000F80000000000000FC000
007C00000000000001E000780003C001F000000000000007E000
003C00000000000003C0007800038003E000000000000001E000
003E00000000000007C0007000038007C000000000000000F000
001F000000000000078000F00007800F80000000000000007800
000F0000000000000F0000F00007001F00000000000000007C00
000F8000000000001F0000E00007001E00000000000000003C00
0007C000000000003E0001E0000F003C00000000000000001E00
0003E000000000003C0001E0000E003C00000000000000001E00
0001E00000000000780001C0001E007800000000000000000F00
0001F00000000000F80003C0001E007800000000000000000F00
0000F80000000001F00003C0001C007000000001C00000000780
00007E0000000003E0000380003C00F00000007FFF0000000780
00003F000000000FC0000780003C00F0000001FFFFC000000380
00001F800000001F80000700003800E0000003FFFFF0000003C0
00000FE00000007F00000700007801E0000007F007F8000003C0
000003F8000001FC00000F00007801E000000F8000FC000003C0
000001FF000007F800000E00007001E000001F00007C000001C0
0000007FF0007FE000000E0000F001C000003E00001E000001C0
0000001FFFFFFFC000001E0000F003C000003C00001E000001E0
00000007FFFFFE0000001C0000E003C000007800000F000001E0
00000000FFFFF00000001C0001E003C000007800000F000001E0
0000000001FE000000003C0001E003C0000070000007000001E0
00000000000000000000380001C003C0000070000007800000E0
00000000000000000000380003C003C00000F0000007800000E0
00000000000000000000780003C003C00000F0000007800000E0
000000000000000000007000038003C00000F0000007800000E0
00000000000000000000F000078003C00000F0000007800000E0
00000000000000000000F000078003C00000F0000007800000E0
00000000000000000000E000070003C00000F0000007800000E0
00000000000000000001E0000F0003C00000F0000007800000E0
00000000000000000001E0000F0003C00000F0000007800001E0
00000000000000000001C0000E0003C0000070000007800001E0
00000000000000000003C0001E0003C0000070000007800001E0
00000000000000000003C0001E0003C0000070000007000001E0
0000000000000000000380001C0003C0000078000007000001E0
0000000000000000000780003C0001C0000078000007000001E0
0000000000000000000780003C0001C000007800000F000001C0
000000000000000000070000380001E000007800000F000001C0
0000000000000000000F0000780001E000003800000F000003C0
0000000000000000000F0000780001E000003800000F000003C0
0000000000000000000E0000700001E000003C00000E000003C0
0000000000000000001E0000F00000E000003C00001E000003C0
0000000000000000001E0000F00000F000003C00001E00000380
0000000000000000001C0000E00000F000001C00001E00000780
0000000000000000003C0001E00000F000001E00001C00000780
0000000000000000003C0001C00000F000001E00003C00000780
000000000000000000380001C000007800001E00003C00000700
000000000000000000780003C000007800000F00003800000F00
0000000000000000007800038000007800000F00007800000F00
0000000000000000007000038000003800000700007800000F00
000000000000000000F000078000003C0000078000F000001E00
000000000000000000F000070000003C0000078000F000001E00
000000000000000000E000070000001E000003C001E000001C00
000000000000000001E0000F0000001E000003E001E000003C00
000000000000000001E0000E0000001E000001E003C000003C00
000000000000000001C0000E0000000F000001F007C000007800
000000000000000003C0001E0000000F000000F80F8000007800
000000000000000003C0001C000000078000007E1F000000F000
00000000000000000380003C000000078000003FFE000000F000
00000000000000000780003C00000003C000001FFC000001E000
00000000000000000780003800000003C000000FF8000001E000
00000000000000000700007800000001E000000080000003C000
00000000000000000F00007800000001F000000000000007C000
00000000000000000E00007000000000F0000000000000078000
00000000000000000E0000F000000000780000000000000F0000
00000000000000001E0000F0000000007C0000000000001F0000
00000000000000001C0000E0000000003C0000000000001E0000
00000000000000001C0001E0000000001E0000000000003C0000
00000000000000003C0001E0000000001F0000000000007C0000
0000000000000000380001C0000000000F800000000000F80000
0000000000000000380003C00000000007800000000000F00000
0000000000000000780003C00000000003C00000000001E00000
0000000000000000700003800000000003E00000000003E00000
0000000000000000700007800000000001F80000000007C00000
0000000000000000F00007800000000000FC000000001F800000
0000000000000000E000070000000000007E000000003F000000
0000000000000000E0000F0000000000003F80000000FE000000
0000000000000001FFFFFF0000000000000FE0000003F8000000
0000000000000001FFFFFE00000000000007F800000FF0000000
0000000000000001FFFFFE00000000000001FF8000FFC0000000
0000000000000000FFFFFC000000000000007FFFFFFF80000000
0000000000000000000000000000000000001FFFFFFC00000000
00000000000000000000000000000000000003FFFFE000000000
000000000000000000000000000000000000001FFE0000000000
ENDCHAR
STARTCHAR 0026
ENCODING 38
SWIDTH 800 0
DWIDTH 144 0
BBX 132 151 5 -2
BITMAP
000000000007FFFFFFFFFFFFFC00000000
0000000007FFFFFFFFFFFFFFFC00000000
00000000FFFFFFFFFFFFFFFFFE00000000
00000007FFFFFFFFFFFFFFFFFE00000000
0000003FFF800000000000001E00000000
000000FFE0000000000000000E00000000
000003FE00000000000000000F00000000
000007F000000000000000000F00000000
00001FC000000000000000000F00000000
00003F0000000000000000000780000000
00007E0000000000000000000780000000
0000F80000000000000000000780000000
0001F00000000000000000000780000000
0001E000000000000000000003C0000000
0003C000000000000000000003C0000000
0007C000000000000000000003C0000000
000F8000000000000000000003C0000000
000F0000000000000000000001E0000000
001E0000000000000000000001E0000000
001E0000000000000000000001E0000000
003C0000000000000000000000E0000000
003C0000000000000000000000F0000000
00780000000000000000000000F0000000
00780000000000000000000000F0000000
00F0000000000000000000000078000000
00F0000000000000000000000078000000
00F0000000000000000000000078000000
00E0000000000000000000000078000000
01E000000000000000000000003C000000
01E000000000000000000000003C000000
01E000000000000000000000003C000000
01E000000000000000000000003C000000
01C000000000000000000000001E000000
01C00000000000003FFFFFFFFFFE000000
01C00000000001FFFFFFFFFFFFFE000000
01C00000000007FFFFFFFFFFFFFE000000
01C0000000000FFFFFFFFFFFFFFE000000
01C0000000001FF0000000000000000000
01C0000000001E00000000000000000000
01C0000000003C00000000000000000000
01E0000000003C00000000000000000000
01E0000000003C00000000000000000000
01E0000000003C00000000000000000000
01E0000000003C00000000000000000000
00E0000000003C00000000000000000000
00F0000000001E00000000000000000000
00F0000000001E00000000000000000000
00F0000000000F00000000000000000000
0078000000000F00000000000000000000
0078000000000780000000000000000000
003C0000000007C0000000000000000000
003C0000000003E000000FFFFFFFFFFFE0
001E0000000001F000001FFFFFFFFFFFF0
001F0000000000F800003FFFFFFFFFFFF0
000F00000000007E00003FFFFFFFFFFFF0
000780000000003F00003C0000000000F0
0007C0000000001F80003C0000000000F0
0003E0000000000FC0003C0000000000F0
0001F00000000003F0003C0000000000F0
0000F80000000001F8003C0000000000F0
00007C0000000000FE003C0000000000F0
00007C00000000003F003C0000000000F0
00003E00000000001F803C0000000000F0
00001F000000000007E03C0000000000F0
00000F800000000003F03C0000000000F0
000007C00000000001F83C0000000000F0
000003F000000000007E3C0000000000F0
000001F800000000003F3C0000000000F0
000000FC00000000001FBC0000000000F0
0000007C000000000007FC0000000000F0
000001F8000000000003FC0000000000F0
000003F0000000000001FC0000000000F0
000007E0000000000007FC0000000000F0
00000F8000000000001FFC0000000000F0
00001F0000000000003FBC0000000000F0
00003E000000000000FE3C0000000000F0
00007C000000000003F83C0000000000F0
0000F8000000000007F03C0000000000F0
0001F000000000001FC03C0000000000F0
0003E000000000003F003C0000000000F0
0007C00000000000FE003C0000000000F0
000F800000000001F8003C0000000000F0
001F000000000007F0003C0000000000F0
001E00000000000FC0003C0000000000F0
003C00000000001F80003C000000007FF0
007C00000000003F00003C00000000FFF0
00F80000000000FC00003C00000000FFF0
00F00000000001F800003C00000000FFE0
01E00000000003F000003C00000000F000
03E00000000007E000003C00000000F000
03C0000000000FC000003C00000000F000
0780000000001F0000003C00000000F000
0780000000003E0000003C00000000F000
0F00000000003C0000003C00000000F000
0F0000000000780000003C00000000F000
1E0000000000F80000003C00000000F000
1E0000000001F00000003C00000000F000
1E0000000001E00000003C00000000F000
3C0000000003C00000003C00000000F000
3C0000000003C00000003C00000000F000
3C0000000007800000003C00000000F000
380000000007800000003C00000000F000
78000000000F000000003C00000000F000
78000000000F000000003C00000000F000
78000000000F000000003C00000000F000
70000000000E000000003C00000000F000
70000000000E000000003C00000000F000
70000000000E000000003C00000000F000
F0000000000E000000003C00000000F000
F0000000000E000000003C00000000F000
F0000000000F000000003C00000000F000
F0000000000F000000003C00000000F000
F00000000007C00000003C00000000F000
F00000000007F80000003C00000000F000
F00000000003FFFFFFFFFC00000000F000
F00000000000FFFFFFFFFC00000000F000
F000000000003FFFFFFFFC00000000F000
F0000000000003FFFFFFF800000000F000
F00000000000000000000000000000F000
700000000000000000000000000000F000
700000000000000000000000000000F000
780000000000000000000000000000F000
780000000000000000000000000000F000
780000000000000000000000000000F000
3C0000000000000000000000000000F000
3C0000000000000000000000000000F000
3C0000000000000000000000000000F000
1E0000000000000000000000000000F000
1E0000000000000000000000000000F000
0F0000000000000000000000000000F000
0F8000000000000000000000000000F000
078000000000000000000000000000F000
03C000000000000000000000000000F000
03E000000000000000000000000000F000
01F000000000000000000000000000F000
00F800000000000000000000000000F000
007C00000000000000000000000000F000
003E00000000000000000000000000F000
003F00000000000000000000000000F000
001F80000000000000000000000000F000
0007E0000000000000000000000000F000
0003F0000000000000000000000000F000
0001FC000000000000000000000000F000
00007F800000000000000000000000F000
00003FF00000000000000000000000F000
00000FFF0000000000000000000000F000
000001FFFC00000000000000000000F000
0000003FFFFFFFFFFFFFFFFFFFFFFFF000
00000003FFFFFFFFFFFFFFFFFFFFFFF000
000000001FFFFFFFFFFFFFFFFFFFFFE000
000000000003FFFFFFFFFFFFFFFFFFE000
ENDCHAR
STARTCHAR 0027
ENCODING 39
SWIDTH 500 0
DWIDTH 90 0
BBX 0 0 0 0
BITMAP
ENDCHAR
STARTCHAR 0028
ENCODING 40
SWIDTH 522 0
DWIDTH 94 0
BBX 65 196 22 -45
BITMAP
000000060000000000
0000000F8000000000
0000001FE000000000
0000001FF800000000
0000003DFE00000000
000000787FC0000000
000000780FF0000000
000000F003FC000000
000000F000FF000000
000001E0003FC00000
000003E0000FF00000
000003C00003FC0000
000007800000FF0000
0000078000003FE000
0000078000000FF800
00000F00000001FE00
00001F000000007F00
00001E000000001F00
00003E000000000F00
00003C000000001F00
000078000000001E00
000078000000003E00
0000F0000000003C00
0000F0000000007C00
0000F0000000007800
0001E0000000007800
0001E000000000F000
0003C000000000F000
0003C000000001E000
00078000000001E000
00078000000003C000
00070000000003C000
000F00000000078000
000F00000000078000
001E00000000078000
001E000000000F0000
001C000000000F0000
003C000000001E0000
003C000000001E0000
0078000000001C0000
0078000000003C0000
0078000000003C0000
00F000000000780000
00F000000000780000
00F000000000780000
01E000000000F00000
01E000000000F00000
01E000000000E00000
01C000000001E00000
03C000000001E00000
03C000000003C00000
038000000003C00000
078000000003C00000
078000000007800000
078000000007800000
070000000007800000
0F0000000007000000
0F000000000F000000
0F000000000F000000
0E000000000F000000
1E000000001E000000
1E000000001E000000
1E000000001E000000
1E000000001C000000
1C000000003C000000
3C000000003C000000
3C000000003C000000
3C0000000038000000
3C0000000078000000
380000000078000000
380000000078000000
780000000078000000
780000000070000000
7800000000F0000000
7800000000F0000000
7800000000F0000000
7000000000F0000000
7000000000E0000000
7000000000E0000000
F000000000E0000000
F000000001E0000000
F000000001E0000000
F000000001E0000000
F000000001E0000000
F000000001E0000000
F000000001E0000000
F000000001C0000000
F000000001C0000000
F000000001C0000000
E000000001C0000000
E000000001C0000000
E000000001C0000000
E000000001C0000000
E000000003C0000000
E000000003C0000000
E000000003C0000000
E000000003C0000000
E000000003C0000000
E000000003C0000000
E000000003C0000000
E000000003C0000000
E000000001C0000000
E000000001C0000000
F000000001C0000000
F000000001C0000000
F000000001C0000000
F000000001E0000000
F000000001E0000000
F000000001E0000000
F000000001E0000000
F000000001E0000000
F000000001E0000000
F000000001E0000000
7000000000E0000000
7000000000E0000000
7000000000E0000000
7000000000F0000000
7800000000F0000000
7800000000F0000000
7800000000F0000000
780000000070000000
780000000070000000
380000000078000000
380000000078000000
3C0000000078000000
3C0000000038000000
3C0000000038000000
3C000000003C000000
3C000000003C000000
1C000000003C000000
1E000000001C000000
1E000000001E000000
1E000000001E000000
1E000000001E000000
0F000000000E000000
0F000000000F000000
0F000000000F000000
0F0000000007000000
070000000007800000
078000000007800000
078000000003800000
078000000003C00000
03C000000003C00000
03C000000001C00000
03C000000001E00000
03C000000001E00000
01E000000000E00000
01E000000000F00000
01E000000000F00000
00F000000000700000
00F000000000780000
00F000000000780000
0078000000003C0000
0078000000003C0000
0078000000001C0000
003C000000001E0000
003C000000001E0000
001C000000000F0000
001E000000000F0000
001E00000000070000
000F00000000078000
000F00000000078000
00070000000003C000
00078000000003C000
00078000000001E000
0003C000000001E000
0003C000000001F000
0001E000000000F000
0001E000000000F000
0000F0000000007800
0000F0000000007800
0000F0000000003C00
000078000000003C00
000078000000001E00
00003C000000001E00
00003C000000000F00
00001E000000000F00
00001E000000000780
00000F000000000F80
00000F000000003F80
00000780000000FF00
000007C0000003FC00
000003C000001FF000
000003E000007FC000
000001E00001FF0000
000000F00007FC0000
000000F0001FE00000
00000078007F800000
0000007801FE000000
0000003C07F8000000
0000003C1FE0000000
0000001E7F80000000
0000000FFE00000000
0000000FF800000000
00000007E000000000
000000038000000000
ENDCHAR
STARTCHAR 0029
ENCODING 41
SWIDTH 522 0
DWIDTH 94 0
BBX 66 196 6 -44
BITMAP
000000003800000000
00000000FC00000000
00000003FC00000000
0000000FFE00000000
0000003FDF00000000
000000FF0F00000000
000003FC0F80000000
00000FF00780000000
00003FC007C0000000
0000FF0003C0000000
0003FC0001E0000000
001FF00001F0000000
007F800000F0000000
01FE000000F8000000
07F800000078000000
1FE00000007C000000
3F800000003C000000
7E000000001E000000
7C000000001E000000
3C000000000F000000
3E000000000F000000
1E0000000007800000
1F0000000007800000
0F0000000003800000
0F8000000003C00000
078000000001C00000
07C000000001E00000
03C000000001E00000
03C000000000F00000
01E000000000F00000
01E000000000780000
00F000000000780000
00F000000000780000
0078000000003C0000
0078000000003C0000
0078000000001C0000
003C000000001E0000
003C000000001E0000
001E000000000F0000
001E000000000F0000
001E00000000070000
000F00000000078000
000F00000000078000
000700000000038000
00078000000003C000
00078000000003C000
0003C000000001C000
0003C000000001E000
0003C000000001E000
0001E000000001E000
0001E000000000F000
0001E000000000F000
0000F000000000F000
0000F0000000007000
0000F0000000007800
000078000000007800
000078000000007800
000078000000003800
00003C000000003C00
00003C000000003C00
00003C000000003C00
00001C000000001C00
00001E000000001E00
00001E000000001E00
00001E000000001E00
00000E000000001E00
00000F000000000E00
00000F000000000E00
00000F000000000F00
00000F000000000F00
000007000000000F00
000007800000000F00
000007800000000700
000007800000000700
000007800000000780
000003800000000780
000003C00000000780
000003C00000000780
000003C00000000780
000003C00000000780
000003C00000000780
000001C00000000380
000001C00000000380
000001C00000000380
000001E00000000380
000001E000000003C0
000001E000000003C0
000001E000000003C0
000001E000000003C0
000001E000000003C0
000001E000000003C0
000001E000000003C0
000001E000000003C0
000001E000000003C0
000001E000000003C0
000001E000000003C0
000001E000000003C0
000000E000000003C0
000000E000000003C0
000000E000000003C0
000001E000000003C0
000001E000000003C0
000001E000000003C0
000001E000000003C0
000001E000000003C0
000001E000000003C0
000001E00000000380
000001E00000000380
000001C00000000380
000001C00000000380
000001C00000000380
000001C00000000380
000003C00000000780
000003C00000000780
000003C00000000780
000003C00000000780
000003C00000000780
000003800000000780
000003800000000700
000007800000000700
000007800000000F00
000007800000000F00
000007800000000F00
000007000000000F00
000007000000000F00
00000F000000000E00
00000F000000000E00
00000F000000001E00
00000E000000001E00
00001E000000001E00
00001E000000001E00
00001E000000001C00
00001C000000003C00
00003C000000003C00
00003C000000003C00
00003C000000003C00
000038000000007800
000078000000007800
000078000000007800
000070000000007800
0000F000000000F000
0000F000000000F000
0000E000000000F000
0001E000000000F000
0001E000000001E000
0001C000000001E000
0003C000000001E000
0003C000000003C000
00038000000003C000
00078000000003C000
000700000000038000
000F00000000078000
000F00000000078000
000E00000000070000
001E000000000F0000
001E000000000F0000
003C000000001E0000
003C000000001E0000
0038000000001C0000
0078000000003C0000
0078000000003C0000
00F000000000380000
00F000000000780000
01E000000000700000
01E000000000F00000
03C000000000F00000
03C000000001E00000
03C000000001E00000
078000000001C00000
078000000003C00000
0F0000000003800000
0F0000000007800000
1E0000000007800000
1E000000000F000000
3C000000000F000000
3C000000001E000000
78000000001E000000
78000000003C000000
FC000000003C000000
FF0000000078000000
3FC000000078000000
0FF0000000F0000000
03FC000000F0000000
00FF000001E0000000
003FC00003C0000000
000FF00003C0000000
0003FC000780000000
0000FF800780000000
00003FE00F00000000
00000FF80F00000000
000003FE1E00000000
000000FFBC00000000
0000001FFC00000000
00000007F800000000
00000001F800000000
000000007000000000
ENDCHAR
STARTCHAR 002A
ENCODING 42
SWIDTH 477 0
DWIDTH 86 0
BBX 76 72 5 77
BITMAP
0000007FFFFFE0000000
0000007FFFFFE0000000
0000007FFFFFE0000000
0000007FFFFFE0000000
000000780001E0000000
000000780001E0000000
000000780001E0000000
000000780001E0000000
000000780001E0000000
000000380001E0000000
000000380001C0000000
000000380001C0000000
0000003C0001C0000000
0000003C0001C0000000
01E0003C0003C0003800
01F8003C0003C000FC00
03FE003C0003C003FC00
03FF803C0003C00FFC00
03DFE01C0003C03F9E00
0787F81C0003C0FE1E00
0781FE1C000383F81E00
07807F9E00038FE00E00
07801FFE0003FF800F00
0F0007FE0007FE000F00
0F0001FE0007F8000F00
0F00007E0007E0000780
1E00001E000780000780
1E000004000000000780
1E0000000000000003C0
3C0000000000000003C0
3C0000000000000003C0
3C0000000000000001C0
380000000000000001E0
780000000000000001E0
780000000000000001E0
7C0000000000000003F0
FFC00000000000003FF0
7FFE000000000003FFF0
3FFFE0000000007FFFC0
03FFFE00000007FFFC00
001FFF0000000FFF8000
0000FF0000000FF00000
00001F0000000F800000
00003E00000007C00000
00007C00000003E00000
0000F800000001F00000
0001F000000000F80000
0003E0000000007C0000
0003C0000000003E0000
000780000000001F0000
000F00000000000F8000
001F000006000007C000
003E00000F000007C000
007C00001F800003E000
00F800001F800001F000
01F000003FC00000F800
01F000007DC000007C00
01F8000079E00001F800
00FE0000F8F00003F000
003F0000F0F00007E000
001F8001E078001F8000
000FE003E03C003F0000
0003F003C03C00FE0000
0001F807C01E01F80000
00007E07801E03F00000
00003F0F000F0FC00000
00001FDF00079F800000
000007FE0007BF000000
000003FE0003FC000000
000001FC0001F8000000
000000780001F0000000
000000380000C0000000
ENDCHAR
STARTCHAR 002B
ENCODING 43
SWIDTH 500 0
DWIDTH 90 0
BBX 0 0 0 0
BITMAP
ENDCHAR
STARTCHAR 002C
ENCODING 44
SWIDTH 300 0
DWIDTH 54 0
BBX 52 54 -3 -19
BITMAP
0000FFFFFFFFC0
0001FFFFFFFFF0
0003FFFFFFFFF0
0003FFFFFFFFF0
0003C0000001E0
000780000001E0
000780000001E0
000780000003C0
000700000003C0
000F00000003C0
000F0000000380
000F0000000780
001E0000000780
001E0000000780
001E0000000F00
003C0000000F00
003C0000000F00
003C0000001E00
00380000001E00
00780000001E00
00780000001E00
00780000003C00
00F00000003C00
00F00000003C00
00F00000007800
01E00000007800
01E00000007800
01E00000007000
01E0000000F000
03C0000000F000
03C0000000F000
03C0000001E000
0780000001E000
0780000001E000
0780000003C000
0700000003C000
0F00000003C000
0F000000038000
0F000000078000
1E000000078000
1E000000078000
1E0000000F0000
3C0000000F0000
3C0000000F0000
3C0000000E0000
380000001E0000
780000001E0000
780000001C0000
780000003C0000
F00000003C0000
FFFFFFFFFC0000
FFFFFFFFF80000
FFFFFFFFF80000
7FFFFFFFF00000
ENDCHAR
STARTCHAR 002D
ENCODING 45
SWIDTH 322 0
DWIDTH 58 0
BBX 62 32 -2 47
BITMAP
7FFFFFFFFFFFFFF8
FFFFFFFFFFFFFFFC
FFFFFFFFFFFFFFFC
FFFFFFFFFFFFFFFC
F00000000000003C
F00000000000003C
F00000000000003C
F00000000000003C
F00000000000003C
F00000000000003C
F00000000000003C
F00000000000003C
F00000000000003C
F00000000000003C
F00000000000003C
F00000000000003C
F00000000000003C
F00000000000003C
F00000000000003C
F00000000000003C
F00000000000003C
F00000000000003C
F00000000000003C
F00000000000003C
F00000000000003C
F00000000000003C
F00000000000003C
F00000000000003C
FFFFFFFFFFFFFFFC
FFFFFFFFFFFFFFFC
FFFFFFFFFFFFFFFC
7FFFFFFFFFFFFFF8
ENDCHAR
STARTCHAR 002E
ENCODING 46
SWIDTH 300 0
DWIDTH 54 0
BBX 36 37 9 -2
BITMAP
7FFFFFFFE0
FFFFFFFFF0
FFFFFFFFF0
FFFFFFFFF0
F0000000F0
F0000000F0
F0000000F0
F0000000F0
F0000000F0
F0000000F0
F0000000F0
F0000000F0
F0000000F0
F0000000F0
F0000000F0
F0000000F0
F0000000F0
F0000000F0
F0000000F0
F0000000F0
F0000000F0
F0000000F0
F0000000F0
F0000000F0
F0000000F0
F0000000F0
F0000000F0
F0000000F0
F0000000F0
F0000000F0
F0000000F0
F0000000F0
F0000000F0
FFFFFFFFF0
FFFFFFFFF0
FFFFFFFFF0
7FFFFFFFE0
ENDCHAR
STARTCHAR 002F
ENCODING 47
SWIDTH 500 0
DWIDTH 90 0
BBX 96 188 -3 -40
BITMAP
0000000000000001FFFFFFFE
0000000000000001FFFFFFFF
0000000000000003FFFFFFFF
0000000000000003FFFFFFFF
00000000000000038000000E
00000000000000078000001E
00000000000000078000001C
00000000000000070000001C
000000000000000F0000003C
000000000000000F00000038
000000000000000E00000038
000000000000001E00000078
000000000000001E00000070
000000000000001C00000070
000000000000003C000000F0
000000000000003C000000E0
0000000000000038000000E0
0000000000000078000001E0
0000000000000078000001C0
0000000000000070000001C0
00000000000000F0000003C0
00000000000000F000000380
00000000000000E000000380
00000000000001E000000780
00000000000001E000000700
00000000000001C000000700
00000000000003C000000F00
00000000000003C000000E00
000000000000038000001E00
000000000000078000001E00
000000000000078000001C00
000000000000070000003C00
0000000000000F0000003C00
0000000000000E0000003800
0000000000001E0000007800
0000000000001E0000007800
0000000000001C0000007000
0000000000003C000000F000
0000000000003C000000F000
00000000000038000000E000
00000000000078000001E000
00000000000078000001E000
00000000000070000001C000
000000000000F0000003C000
000000000000F0000003C000
000000000000E00000038000
000000000001E00000078000
000000000001E00000078000
000000000001C00000070000
000000000003C000000F0000
000000000003C000000F0000
0000000000038000000E0000
0000000000078000001E0000
0000000000078000001C0000
0000000000070000001C0000
00000000000F0000003C0000
00000000000F000000380000
00000000000E000000380000
00000000001E000000780000
00000000001E000000700000
00000000001C000000700000
00000000003C000000F00000
00000000003C000000E00000
000000000038000000E00000
000000000078000001E00000
000000000078000001C00000
000000000070000001C00000
0000000000F0000003C00000
0000000000F0000003800000
0000000000E0000007800000
0000000001E0000007800000
0000000001E0000007000000
0000000001C000000F000000
0000000003C000000F000000
00000000038000000E000000
00000000038000001E000000
00000000078000001E000000
00000000070000001C000000
00000000070000003C000000
000000000F0000003C000000
000000000E00000038000000
000000001E00000078000000
000000001E00000078000000
000000001C00000070000000
000000003C000000F0000000
000000003C000000F0000000
0000000038000000E0000000
0000000078000001E0000000
0000000078000001E0000000
0000000070000001C0000000
00000000F0000003C0000000
00000000F0000003C0000000
00000000E000000380000000
00000001E000000780000000
00000001E000000780000000
00000001C000000700000000
00000003C000000F00000000
00000003C000000E00000000
000000038000000E00000000
000000078000001E00000000
000000078000001C00000000
000000070000001C00000000
0000000F0000003C00000000
0000000F0000003800000000
0000000E0000003800000000
0000001E0000007800000000
0000001E0000007000000000
0000001C0000007000000000
0000003C000000F000000000
0000003C000000E000000000
00000038000001E000000000
00000078000001E000000000
00000078000001C000000000
00000070000003C000000000
000000F0000003C000000000
000000E00000038000000000
000000E00000078000000000
000001E00000078000000000
000001C00000070000000000
000001C000000F0000000000
000003C000000F0000000000
0000038000000E0000000000
0000038000001E0000000000
0000078000001E0000000000
0000070000001C0000000000
0000070000003C0000000000
00000F0000003C0000000000
00000E000000380000000000
00001E000000780000000000
00001E000000780000000000
00001C000000700000000000
00003C000000F00000000000
00003C000000F00000000000
000038000000E00000000000
000078000001E00000000000
000078000001E00000000000
000070000001C00000000000
0000F0000003C00000000000
0000F0000003C00000000000
0000E0000003800000000000
0001E0000007800000000000
0001E0000007000000000000
0001C0000007000000000000
0003C000000F000000000000
0003C000000E000000000000
00038000000E000000000000
00078000001E000000000000
00078000001C000000000000
00070000001C000000000000
000F0000003C000000000000
000F00000038000000000000
000E00000038000000000000
001E00000078000000000000
001E00000070000000000000
001C000000F0000000000000
003C000000F0000000000000
003C000000E0000000000000
0038000001E0000000000000
0078000001E0000000000000
0070000001C0000000000000
0070000003C0000000000000
00F0000003C0000000000000
00E000000380000000000000
00E000000780000000000000
01E000000780000000000000
01C000000700000000000000
01C000000F00000000000000
03C000000F00000000000000
038000000E00000000000000
038000001E00000000000000
078000001E00000000000000
070000001C00000000000000
070000003C00000000000000
0F0000003C00000000000000
0E0000003800000000000000
1E0000007800000000000000
1E0000007800000000000000
1C0000007000000000000000
3C000000F000000000000000
3C000000F000000000000000
38000000E000000000000000
78000001E000000000000000
78000001E000000000000000
70000001C000000000000000
F0000003C000000000000000
FFFFFFFF8000000000000000
FFFFFFFF8000000000000000
FFFFFFFF8000000000000000
ENDCHAR
STARTCHAR 0030
ENCODING 48
SWIDTH 777 0
DWIDTH 140 0
BBX 133 157 4 -6
BITMAP
00000000000001FFFFF800000000000000
000000000003FFFFFFFFFC000000000000
0000000000FFFFFFFFFFFFF00000000000
000000000FFFFFFFFFFFFFFF0000000000
000000007FFFE00000003FFFE000000000
00000003FFF000000000007FFC00000000
0000000FFE00000000000007FF80000000
0000003FE0000000000000007FE0000000
000000FF00000000000000000FF0000000
000003FC000000000000000003FC000000
000007F00000000000000000007F000000
00001FC00000000000000000003F800000
00003F000000000000000000000FC00000
00007E0000000000000000000003E00000
0000F80000000000000000000001F00000
0001F00000000000000000000000F80000
0003E000000000000000000000007C0000
0007C000000000000000000000003E0000
00078000000000000000000000001F0000
000F0000000000000000000000000F0000
001F000000000000000000000000078000
001E00000000000000000000000007C000
003C00000000000000000000000003C000
007C00000000000000000000000001E000
007800000000000000000000000001E000
00F000000000000000000000000000F000
00F000000000000000000000000000F000
01E0000000000000000000000000007800
01E0000000000000000000000000007800
03C0000000000000000000000000003C00
03C0000000000000000000000000003C00
0780000000000000000000000000001E00
0780000000000000000000000000001E00
0700000000000000000000000000000F00
0F00000000000000200000000000000F00
0F0000000000007FFFF000000000000700
0E000000000003FFFFFE00000000000780
1E00000000001FFFFFFF80000000000780
1E00000000003FF000FFE0000000000380
1C0000000000FF00000FF00000000003C0
3C0000000001FC000001F80000000003C0
3C0000000003F0000000FC0000000001C0
380000000003E00000003E0000000001E0
380000000007800000001E0000000001E0
78000000000F800000000F0000000001E0
78000000000F000000000F8000000000E0
78000000001E00000000078000000000E0
70000000001E0000000007C000000000F0
70000000003C0000000003C000000000F0
F0000000003C0000000003C000000000F0
F0000000003C0000000001E000000000F0
F000000000780000000001E00000000070
F000000000780000000001E00000000070
F000000000780000000000E00000000070
E000000000700000000000F00000000070
E000000000700000000000F00000000078
E000000000F00000000000F00000000078
E000000000F00000000000F00000000078
E000000000F00000000000700000000078
E000000000F00000000000700000000078
E000000000F00000000000700000000078
E000000000F00000000000700000000078
E000000000F00000000000700000000078
E000000000F00000000000700000000078
E000000000F00000000000700000000078
E000000000F00000000000700000000078
F000000000F00000000000700000000070
F000000000F00000000000700000000070
F000000000F00000000000700000000070
F000000000F00000000000700000000070
F000000000F00000000000700000000070
F000000000F00000000000F000000000F0
F000000000F00000000000F000000000F0
F000000000700000000000F000000000F0
7000000000700000000000F000000000F0
7000000000700000000000F000000000F0
7800000000780000000000E000000000F0
7800000000780000000000E000000000E0
7800000000780000000001E000000000E0
7800000000780000000001E000000001E0
7800000000380000000001E000000001E0
3800000000380000000001E000000001E0
38000000003C0000000001C000000001E0
3C000000003C0000000003C000000001C0
3C000000003C0000000003C000000001C0
3C000000001C0000000003C000000003C0
3C000000001E0000000003C000000003C0
1C000000001E00000000038000000003C0
1E000000001E0000000007800000000380
1E000000001E0000000007800000000780
1E000000000F0000000007800000000780
0E000000000F000000000F000000000780
0F000000000F000000000F000000000780
0F0000000007000000000F000000000F00
0F0000000007800000001E000000000F00
070000000007800000001E000000000F00
078000000003C00000001E000000000E00
078000000003C00000003C000000001E00
078000000003C00000003C000000001E00
03C000000001E00000003C000000001E00
03C000000001E000000078000000003C00
03C000000001E000000078000000003C00
01E000000000F0000000F0000000003C00
01E000000000F0000000F0000000007800
01E00000000078000001E0000000007800
00F00000000078000001E0000000007800
00F0000000003C000003E000000000F000
0070000000003C000003C000000000F000
0078000000001E000007C000000001E000
0078000000001E0000078000000001E000
003C000000000F00000F0000000001E000
003C000000000F80000F0000000003C000
001E000000000780001E0000000003C000
001E0000000003C0003E00000000078000
000F0000000003E0007C00000000078000
000F0000000001F800F8000000000F0000
00078000000000FC03F0000000000F0000
000780000000007FFFE0000000001E0000
0007C0000000001FFFC0000000001E0000
0003C0000000000FFF00000000003C0000
0001E00000000001F800000000003C0000
0001E00000000000000000000000780000
0000F00000000000000000000000F80000
0000F00000000000000000000000F00000
0000780000000000000000000001E00000
00007C0000000000000000000001E00000
00003C0000000000000000000003C00000
00001E0000000000000000000007C00000
00001F0000000000000000000007800000
00000F000000000000000000000F000000
000007800000000000000000001F000000
000007C00000000000000000001E000000
000003C00000000000000000003C000000
000001E00000000000000000007C000000
000001F0000000000000000000F8000000
000000F8000000000000000000F0000000
00000078000000000000000001E0000000
0000003C000000000000000003E0000000
0000003E000000000000000007C0000000
0000001F00000000000000000F80000000
0000000F80000000000000001F00000000
00000007C0000000000000003E00000000
00000003E0000000000000007C00000000
00000001F800000000000000F800000000
00000000FC00000000000003F000000000
000000007E00000000000007E000000000
000000001F8000000000001FC000000000
000000000FC000000000003F0000000000
0000000007F00000000000FE0000000000
0000000001FC0000000003F80000000000
0000000000FF800000001FF00000000000
00000000003FF0000000FFC00000000000
00000000000FFF00000FFF000000000000
000000000001FFFFFFFFFC000000000000
0000000000003FFFFFFFE0000000000000
00000000000007FFFFFE00000000000000
000000000000001FFFC000000000000000
ENDCHAR
STARTCHAR 0031
ENCODING 49
SWIDTH 422 0
DWIDTH 76 0
BBX 67 151 -4 -2
BITMAP
003FFFFFFFFFFFFFC0
007FFFFFFFFFFFFFE0
007FFFFFFFFFFFFFE0
007FFFFFFFFFFFFFE0
0070000000000001E0
00F0000000000001E0
00F0000000000001E0
00F0000000000001E0
01E0000000000001E0
01E0000000000001E0
01E0000000000001E0
01E0000000000001E0
03C0000000000001E0
03C0000000000001E0
03C0000000000001E0
0380000000000001E0
0780000000000001E0
0780000000000001E0
0780000000000001E0
0F00000000000001E0
0F00000000000001E0
0F00000000000001E0
0F00000000000001E0
1E00000000000001E0
1E00000000000001E0
1E00000000000001E0
1E00000000000001E0
3C00000000000001E0
3C00000000000001E0
3C00000000000001E0
3800000000000001E0
7800000000000001E0
7800000000000001E0
7FFFFFE000000001E0
FFFFFFF000000001E0
FFFFFFF000000001E0
7FFFFFF000000001E0
0000007000000001E0
0000007000000001E0
0000007000000001E0
0000007000000001E0
0000007000000001E0
0000007000000001E0
0000007000000001E0
0000007000000001E0
0000007000000001E0
0000007000000001E0
0000007000000001E0
0000007000000001E0
0000007000000001E0
0000007000000001E0
0000007000000001E0
0000007000000001E0
0000007000000001E0
0000007000000001E0
0000007000000001E0
0000007000000001E0
0000007000000001E0
0000007000000001E0
0000007000000001E0
0000007000000001E0
0000007000000001E0
0000007000000001E0
0000007000000001E0
0000007000000001E0
0000007000000001E0
0000007000000001E0
0000007000000001E0
0000007000000001E0
0000007000000001E0
0000007000000001E0
0000007000000001E0
0000007000000001E0
0000007000000001E0
0000007000000001E0
0000007000000001E0
0000007000000001E0
0000007000000001E0
0000007000000001E0
0000007000000001E0
0000007000000001E0
0000007000000001E0
0000007000000001E0
0000007000000001E0
0000007000000001E0
0000007000000001E0
0000007000000001E0
0000007000000001E0
0000007000000001E0
0000007000000001E0
0000007000000001E0
0000007000000001E0
0000007000000001E0
0000007000000001E0
0000007000000001E0
0000007000000001E0
0000007000000001E0
0000007000000001E0
0000007000000001E0
0000007000000001E0
0000007000000001E0
0000007000000001E0
0000007000000001E0
0000007000000001E0
0000007000000001E0
0000007000000001E0
0000007000000001E0
0000007000000001E0
0000007000000001E0
0000007000000001E0
0000007000000001E0
0000007000000001E0
0000007000000001E0
0000007000000001E0
0000007000000001E0
0000007000000001E0
0000007000000001E0
0000007000000001E0
0000007000000001E0
0000007000000001E0
0000007000000001E0
0000007000000001E0
0000007000000001E0
0000007000000001E0
0000007000000001E0
0000007000000001E0
0000007000000001E0
0000007000000001E0
0000007000000001E0
0000007000000001E0
0000007000000001E0
0000007000000001E0
0000007000000001E0
0000007000000001E0
0000007000000001E0
0000007000000001E0
0000007000000001E0
0000007000000001E0
0000007000000001E0
0000007000000001E0
0000007000000001E0
0000007000000001E0
0000007000000001E0
0000007000000001E0
0000007000000001E0
0000007000000001E0
0000007000000001E0
0000007FFFFFFFFFE0
0000007FFFFFFFFFE0
0000007FFFFFFFFFE0
0000003FFFFFFFFFC0
ENDCHAR
STARTCHAR 0032
ENCODING 50
SWIDTH 577 0
DWIDTH 104 0
BBX 105 151 -5 -2
BITMAP
00007FFFFFFFFFFFFC0000000000
0000FFFFFFFFFFFFFFF000000000
0000FFFFFFFFFFFFFFFF00000000
0000FFFFFFFFFFFFFFFFE0000000
0001E00000000000007FF8000000
0001E000000000000003FE000000
0001E0000000000000007F000000
0001C0000000000000001FC00000
0003C00000000000000007E00000
0003C00000000000000003F00000
0003C00000000000000001F80000
0007800000000000000000FC0000
00078000000000000000007C0000
00078000000000000000003E0000
00078000000000000000001F0000
000F0000000000000000000F8000
000F000000000000000000078000
000F00000000000000000007C000
000E00000000000000000003C000
001E00000000000000000001E000
001E00000000000000000001E000
001E00000000000000000000E000
003C00000000000000000000F000
003C00000000000000000000F000
003C00000000000000000000F000
003C000000000000000000007000
0078000000000000000000007800
0078000000000000000000007800
0078000000000000000000007800
0070000000000000000000007800
00F0000000000000000000007800
00F0000000000000000000007800
00F0000000000000000000007800
01FFFFFFFFFF0000000000007800
01FFFFFFFFFFF000000000007800
01FFFFFFFFFFFE00000000007800
00FFFFFFFFFFFF00000000007800
0000000000007F00000000007800
0000000000000780000000007000
0000000000000780000000007000
000000000000038000000000F000
000000000000038000000000F000
000000000000038000000000E000
000000000000078000000000E000
000000000000078000000001E000
000000000000078000000001C000
0000000000000F0000000003C000
0000000000000F0000000003C000
0000000000001E00000000038000
0000000000001E00000000078000
0000000000003C00000000078000
0000000000003C000000000F0000
00000000000078000000000F0000
00000000000078000000000E0000
000000000000F0000000001E0000
000000000001F0000000001C0000
000000000001E0000000003C0000
000000000003E0000000003C0000
000000000003C000000000780000
000000000007C000000000F80000
0000000000078000000000F00000
00000000000F8000000001E00000
00000000000F0000000001E00000
00000000001F0000000003C00000
00000000001E0000000003C00000
00000000003C0000000007C00000
00000000003C0000000007800000
000000000078000000000F000000
000000000078000000000F000000
0000000000F0000000001E000000
0000000000F0000000001E000000
0000000001E0000000003C000000
0000000001E0000000003C000000
0000000003C00000000078000000
0000000003C00000000078000000
00000000078000000000F0000000
00000000078000000000F0000000
000000000F0000000001E0000000
000000000F0000000001E0000000
000000001E0000000003C0000000
000000001E0000000003C0000000
000000003C000000000780000000
000000003C000000000780000000
0000000078000000000F00000000
0000000078000000000F00000000
00000000F0000000001E00000000
00000000F0000000001E00000000
00000001E0000000003C00000000
00000003E0000000003C00000000
00000003C0000000007800000000
00000007C0000000007800000000
000000078000000000F000000000
0000000F8000000001F000000000
0000000F0000000001E000000000
0000001F0000000003E000000000
0000001E0000000003C000000000
0000003E0000000007C000000000
0000003C00000000078000000000
0000007C000000000F8000000000
00000078000000000F0000000000
000000F0000000001F0000000000
000000F0000000001E0000000000
000001E0000000003E0000000000
000001E0000000003C0000000000
000003C000000000780000000000
000003C000000000780000000000
0000078000000000F00000000000
0000078000000000F00000000000
00000F0000000001E00000000000
00000F0000000001E00000000000
00001E0000000003C00000000000
00001E0000000003C00000000000
00003C0000000007800000000000
00003C0000000007800000000000
000078000000000FFFFFFFFFFF00
000078000000000FFFFFFFFFFF80
0000F0000000000FFFFFFFFFFF80
0000F00000000007FFFFFFFFFF80
0001E00000000000000000000F00
0001E00000000000000000000F00
0003C00000000000000000000F00
0007C00000000000000000000F00
0007800000000000000000001E00
000F800000000000000000001E00
000F000000000000000000001E00
001F000000000000000000003C00
001E000000000000000000003C00
003E000000000000000000003C00
003C000000000000000000003C00
007C000000000000000000007800
0078000000000000000000007800
00F8000000000000000000007800
00F0000000000000000000007800
01E000000000000000000000F000
01E000000000000000000000F000
03C000000000000000000000F000
03C000000000000000000000E000
078000000000000000000001E000
078000000000000000000001E000
0F0000000000000000000001E000
0F0000000000000000000003C000
1E0000000000000000000003C000
1E0000000000000000000003C000
3C0000000000000000000003C000
3C00000000000000000000078000
7800000000000000000000078000
7800000000000000000000078000
FFFFFFFFFFFFFFFFFFFFFFFF0000
FFFFFFFFFFFFFFFFFFFFFFFF0000
FFFFFFFFFFFFFFFFFFFFFFFF0000
7FFFFFFFFFFFFFFFFFFFFFFE0000
ENDCHAR
STARTCHAR 0033
ENCODING 51
SWIDTH 600 0
DWIDTH 108 0
BBX 105 151 -1 -2
BITMAP
000FFFFFFFFFFFFE000000000000
001FFFFFFFFFFFFFFC0000000000
001FFFFFFFFFFFFFFFE000000000
001FFFFFFFFFFFFFFFFC00000000
003C0000000000003FFF80000000
003C00000000000000FFE0000000
003C000000000000001FF0000000
00380000000000000003FC000000
007800000000000000007E000000
007800000000000000003F000000
007800000000000000000F800000
0070000000000000000007C00000
00F0000000000000000003E00000
00F0000000000000000001F00000
00F0000000000000000000F80000
01E00000000000000000007C0000
01E00000000000000000003C0000
01E00000000000000000001E0000
01E00000000000000000001F0000
03C00000000000000000000F0000
03C0000000000000000000078000
03C0000000000000000000078000
038000000000000000000003C000
078000000000000000000003C000
078000000000000000000001C000
078000000000000000000001E000
0F0000000000000000000001E000
0F0000000000000000000001E000
0F0000000000000000000000E000
0F0000000000000000000000F000
1E0000000000000000000000F000
1E0000000000000000000000F000
1E0000000000000000000000F000
1FFFFFFFFC00000000000000F000
3FFFFFFFFFFFE00000000000F000
3FFFFFFFFFFFFC00000000007000
1FFFFFFFFFFFFE00000000007000
000000000001FE00000000007000
0000000000000F0000000000F000
0000000000000F0000000000F000
000000000000070000000000F000
000000000000070000000000F000
000000000000070000000000F000
000000000000070000000000E000
0000000000000F0000000001E000
0000000000000F0000000001E000
0000000000001E0000000001E000
0000000000001E0000000001C000
0000000000003C0000000003C000
0000000000007C0000000003C000
000000000000F800000000078000
000000000001F000000000078000
000000000003E0000000000F0000
000000000007C0000000001F0000
00000000000F80000000001E0000
00000000001F00000000003C0000
00000000007E00000000007C0000
0000000000FC0000000000F80000
0000000001F80000000000F00000
0000000007E00000000001E00000
000000000FC00000000003E00000
000000003F800000000007C00000
000000007E00000000000F800000
00000000FC00000000001F000000
00000003F000000000003E000000
00000007E000000000007C000000
0000000FC00000000000F8000000
0000001F000000000001F0000000
0000007E000000000003E0000000
000000FC000000000007C0000000
000001F800000000000F80000000
000003E000000000000FC0000000
000003F0000000000007E0000000
000001F8000000000003F0000000
0000007E000000000001F8000000
0000003F0000000000007C000000
0000001FC000000000003E000000
00000007E000000000001F000000
00000003F000000000000F800000
00000000FC000000000007C00000
000000007E000000000003E00000
000000003F000000000001F00000
000000000FC00000000000F00000
0000000007E00000000000F80000
0000000003F000000000007C0000
0000000000F800000000003E0000
00000000007C00000000001F0000
00000000003F00000000000F8000
00000000001F8000000000078000
00000000000FC00000000003C000
000000000003E00000000003E000
000000000001F00000000001E000
000000000000F80000000000F000
0000000000007C0000000000F000
0000000000003C00000000007800
0000000000001E00000000007800
0000000000001F00000000003C00
0000000000000F80000000003C00
00000000000007C0000000001C00
00000000000003C0000000001E00
00000000000003E0000000001E00
00000000000001E0000000000E00
00000000000000F0000000000F00
00000000000000F0000000000F00
0000000000000078000000000F00
0000000000000078000000000F00
0000000000000078000000000700
0000000000000078000000000700
0000000000000078000000000780
0000000000000078000000000780
0000000000000078000000000780
00000000000000F0000000000780
00000000000001F0000000000780
0000000000000FE0000000000780
7FFFFFFFFFFFFFC0000000000780
FFFFFFFFFFFFFF80000000000780
FFFFFFFFFFFFFC00000000000780
FFFFFFFFFFFFE000000000000700
7000000000000000000000000700
7800000000000000000000000F00
7800000000000000000000000F00
7800000000000000000000000F00
3C00000000000000000000000F00
3C00000000000000000000001E00
3C00000000000000000000001E00
3C00000000000000000000001E00
1E00000000000000000000003C00
1E00000000000000000000003C00
1E00000000000000000000007800
0E00000000000000000000007800
0F0000000000000000000000F000
0F0000000000000000000000F000
0F0000000000000000000001E000
070000000000000000000003E000
078000000000000000000007C000
0780000000000000000000078000
07800000000000000000000F0000
03C00000000000000000001F0000
03C00000000000000000003E0000
03C0000000000000000000FC0000
03C0000000000000000001F80000
01E0000000000000000003F00000
01E000000000000000000FE00000
01E000000000000000003F800000
00E00000000000000000FF000000
00F0000000000000000FFC000000
00F000000000000000FFF0000000
00FFFFFFFFFFFFFFFFFFC0000000
007FFFFFFFFFFFFFFFFE00000000
007FFFFFFFFFFFFFFFE000000000
003FFFFFFFFFFFFFE00000000000
ENDCHAR
STARTCHAR 0034
ENCODING 52
SWIDTH 638 0
DWIDTH 115 0
BBX 114 151 1 -2
BITMAP
0000000003FFFFFFFFFF0000000000
0000000007FFFFFFFFFF8000000000
0000000007FFFFFFFFFF8000000000
000000000FFFFFFFFFFF8000000000
000000000F000000000F0000000000
000000001E000000000F0000000000
000000001E000000000E0000000000
000000003C000000001E0000000000
000000003C000000001E0000000000
0000000038000000003C0000000000
0000000078000000003C0000000000
000000007800000000780000000000
00000000F000000000780000000000
00000000F000000000700000000000
00000001E000000000F00000000000
00000001E000000000E00000000000
00000001C000000001E00000000000
00000003C000000001E00000000000
00000003C000000003C00000000000
000000078000000003C00000000000
000000078000000007800000000000
0000000F0000000007800000000000
0000000F0000000007000000000000
0000000E000000000F000000000000
0000001E000000000F000000000000
0000001E000000001E000000000000
0000003C000000001E000000000000
0000003C000000003C000000000000
00000078000000003C000000000000
000000780000000038000000000000
000000700000000078000000000000
000000F00000000078000000000000
000000F000000000F0000000000000
000001E000000000F0000000000000
000001E000000001E0000000000000
000003C000000001E0000000000000
000003C000000001C0000000000000
0000038000000003C0000000000000
000007800000000380000000000000
000007000000000780000000000000
00000F000000000780000000000000
00000F000000000F00000000000000
00001E000000000F00000000000000
00001E000000001E00000000000000
00001C000000001E00000000000000
00003C000000001C00000000000000
000038000000003C00000000000000
000078000000003C00000000000000
000078000000007800000000000000
0000F0000000007800000000000000
0000F000000000F000000000000000
0000E000000000F000000000000000
0001E000000000E000000000000000
0001C000000001E000000000000000
0003C000000001E0FFFFFFFFC00000
0003C000000003C1FFFFFFFFE00000
00078000000003C1FFFFFFFFE00000
0007800000000781FFFFFFFFE00000
0007000000000781E0000001E00000
000F000000000F01E0000001E00000
000E000000000F01E0000001E00000
001E000000000E01E0000001E00000
001E000000001E01E0000001E00000
003C000000001E01E0000001E00000
003C000000003C01E0000001E00000
0078000000003C01E0000001E00000
0078000000007801E0000001E00000
0070000000007801E0000001E00000
00F0000000007001E0000001E00000
00F000000000F001E0000001E00000
01E000000000F001E0000001E00000
01E000000001E001E0000001E00000
03C000000001E001E0000001E00000
03C000000003C001E0000001E00000
038000000003C001E0000001E00000
0780000000038001E0000001E00000
0780000000078001E0000001E00000
0F00000000070001E0000001E00000
0F000000000F0001E0000001E00000
1E000000000F0001E0000001E00000
1E000000001E0001E0000001E00000
1C000000001E0001E0000001E00000
3C000000003FFFFFE0000001FFFF80
3C000000003FFFFFE0000001FFFFC0
78000000003FFFFFE0000000FFFFC0
78000000001FFFFFC00000007FFFC0
F000000000000000000000000003C0
F000000000000000000000000003C0
F000000000000000000000000003C0
F000000000000000000000000003C0
F000000000000000000000000003C0
F000000000000000000000000003C0
F000000000000000000000000003C0
F000000000000000000000000003C0
F000000000000000000000000003C0
F000000000000000000000000003C0
F000000000000000000000000003C0
F000000000000000000000000003C0
F000000000000000000000000003C0
F000000000000000000000000003C0
F000000000000000000000000003C0
F000000000000000000000000003C0
F000000000000000000000000003C0
F000000000000000000000000003C0
F000000000000000000000000003C0
F000000000000000000000000003C0
F000000000000000000000000003C0
F000000000000000000000000003C0
F000000000000000000000000003C0
F000000000000000000000000003C0
F000000000000000000000000003C0
F000000000000000000000000003C0
F000000000000000000000000003C0
F000000000000000000000000003C0
F000000000000000000000000003C0
FFFFFFFFFFFFFFFFC0000000FFFFC0
FFFFFFFFFFFFFFFFE0000000FFFFC0
FFFFFFFFFFFFFFFFE0000001FFFFC0
7FFFFFFFFFFFFFFFE0000001FFFF80
0000000000000001E0000001E00000
0000000000000001E0000001E00000
0000000000000001E0000001E00000
0000000000000001E0000001E00000
0000000000000001E0000001E00000
0000000000000001E0000001E00000
0000000000000001E0000001E00000
0000000000000001E0000001E00000
0000000000000001E0000001E00000
0000000000000001E0000001E00000
0000000000000001E0000001E00000
0000000000000001E0000001E00000
0000000000000001E0000001E00000
0000000000000001E0000001E00000
0000000000000001E0000001E00000
0000000000000001E0000001E00000
0000000000000001E0000001E00000
0000000000000001E0000001E00000
0000000000000001E0000001E00000
0000000000000001E0000001E00000
0000000000000001E0000001E00000
0000000000000001E0000001E00000
0000000000000001E0000001E00000
0000000000000001E0000001E00000
0000000000000001E0000001E00000
0000000000000001E0000001E00000
0000000000000001E0000001E00000
0000000000000001E0000001E00000
0000000000000001FFFFFFFFE00000
0000000000000001FFFFFFFFE00000
0000000000000001FFFFFFFFE00000
00000000000000007FFFFFFFC00000
ENDCHAR
STARTCHAR 0035
ENCODING 53
SWIDTH 600 0
DWIDTH 108 0
BBX 96 151 7 -2
BITMAP
03FFFFFFFFFFFFFFFFFF0000
07FFFFFFFFFFFFFFFFFF8000
07FFFFFFFFFFFFFFFFFF8000
07FFFFFFFFFFFFFFFFFF8000
07800000000000000003C000
07800000000000000003C000
07000000000000000003C000
07000000000000000003C000
07000000000000000001E000
07000000000000000001E000
07000000000000000001E000
07000000000000000001E000
0F000000000000000000F000
0F000000000000000000F000
0F000000000000000000F000
0F0000000000000000007800
0F0000000000000000007800
0F0000000000000000007800
0F0000000000000000007800
0F0000000000000000003C00
0F0000000000000000003C00
0F0000000000000000003C00
0F0000000000000000003C00
0F0000000000000000001E00
0F0000000000000000001E00
0E0000000000000000001E00
0E0000000000000000000E00
0E0000000000000000000F00
0E0000000000000000000F00
0E0000000000000000000F00
1E0000000000000000000780
1E0000000000000000000780
1E0000000000000000000780
1E000000007FFFFFFFFFFF80
1E00000000FFFFFFFFFFFFC0
1E00000000FFFFFFFFFFFFC0
1E00000000FFFFFFFFFFFF80
1E00000000E0000000000000
1E00000000E0000000000000
1E00000000E0000000000000
1E00000000E0000000000000
1E00000001E0000000000000
1E00000001E0000000000000
1C00000001E0000000000000
1C00000001E0000000000000
1C00000001E0000000000000
1C00000001E0000000000000
1C00000001E0000000000000
1C00000001FFFFC000000000
3C00000001FFFFFFC0000000
3C00000001FFFFFFFC000000
3C00000000FFFFFFFF800000
3C00000000000003FFE00000
3C000000000000001FF80000
3C0000000000000003FE0000
3C00000000000000007F8000
3C00000000000000001FC000
3C000000000000000007E000
3C000000000000000003F000
3C000000000000000000F800
3C0000000000000000007C00
380000000000000000003C00
380000000000000000001E00
380000000000000000001F00
380000000000000000000F80
380000000000000000000780
3800000000000000000007C0
7800000000000000000003C0
7800000000000000000001E0
7800000000000000000001E0
7800000000000000000000F0
7800000000000000000000F0
780000000000000000000078
780000000000000000000078
780000000000000000000078
78000000000000000000003C
78000000000000000000003C
78000000000000000000003C
78000000000000000000001C
7FFFFFFFFE0000000000001E
7FFFFFFFFFF800000000001E
7FFFFFFFFFFF00000000001E
3FFFFFFFFFFFC0000000001E
00000000007FF0000000000E
000000000007F8000000000E
000000000000F8000000000E
0000000000007C000000000F
0000000000003C000000000F
0000000000001E000000000F
0000000000001E000000000F
0000000000000E000000000F
0000000000000E000000000F
0000000000000E000000000E
0000000000000E000000000E
0000000000000E000000000E
0000000000000E000000000E
0000000000001E000000001E
0000000000001E000000001E
0000000000001C000000001E
0000000000003C000000001E
0000000000007C000000001E
00000000000078000000001C
000000000000F0000000003C
000000000001F0000000003C
000000000003E0000000003C
00000000000FC0000000003C
00000000001F800000000078
00000000007E000000000078
0000000001FC000000000078
0000000007F80000000000F0
000000003FE00000000000F0
00000001FF800000000000F0
0000003FFE000000000001E0
00001FFFF8000000000001E0
7FFFFFFFC0000000000003C0
FFFFFFFC00000000000003C0
FFFFFF000000000000000780
7FE000000000000000000F80
780000000000000000000F00
780000000000000000001F00
780000000000000000003E00
3C0000000000000000003C00
3C0000000000000000007800
3C000000000000000000F800
1C000000000000000001F000
1E000000000000000003E000
1E000000000000000007C000
1E00000000000000000F8000
0F00000000000000001F0000
0F00000000000000003E0000
0F00000000000000007C0000
0F0000000000000001F80000
078000000000000003F00000
07800000000000000FC00000
07800000000000001F800000
03800000000000007F000000
03C0000000000000FC000000
03C0000000000003F8000000
03C000000000000FE0000000
01E000000000003FC0000000
01E00000000001FF00000000
01E00000000007FC00000000
01E0000000003FF000000000
00F000000003FFC000000000
00F00000003FFF0000000000
00F000000FFFF80000000000
0070000FFFFF800000000000
007FFFFFFFF8000000000000
007FFFFFFF00000000000000
007FFFFF8000000000000000
001FE0000000000000000000
ENDCHAR
STARTCHAR 0036
ENCODING 54
SWIDTH 661 0
DWIDTH 119 0
BBX 115 154 3 -5
BITMAP
00000000000FFFFFFFFFFFE0000000
00000000000FFFFFFFFFFFF0000000
00000000001FFFFFFFFFFFF0000000
00000000003FFFFFFFFFFFE0000000
00000000003C0000000003E0000000
0000000000780000000007C0000000
0000000000F0000000000780000000
0000000000F0000000000F00000000
0000000001E0000000001F00000000
0000000003C0000000001E00000000
0000000007C0000000003C00000000
000000000780000000007C00000000
000000000F0000000000F800000000
000000001F0000000000F000000000
000000001E0000000001E000000000
000000003C0000000003E000000000
000000007C0000000003C000000000
000000007800000000078000000000
00000000F0000000000F8000000000
00000001F0000000000F0000000000
00000001E0000000001E0000000000
00000003C0000000003E0000000000
00000007C0000000003C0000000000
000000078000000000780000000000
0000000F0000000000780000000000
0000000F0000000000F00000000000
0000001E0000000001E00000000000
0000003E0000000003E00000000000
0000003C0000000003C00000000000
000000780000000007800000000000
000000780000000007800000000000
000000F0000000000F000000000000
000001F0000000001E000000000000
000001E0000000001E000000000000
000003C0000000003C000000000000
000003C00000000078000000000000
000007800000000078000000000000
00000F8000000000F0000000000000
00000F0000000000F0000000000000
00001F0000000001E0000000000000
00001E0000000003C0000000000000
00003C0000000003C0000000000000
00003C000000000780000000000000
000078000000000F80000000000000
000078000000000F00000000000000
0000F0000000001E00000000000000
0001F0000000001E00000000000000
0001E0000000003C00000000000000
0003E0000000003C00000000000000
0003C0000000007FC0000000000000
0007C0000000007FFF000000000000
000780000000007FFFF00000000000
000F00000000003FFFFF0000000000
000F0000000000000FFFC000000000
001E000000000000007FF800000000
001E0000000000000007FE00000000
003C0000000000000000FF80000000
003C00000000000000001FE0000000
0078000000000000000007F0000000
0078000000000000000001FC000000
00780000000000000000007F000000
00F00000000000000000001F800000
00F00000000000000000000FC00000
01E000000000000000000003E00000
01E000000000000000000001F80000
01E000000000000000000000FC0000
03C0000000000000000000007E0000
03C0000000000000000000001F0000
0380000000000000000000000F0000
078000000000000000000000078000
07800000000000000000000007C000
07000000000000000000000003E000
0F000000000000000000000001E000
0F000000000000000000000000F000
0E000000000000000000000000F800
1E0000000000000000000000007800
1E0000000000000000000000003C00
1E0000000000000000000000003C00
1C0000000000000000000000001E00
3C0000000000000000000000001E00
3C000000000FC00000000000000F00
3C000000001FFFC000000000000F00
38000000003FFFFC00000000000F00
78000000003FFFFF00000000000780
78000000007803FFC0000000000780
780000000078001FF0000000000780
7800000000700003FC000000000380
7000000000F00000FE0000000003C0
7000000000F000003F0000000003C0
F000000001E000001F8000000003C0
F000000001E00000078000000001C0
F000000001E0000003C000000001C0
F000000001E0000003C000000001C0
F000000001C0000001E000000001E0
E000000001C0000001E000000001E0
E000000003C0000000E000000001E0
E000000003C0000000F000000001E0
E000000003C0000000F000000001E0
E000000003C0000000F000000001E0
E000000003C0000000F000000001E0
E000000003C00000007000000001E0
E000000003C00000007000000001E0
E000000003C00000007000000001E0
E000000001C0000000F000000001E0
E000000001C0000000F000000001E0
E000000001E0000000F000000001E0
E000000001E0000000F000000001E0
E000000000E0000000E000000001C0
E000000000F0000001E000000001C0
F000000000F0000001E000000003C0
F00000000078000003C000000003C0
F0000000007C000007C000000003C0
F0000000003E0000078000000003C0
F0000000001F00000F000000000380
70000000000F80003F000000000780
70000000000FE000FE000000000780
780000000007FC07F8000000000780
780000000001FFFFF0000000000F00
380000000000FFFFC0000000000F00
3C00000000001FFF00000000000F00
3C0000000000000000000000001E00
3C0000000000000000000000001E00
1E0000000000000000000000003C00
1E0000000000000000000000003C00
1E0000000000000000000000007800
0F0000000000000000000000007800
0F000000000000000000000000F000
07800000000000000000000000F000
07800000000000000000000001E000
03C00000000000000000000001E000
03E00000000000000000000003C000
01E00000000000000000000007C000
00F000000000000000000000078000
00F8000000000000000000000F0000
007C000000000000000000001F0000
003C000000000000000000003E0000
001E000000000000000000007C0000
001F00000000000000000000780000
000F80000000000000000000F00000
0007C0000000000000000003F00000
0003F0000000000000000007E00000
0001F800000000000000000FC00000
0000FE00000000000000003F800000
00003F00000000000000007E000000
00001FC000000000000001FC000000
00000FF000000000000007F8000000
000003FE0000000000003FE0000000
000000FFC00000000001FF80000000
0000003FFC000000001FFE00000000
0000000FFFE0000007FFF000000000
00000001FFFFFFFFFFFFC000000000
000000001FFFFFFFFFFC0000000000
0000000001FFFFFFFF800000000000
000000000001FFFF80000000000000
ENDCHAR
STARTCHAR 0037
ENCODING 55
SWIDTH 538 0
DWIDTH 97 0
BBX 103 151 -1 -2
BITMAP
003FFFFFFFFFFFFFFFFFFFFFFC
007FFFFFFFFFFFFFFFFFFFFFFE
007FFFFFFFFFFFFFFFFFFFFFFE
007FFFFFFFFFFFFFFFFFFFFFFE
00F0000000000000000000003C
00F0000000000000000000003C
00F0000000000000000000003C
00F0000000000000000000003C
01E00000000000000000000078
01E00000000000000000000078
01E00000000000000000000078
01C000000000000000000000F0
03C000000000000000000000F0
03C000000000000000000000F0
03C000000000000000000001E0
078000000000000000000001E0
078000000000000000000001E0
078000000000000000000001C0
078000000000000000000003C0
0F0000000000000000000003C0
0F0000000000000000000003C0
0F000000000000000000000780
0E000000000000000000000780
1E000000000000000000000780
1E000000000000000000000F00
1E000000000000000000000F00
3C000000000000000000000F00
3C000000000000000000001E00
3C000000000000000000001E00
3C000000000000000000001E00
78000000000000000000001C00
78000000000000000000003C00
78000000000000000000003C00
7FFFFFFFFFFFF0000000003C00
FFFFFFFFFFFFF8000000007800
FFFFFFFFFFFFF8000000007800
7FFFFFFFFFFFF8000000007800
0000000000007000000000F000
000000000000F000000000F000
000000000000F000000000F000
000000000000E000000001E000
000000000001E000000001E000
000000000001E000000001E000
000000000001E000000001C000
000000000003C000000003C000
000000000003C000000003C000
000000000003C000000003C000
00000000000780000000078000
00000000000780000000078000
00000000000780000000078000
000000000007000000000F0000
00000000000F000000000F0000
00000000000F000000000F0000
00000000000E000000001E0000
00000000001E000000001E0000
00000000001E000000001E0000
00000000001E000000001C0000
00000000003C000000003C0000
00000000003C000000003C0000
00000000003C000000003C0000
00000000007800000000780000
00000000007800000000780000
00000000007800000000780000
00000000007000000000F00000
0000000000F000000000F00000
0000000000F000000000F00000
0000000000E000000000E00000
0000000001E000000001E00000
0000000001E000000001E00000
0000000001E000000001E00000
0000000003C000000003C00000
0000000003C000000003C00000
0000000003C000000003C00000
00000000078000000007800000
00000000078000000007800000
00000000078000000007800000
000000000F000000000F000000
000000000F000000000F000000
000000000F000000000F000000
000000000E000000000E000000
000000001E000000001E000000
000000001E000000001E000000
000000001E000000001E000000
000000003C000000003C000000
000000003C000000003C000000
000000003C000000003C000000
00000000780000000078000000
00000000780000000078000000
00000000780000000078000000
00000000F000000000F0000000
00000000F000000000F0000000
00000000F000000000F0000000
00000000E000000000E0000000
00000001E000000001E0000000
00000001E000000001E0000000
00000001E000000001E0000000
00000003C000000003C0000000
00000003C000000003C0000000
00000003C000000003C0000000
00000007800000000780000000
00000007800000000780000000
00000007800000000780000000
0000000F000000000F00000000
0000000F000000000F00000000
0000000F000000000F00000000
0000000E000000000E00000000
0000001E000000001E00000000
0000001E000000001E00000000
0000001E000000001E00000000
0000003C000000003C00000000
0000003C000000003C00000000
0000003C000000003C00000000
00000078000000007800000000
00000078000000007800000000
00000078000000007800000000
000000F0000000007000000000
000000F000000000F000000000
000000F000000000F000000000
000000E000000000F000000000
000001E000000001E000000000
000001E000000001E000000000
000001E000000001E000000000
000003C000000003C000000000
000003C000000003C000000000
000003C000000003C000000000
00000780000000078000000000
00000780000000078000000000
00000780000000078000000000
00000F00000000070000000000
00000F000000000F0000000000
00000F000000000F0000000000
00000E000000000F0000000000
00001E000000001E0000000000
00001E000000001E0000000000
00001E000000001E0000000000
00003C000000003C0000000000
00003C000000003C0000000000
00003C000000003C0000000000
00007800000000780000000000
00007800000000780000000000
00007800000000780000000000
0000F000000000700000000000
0000F000000000F00000000000
0000F000000000F00000000000
0000E000000000F00000000000
0001E000000001E00000000000
0001E000000001E00000000000
0001FFFFFFFFFFE00000000000
0003FFFFFFFFFFC00000000000
0003FFFFFFFFFFC00000000000
0000FFFFFFFFFF800000000000
ENDCHAR
STARTCHAR 0038
ENCODING 56
SWIDTH 677 0
DWIDTH 122 0
BBX 112 157 5 -5
BITMAP
000000000003FFFFE00000000000
0000000007FFFFFFFFF000000000
00000000FFFFFFFFFFFF00000000
0000000FFFFFFFFFFFFFF0000000
0000003FFF80000001FFFE000000
000001FFE00000000003FF800000
000007FE0000000000003FE00000
00000FF000000000000007F00000
00003F8000000000000001FC0000
00007E00000000000000007E0000
0000FC00000000000000003F0000
0001F000000000000000000F8000
0003E0000000000000000007C000
0007C0000000000000000003E000
000F80000000000000000001F000
001F00000000000000000000F800
003E000000000000000000007C00
007C000000000000000000003E00
0078000000000000000000001F00
00F0000000000000000000000F00
01F0000000000000000000000F80
01E0000000000000000000000780
01E00000000000000000000003C0
03C00000000000000000000003C0
03C00000000000000000000001E0
07800000000000000000000001E0
07800000000000000000000001E0
07800000000000000000000000E0
07800000000000000000000000F0
07000000000000000000000000F0
0F000000000000000000000000F0
0F000000000000000000000000F0
0F00000000003FFC000000000070
0F0000000001FFFF800000000070
0F0000000007FFFFC00000000070
0F000000000FF01FE00000000070
0E000000000F8001F00000000078
0E000000001E0000F80000000078
0E000000001E0000780000000078
0E000000001C0000780000000078
0E000000001C0000380000000078
0F000000001C0000380000000070
0F000000001C0000780000000070
0F000000001C0000780000000070
0F000000001E0000780000000070
0F000000001E0000F000000000F0
0F000000000F0001F000000000F0
07000000000F8003E000000000F0
078000000007C003C000000000E0
078000000003E007C000000001E0
078000000001F00F8000000001E0
03C000000000FC3F0000000001E0
03C0000000007E7E0000000003C0
01E0000000003FFC0000000003C0
01E0000000000FF8000000000780
01F00000000007E0000000000F80
00F00000000003C0000000000F00
0078000000000000000000001E00
007C000000000000000000003E00
003E000000000000000000003C00
001E000000000000000000007800
000F00000000000000000000F800
000F80000000000000000001F000
0007C0000000000000000003E000
0003E0000000000000000007C000
0001F000000000000000000F8000
0000F800000000000000001F0000
00007C00000000000000003E0000
00003E00000000000000007C0000
00001F0000000000000000F80000
00000FC000000000000001F00000
000007E000000000000007E00000
000003F00000000000000FC00000
000000F80000000000001F800000
000000F80000000000001F000000
000001F80000000000000F800000
000003E000000000000007C00000
000007C000000000000003F00000
00000F8000000000000001F80000
00001F0000000000000000FC0000
00003E00000000000000003E0000
00007C00000000000000001F0000
0000F800000000000000000F8000
0001F0000000000000000007C000
0003E0000000000000000003E000
0007C0000000000000000001F000
000F80000000000000000000F800
001F000000000000000000007C00
003E000000000000000000003C00
007C000000000000000000003E00
0078000000000000000000001F00
00F0000000000000000000000F80
01F0000000000180000000000780
03E00000000003C00000000003C0
03C00000000007F00000000003E0
0780000000001FF80000000001E0
0780000000003FFC0000000000F0
0F00000000007E3E0000000000F0
0F0000000000F81F800000000078
1E0000000001F00FC00000000078
1E0000000003E007E0000000003C
3C0000000007C003E0000000003C
3C000000000F8000F0000000003C
3C000000001F000078000000001E
38000000003E00007C000000001E
78000000007C00003E000000001E
78000000007800001E000000000E
7800000000F000000F000000000E
7000000000F000000F000000000F
7000000000E0000007800000000F
F000000001E0000007800000000F
F000000001E0000003800000000F
F000000001E0000003800000000F
F000000001E0000003800000000F
F000000001E00000038000000007
F000000001E00000078000000007
F000000001E00000078000000007
F000000000F000000F8000000007
F000000000FC00003F000000000F
F0000000007F8001FE000000000F
F0000000001FFFFFFC000000000F
F0000000000FFFFFF0000000000F
F00000000001FFFFC0000000000F
7000000000001FFC00000000000F
700000000000000000000000000F
780000000000000000000000000E
780000000000000000000000001E
780000000000000000000000001E
380000000000000000000000001E
3C0000000000000000000000001E
3C0000000000000000000000003C
1C0000000000000000000000003C
1E00000000000000000000000078
1E00000000000000000000000078
0F000000000000000000000000F0
0F000000000000000000000000F0
07800000000000000000000001E0
03C00000000000000000000003E0
03E00000000000000000000003C0
01E0000000000000000000000780
00F0000000000000000000000F80
0078000000000000000000001F00
007C000000000000000000003E00
003E000000000000000000007C00
001F80000000000000000000F800
000FC0000000000000000003F000
0007E0000000000000000007E000
0001F800000000000000001FC000
0000FE00000000000000007F0000
00007FC000000000000001FE0000
00001FF80000000000001FF80000
000007FFC00000000001FFE00000
000000FFFF00000000FFFF800000
0000001FFFFFFFFFFFFFFC000000
00000001FFFFFFFFFFFFC0000000
000000000FFFFFFFFFF000000000
000000000003FFFFE00000000000
ENDCHAR
STARTCHAR 0039
ENCODING 57
SWIDTH 661 0
DWIDTH 119 0
BBX 118 154 0 -2
BITMAP
000000000001FFFFE0000000000000
0000000000FFFFFFFFC00000000000
000000001FFFFFFFFFFE0000000000
00000001FFFFFFFFFFFFE000000000
00000007FFF0000003FFFC00000000
0000003FFC000000000FFF80000000
000000FFC000000000007FE0000000
000003FE0000000000000FF8000000
000007F800000000000003FE000000
00001FC0000000000000007F000000
00003F80000000000000001FC00000
00007E000000000000000007E00000
0000FC000000000000000003F00000
0001F0000000000000000000F80000
0003E00000000000000000007C0000
0007C00000000000000000003E0000
000F800000000000000000001F0000
001F000000000000000000000F8000
001E0000000000000000000007C000
003C0000000000000000000003E000
00780000000000000000000001E000
00F80000000000000000000001F000
00F00000000000000000000000F800
01E000000000000000000000007800
03E000000000000000000000007C00
03C000000000000000000000003C00
078000000000000000000000001E00
078000000000000000000000001E00
0F0000000000000000000000000F00
0F0000000000000000000000000F00
1E0000000000000000000000000780
1E0000000000000000000000000780
1E00000000000000000000000003C0
3C00000000000000000000000003C0
3C00000000000000000000000003C0
3C000000000007FF000000000001E0
3800000000003FFFE00000000001E0
780000000001FFFFF80000000001E0
780000000003FF9FFE0000000000E0
780000000007F0007F0000000000F0
70000000000F80001F8000000000F0
F0000000001F000007C000000000F0
F0000000003E000003E00000000070
F0000000003C000001E00000000070
F00000000078000000F00000000078
F00000000078000000F80000000078
F00000000070000000780000000078
F00000000070000000380000000078
F000000000F00000003C0000000078
F000000000F00000003C0000000038
F000000000F00000001C0000000038
F000000000F00000001E0000000038
F000000000F00000001E000000003C
F000000000700000001E000000003C
7000000000700000001E000000003C
7000000000780000001E000000003C
7000000000780000001E000000003C
78000000003C0000001E000000003C
78000000003C0000001E000000003C
78000000001E0000001E000000003C
78000000001F0000001E000000003C
38000000000F8000001E000000003C
3C0000000007E000001E000000003C
3C0000000003F000001E000000003C
3C0000000001FC00001E000000003C
1E00000000007F00001C0000000038
1E00000000003FC0003C0000000038
1E00000000000FF8003C0000000038
0F000000000003FF003C0000000038
0F000000000000FFF03C0000000078
078000000000003FFF780000000078
0780000000000007FFF80000000078
03C0000000000000FFF80000000078
03C000000000000007F00000000078
01E000000000000000000000000078
01F000000000000000000000000070
00F0000000000000000000000000F0
0078000000000000000000000000F0
007C000000000000000000000000F0
003E000000000000000000000000F0
001E000000000000000000000000E0
000F000000000000000000000001E0
000F800000000000000000000001E0
0007C00000000000000000000001E0
0003E00000000000000000000001E0
0001F80000000000000000000003C0
0000FC0000000000000000000003C0
00007E0000000000000000000003C0
00001F000000000000000000000380
00000FC00000000000000000000780
000007E00000000000000000000780
000003F80000000000000000000780
000000FC0000000000000000000F00
0000007F0000000000000000000F00
0000001FC000000000000000000E00
00000007F800000000000000001E00
00000003FE00000000000000001E00
00000000FFC0000000000000003C00
000000003FF0000000000000003C00
0000000007FF000000000000003C00
0000000001FFE00000000000007800
00000000003FFF0000000000007800
000000000007FFF80000000000F000
000000000000FFFE0000000000F000
0000000000000FFF0000000001E000
000000000000007E0000000001E000
000000000000007C0000000003C000
00000000000000F80000000003C000
00000000000003F000000000078000
00000000000007E0000000000F8000
0000000000001FC0000000000F0000
0000000000007F00000000001F0000
000000000003FE00000000001E0000
00000000001FF800000000003C0000
0000000001FFE000000000007C0000
000000003FFF000000000000780000
0000001FFFFC000000000000F80000
00007FFFFFC0000000000001F00000
0000FFFFFC00000000000001E00000
0000FFFF0000000000000003E00000
0000FF000000000000000007C00000
000078000000000000000007800000
00007800000000000000000F000000
00007800000000000000001F000000
00003800000000000000003E000000
00003C00000000000000007C000000
00003C000000000000000078000000
00003C0000000000000000F0000000
00001C0000000000000001F0000000
00001E0000000000000003E0000000
00001E0000000000000007C0000000
00001E000000000000000F80000000
00000F000000000000001F00000000
00000F000000000000003E00000000
00000F000000000000007C00000000
00000700000000000000F800000000
00000780000000000003F000000000
00000780000000000007E000000000
0000078000000000000F8000000000
0000038000000000003F0000000000
000003C00000000000FE0000000000
000003C00000000001F80000000000
000003C00000000007F00000000000
000001E0000000001FC00000000000
000001E0000000007F000000000000
000001E000000003FC000000000000
000000E00000001FF0000000000000
000000F0000000FFC0000000000000
000000F000000FFF00000000000000
000000F00003FFF800000000000000
0000007FFFFFFFC000000000000000
0000007FFFFFFC0000000000000000
0000007FFFFF800000000000000000
0000001FFF80000000000000000000
ENDCHAR
STARTCHAR 003A
ENCODING 58
SWIDTH 300 0
DWIDTH 54 0
BBX 36 113 9 -2
BITMAP
3FFFFFFFC0
FFFFFFFFF0
FFFFFFFFF0
FFFFFFFFF0
F0000000F0
F0000000F0
F0000000F0
F0000000F0
F0000000F0
F0000000F0
F0000000F0
F0000000F0
F0000000F0
F0000000F0
F0000000F0
F0000000F0
F0000000F0
F0000000F0
F0000000F0
F0000000F0
F0000000F0
F0000000F0
F0000000F0
F0000000F0
F0000000F0
F0000000F0
F0000000F0
F0000000F0
F0000000F0
F0000000F0
F0000000F0
F0000000F0
F0000000F0
F0000000F0
FFFFFFFFF0
FFFFFFFFF0
FFFFFFFFF0
0000000000
0000000000
0000000000
0000000000
0000000000
0000000000
0000000000
0000000000
0000000000
0000000000
0000000000
0000000000
0000000000
0000000000
0000000000
0000000000
0000000000
0000000000
0000000000
0000000000
0000000000
0000000000
0000000000
0000000000
0000000000
0000000000
0000000000
0000000000
0000000000
0000000000
0000000000
0000000000
0000000000
0000000000
0000000000
0000000000
0000000000
0000000000
0000000000
7FFFFFFFE0
FFFFFFFFF0
FFFFFFFFF0
FFFFFFFFF0
F0000000F0
F0000000F0
F0000000F0
F0000000F0
F0000000F0
F0000000F0
F0000000F0
F0000000F0
F0000000F0
F0000000F0
F0000000F0
F0000000F0
F0000000F0
F0000000F0
F0000000F0
F0000000F0
F0000000F0
F0000000F0
F0000000F0
F0000000F0
F0000000F0
F0000000F0
F0000000F0
F0000000F0
F0000000F0
F0000000F0
F0000000F0
F0000000F0
F0000000F0
FFFFFFFFF0
FFFFFFFFF0
FFFFFFFFF0
7FFFFFFFE0
ENDCHAR
STARTCHAR 003B
ENCODING 59
SWIDTH 300 0
DWIDTH 54 0
BBX 52 130 -3 -19
BITMAP
00007FFFFFFF80
0001FFFFFFFFE0
0001FFFFFFFFE0
0001FFFFFFFFE0
0001E0000000E0
0001E0000000E0
0001E0000000E0
0001E0000000E0
0001E0000000E0
0001E0000000E0
0001E0000000E0
0001E0000000E0
0001E0000000E0
0001E0000000E0
0001E0000000E0
0001E0000000E0
0001E0000000E0
0001E0000000E0
0001E0000000E0
0001E0000000E0
0001E0000000E0
0001E0000000E0
0001E0000000E0
0001E0000000E0
0001E0000000E0
0001E0000000E0
0001E0000000E0
0001E0000000E0
0001E0000000E0
0001E0000000E0
0001E0000000E0
0001E0000000E0
0001E0000000E0
0001E0000000E0
0001FFFFFFFFE0
0001FFFFFFFFE0
0000FFFFFFFFE0
00000000000000
00000000000000
00000000000000
00000000000000
00000000000000
00000000000000
00000000000000
00000000000000
00000000000000
00000000000000
00000000000000
00000000000000
00000000000000
00000000000000
00000000000000
00000000000000
00000000000000
00000000000000
00000000000000
00000000000000
00000000000000
00000000000000
00000000000000
00000000000000
00000000000000
00000000000000
00000000000000
00000000000000
00000000000000
00000000000000
00000000000000
00000000000000
00000000000000
00000000000000
00000000000000
00000000000000
00000000000000
00000000000000
00000000000000
0000FFFFFFFFC0
0001FFFFFFFFF0
0003FFFFFFFFF0
0003FFFFFFFFF0
0003C0000001E0
000780000001E0
000780000001E0
000780000003C0
000700000003C0
000F00000003C0
000F0000000380
000F0000000780
001E0000000780
001E0000000780
001E0000000F00
003C0000000F00
003C0000000F00
003C0000001E00
00380000001E00
00780000001E00
00780000001E00
00780000003C00
00F00000003C00
00F00000003C00
00F00000007800
01E00000007800
01E00000007800
01E00000007000
01E0000000F000
03C0000000F000
03C0000000F000
03C0000001E000
0780000001E000
0780000001E000
0780000003C000
0700000003C000
0F00000003C000
0F000000038000
0F000000078000
1E000000078000
1E000000078000
1E0000000F0000
3C0000000F0000
3C0000000F0000
3C0000000E0000
380000001E0000
780000001E0000
780000001C0000
780000003C0000
F00000003C0000
FFFFFFFFFC0000
FFFFFFFFF80000
FFFFFFFFF80000
7FFFFFFFF00000
ENDCHAR
STARTCHAR 003C
ENCODING 60
SWIDTH 500 0
DWIDTH 90 0
BBX 0 0 0 0
BITMAP
ENDCHAR
STARTCHAR 003D
ENCODING 61
SWIDTH 500 0
DWIDTH 90 0
BBX 0 0 0 0
BITMAP
ENDCHAR
STARTCHAR 003E
ENCODING 62
SWIDTH 500 0
DWIDTH 90 0
BBX 0 0 0 0
BITMAP
ENDCHAR
STARTCHAR 003F
ENCODING 63
SWIDTH 638 0
DWIDTH 115 0
BBX 101 151 7 -2
BITMAP
007FFFFFFFFFFFF80000000000
007FFFFFFFFFFFFFE000000000
00FFFFFFFFFFFFFFFE00000000
00FFFFFFFFFFFFFFFFC0000000
00F0000000000000FFF8000000
01E000000000000007FE000000
01E000000000000000FF800000
01E0000000000000001FC00000
01C00000000000000007F00000
03C00000000000000001F80000
03C00000000000000000FC0000
03C000000000000000003E0000
038000000000000000001F0000
078000000000000000000FC000
0780000000000000000007C000
0780000000000000000003E000
0700000000000000000001F000
0F00000000000000000000F800
0F000000000000000000007800
0F000000000000000000007C00
0E000000000000000000003E00
1E000000000000000000001E00
1E000000000000000000001F00
1E000000000000000000000F00
1C000000000000000000000780
3C000000000000000000000780
3C0000000000000000000003C0
3C0000000000000000000003C0
380000000000000000000003C0
780000000000000000000001E0
780000000000000000000001E0
780000000000000000000000E0
700000000000000000000000F0
FFFFFFFFFFC0000000000000F0
FFFFFFFFFFFFC00000000000F0
FFFFFFFFFFFFF8000000000070
7FFFFFFFFFFFFE000000000070
000000000001FF800000000078
0000000000001FC00000000078
00000000000007E00000000078
00000000000001E00000000078
00000000000000E00000000078
00000000000000F00000000078
00000000000000F00000000078
00000000000000F00000000078
00000000000000F00000000078
00000000000000F00000000078
00000000000000F00000000078
00000000000000F00000000078
00000000000000E00000000078
00000000000001E00000000078
00000000000001E00000000070
00000000000003C00000000070
00000000000007C000000000F0
000000000000078000000000F0
0000000000000F0000000000F0
0000000000001F0000000001E0
0000000000003E0000000001E0
0000000000007C0000000001E0
000000000000F80000000003C0
000000000001F00000000003C0
000000000003E00000000003C0
000000000007C0000000000780
00000000000F80000000000780
00000000001F00000000000F00
00000000003E00000000000F00
00000000007C00000000001E00
0000000000F800000000003C00
0000000001F000000000003C00
0000000007E000000000007800
000000000FC00000000000F000
000000001F800000000001F000
000000003E000000000001E000
000000007C000000000003C000
00000001F8000000000007C000
00000003F000000000000F8000
00000007E000000000000F0000
0000000FC000000000001E0000
0000001F0000000000003E0000
0000003E0000000000007C0000
0000007C000000000000F80000
000000F8000000000001F00000
000001F0000000000003E00000
000003E0000000000007C00000
000007C000000000000F800000
0000078000000000001F000000
00000F0000000000003E000000
00001F0000000000007C000000
00001E000000000000F8000000
00003C000000000001F0000000
00003C000000000003E0000000
00007800000000000FC0000000
00007800000000001F80000000
00007800000000003F00000000
00007000000000007C00000000
0000700000000000F800000000
0000700000000003F000000000
0000700000000007E000000000
000070000000000FC000000000
000070000000001F0000000000
000070000000003E0000000000
000070000000007C0000000000
00007000000000F80000000000
00007000000001F00000000000
00007000000001E00000000000
00007FFFFFFFFFC00000000000
00007FFFFFFFFFC00000000000
00007FFFFFFFFFC00000000000
00003FFFFFFFFFC00000000000
00000000000000000000000000
00000000000000000000000000
00000000000000000000000000
00000000000000000000000000
00000000000000000000000000
00007FFFFFFFFFC00000000000
00007FFFFFFFFFC00000000000
00007FFFFFFFFFC00000000000
00007FFFFFFFFFC00000000000
00007000000001C00000000000
00007000000001C00000000000
00007000000001C00000000000
00007000000001C00000000000
00007000000001C00000000000
00007000000001C00000000000
00007000000001C00000000000
00007000000001C00000000000
00007000000001C00000000000
00007000000001C00000000000
00007000000001C00000000000
00007000000001C00000000000
00007000000001C00000000000
00007000000001C00000000000
00007000000001C00000000000
00007000000001C00000000000
00007000000001C00000000000
00007000000001C00000000000
00007000000001C00000000000
00007000000001C00000000000
00007000000001C00000000000
00007000000001C00000000000
00007000000001C00000000000
00007000000001C00000000000
00007000000001C00000000000
00007000000001C00000000000
00007000000001C00000000000
00007000000001C00000000000
00007000000001C00000000000
00007FFFFFFFFFC00000000000
00007FFFFFFFFFC00000000000
00007FFFFFFFFFC00000000000
00003FFFFFFFFF800000000000
ENDCHAR
STARTCHAR 0040
ENCODING 64
SWIDTH 500 0
DWIDTH 90 0
BBX 0 0 0 0
BITMAP
ENDCHAR
STARTCHAR 0041
ENCODING 65
SWIDTH 761 0
DWIDTH 137 0
BBX 130 171 3 -23
BITMAP
000000000000000000000007FFFFFF0000
00000000000000000001FFFFFFFFFF8000
000000000000000000FFFFFFFFFFFF8000
00000000000000003FFFFFFFFFFFFF8000
0000000000000003FFFFFC00000003C000
000000000000003FFFF00000000003C000
00000000000001FFFC000000000003C000
0000000000000FFF80000000000001E000
0000000000003FF800000000000001E000
000000000000FF8000000000000001E000
000000000003FC0000000000000001E000
00000000000FF00000000000000000F000
00000000003FC00000000000000000F000
00000000007F000000000000000000F000
0000000001FC000000000000000000F000
0000000003F00000000000000000007800
000000000FE00000000000000000007800
000000001F800000000000000000007800
000000003F000000000000000000003C00
000000007C000000000000000000003C00
00000000F8000000000000000000003C00
00000003F0000000000000000000003C00
00000007E0000000000000000000001E00
0000000F80000000000000000000001E00
0000001F00000000000000000000001E00
0000003E00000000000000000000001E00
0000007C00000000000000000000000F00
000000F800000000000000000000000F00
000001F000000000000000000000000F00
000003E000000000000000000000000F80
000003C000000000000000000000000780
0000078000000000000000000000000780
00000F8000000000000000000000000780
00001F00000000000000000FFFFFFFFFC0
00003E000000000000001FFFFFFFFFFFC0
00003C00000000000007FFFFFFFFFFFFC0
0000780000000000003FFFFFFFFFFFFF80
0000F8000000000001FFFE000000000000
0000F0000000000007FF7FFFFFFFFFE000
0001E000000000001FF07FFFFFFFFFE000
0003E000000000007F807FFFFFFFFFE000
0003C00000000001FC007800000000E000
0007800000000003F0007800000000E000
0007800000000007E0007800000000E000
000F00000000001F80007800000000E000
000F00000000003F00007800000000E000
001E00000000007C00007800000000E000
001E0000000000F800007800000000E000
003C0000000001F000007800000000E000
003C0000000003E000007800000000E000
00780000000007C000007800000000E000
0078000000000F8000007800000000E000
00F0000000001F0000007800000000E000
00F0000000003E0000007800000000E000
00E0000000003C0000007800000000E000
01E000000000780000007800000000E000
01E000000000F80000007800000000E000
03C000000000F00000007800000000E000
03C000000001E00000007800000000E000
03C000000001E00000007800000000E000
078000000003C00000007800000000E000
078000000003C00000007800000000E000
078000000003800000007800000000E000
0F0000000007800000007800000000E000
0F0000000007800000007800000000E000
0F000000000F000000007800000000E000
0E000000000F000000007800000000E000
1E000000000E0000007FF800000000E000
1E000000001FFFFFFFFFF800000000E000
1E000000001FFFFFFFFFF800000000E000
1C000000001FFFFFFFFFF000000000E000
3C0000000000000000000000000000E000
3C0000000000000000000000000000E000
3C0000000000000000000000000000E000
380000000000000000000000000000E000
780000000000000000000000000000E000
780000000000000000000000000000E000
780000000000000000000000000000E000
780000000000000000000000000000E000
780000000000000000000000000000E000
700000000000000000000000000000E000
700000000000000000000000000000E000
700000000000000000000000000000E000
F00000000000000000000000000000E000
F00000000000000000000000000000E000
F00000000000000000000000000000E000
F00000000000000000000000000000E000
F00000000000000000000000000000E000
F00000000000000000000000000000E000
E00000000000000000000000000000E000
E00000000000000000000000000000E000
E00000000000000000000000000000E000
E00000000000000000000000000000E000
E00000000000000000000000000000E000
E00000000000000000000000000000E000
E00000000000000000000000000000E000
E00000000000000000000000000000E000
E00000000000000000000000000000E000
E00000000000000000000000000000E000
E00000000000000000000000000000E000
E00000000000000000000000000000E000
E000000001FFFFFFFFFFF800000000E000
E000000001FFFFFFFFFFF800000000E000
E000000001FFFFFFFFFFF800000000E000
F000000001E0000000007800000000E000
F000000001E0000000007800000000E000
F000000001E0000000007800000000E000
F000000001E0000000007800000000E000
F000000001E0000000007800000000E000
F000000001E0000000007800000000E000
F000000000E0000000007800000000E000
7000000000E0000000007800000000E000
7000000000E0000000007800000000E000
7000000000F0000000007800000000E000
7800000000F0000000007800000000E000
7800000000F0000000007800000000E000
7800000000F0000000007800000000E000
780000000070000000007800000000E000
380000000078000000007800000000E000
380000000078000000007800000000E000
3C0000000078000000007800000000E000
3C0000000038000000007800000000E000
3C000000003C000000007800000000E000
1C000000003C000000007800000000E000
1E000000001C000000007800000000E000
1E000000001E000000007800000000E000
1E000000001E000000007800000000E000
0E000000000E000000007800000000E000
0F000000000F000000007800000000E000
0F000000000F000000007800000000E000
0F0000000007000000007800000000E000
070000000007800000007800000000E000
078000000007800000007800000000E000
078000000003C00000007800000000E000
038000000003C00000007800000000E000
03C000000001E00000007800000000E000
03C000000001E00000007800000000E000
03C000000000E00000007800000000E000
01E000000000F00000007800000000E000
01E000000000F00000007800000000E000
01E000000000780000007800000000E000
00F000000000780000007800000000E000
00F0000000003C0000007800000000E000
0078000000003E0000007800000000E000
0078000000001E0000007800000000E000
0078000000000F0000007800000000E000
003C000000000F0000007800000000E000
003C00000000078000007FFFFFFFFFE000
001E00000000078000007FFFFFFFFFE000
001E000000000F8000007FFFFFFFFFE000
000F000000003F8000001FFFFFFFFFC000
000F000000007E00000000000000000000
000F80000001FC00000000000000000000
000780000003F000000000000000000000
0007C000000FE000000000000000000000
0003C000001F8000000000000000000000
0003E000007F0000000000000000000000
0001E00000FC0000000000000000000000
0000F00003F00000000000000000000000
0000F00007E00000000000000000000000
000078001F800000000000000000000000
000078003F000000000000000000000000
00003C00FC000000000000000000000000
00003E01F8000000000000000000000000
00001E07E0000000000000000000000000
00000F1FC0000000000000000000000000
00000F3F00000000000000000000000000
000007FE00000000000000000000000000
000007F800000000000000000000000000
000003F000000000000000000000000000
000001C000000000000000000000000000
ENDCHAR
STARTCHAR 0042
ENCODING 66
SWIDTH 777 0
DWIDTH 140 0
BBX 132 151 4 -2
BITMAP
003FFFFFFFFFFFFFFFFFFF000000000000
007FFFFFFFFFFFFFFFFFFFFE0000000000
007FFFFFFFFFFFFFFFFFFFFFF000000000
007FFFFFFFFFFFFFFFFFFFFFFE00000000
00F00000000000000000001FFFC0000000
00F0000000000000000000007FF0000000
00F00000000000000000000007F8000000
01E00000000000000000000001FE000000
01E000000000000000000000003F000000
01E000000000000000000000001F800000
01E0000000000000000000000007E00000
03C0000000000000000000000003E00000
03C0000000000000000000000001F00000
03C0000000000000000000000000F80000
03800000000000000000000000007C0000
07800000000000000000000000003E0000
07800000000000000000000000001E0000
07800000000000000000000000000F0000
07000000000000000000000000000F8000
0F00000000000000000000000000078000
0F0000000000000000000000000003C000
0F0000000000000000000000000003C000
1E0000000000000000000000000001E000
1E0000000000000000000000000001E000
1E0000000000000000000000000000E000
1E0000000000000000000000000000F000
3C0000000000000000000000000000F000
3C00000000000000000000000000007000
3C00000000000000000000000000007800
3800000000000000000000000000007800
7800000000000000000000000000007800
7800000000000000000000000000007800
7800000000000000000000000000007800
FFFFFFFFFFFFFFFF000000000000007800
FFFFFFFFFFFFFFFFFFF800000000007800
FFFFFFFFFFFFFFFFFFFE00000000003800
7FFFFFFFFFFFFFFFFFFF00000000003800
000000000000000000FF80000000003800
00FFFFFFFFFF8000000780000000003800
01FFFFFFFFFF80000003C0000000007800
01FFFFFFFFFF80000003C0000000007800
01E00000000380000003C0000000007800
01E00000000380000003C0000000007800
01E00000000380000003C0000000007000
01E00000000380000003C0000000007000
01E000000003800000078000000000F000
01E000000003800000078000000000F000
01E0000000038000000F0000000000E000
01E0000000038000001F0000000001E000
01E0000000038000001E0000000001E000
01E0000000038000003C0000000003C000
01E0000000038000007C0000000003C000
01E000000003800000F800000000078000
01E000000003800001F0000000000F8000
01E000000003800007E0000000000F0000
01E00000000380000FC0000000001E0000
01E00000000380001F00000000003E0000
01E00000000380007E00000000007C0000
01E0000000038000FC0000000000F80000
01E0000000038001F80000000001F00000
01E0000000038007E00000000003E00000
01E000000003800FC00000000003C00000
01E000000003803F800000000007C00000
01E000000003807E00000000000F800000
01E00000000380FC00000000001F000000
01E00000000381F000000000007E000000
01E00000000387E00000000000FC000000
01E0000000038FC00000000001F8000000
01E0000000039F800000000003F0000000
01E000000003FE000000000003E0000000
01E000000003FC000000000001F0000000
01E000000003F8000000000000FC000000
01E000000003FE0000000000007E000000
01E000000003FF0000000000003F000000
01E0000000039FC000000000000F800000
01E0000000038FF0000000000007C00000
01E00000000383F8000000000003E00000
01E00000000380FE000000000001F00000
01E000000003803F000000000000F80000
01E000000003801FC000000000007C0000
01E0000000038007F000000000003E0000
01E0000000038001F800000000001F0000
01E0000000038000FC00000000000F0000
01E00000000380003F00000000000F8000
01E00000000380001F800000000007C000
01E00000000380000FC00000000003E000
01E000000003800003E00000000001E000
01E000000003800001F00000000000F000
01E000000003800000F80000000000F800
01E0000000038000007C00000000007800
01E0000000038000003F00000000003C00
01E0000000038000001F80000000003C00
01E0000000038000000F80000000001E00
01E00000000380000007C0000000001E00
01E00000000380000003E0000000000F00
01E00000000380000001F0000000000F00
01E00000000380000000F8000000000780
01E0000000038000000078000000000780
01E000000003800000007C000000000380
01E000000003800000003C0000000003C0
01E000000003800000001E0000000003C0
01E000000003800000001E0000000001C0
01E000000003800000000F0000000001E0
01E000000003800000000F0000000001E0
01E000000003800000000F0000000001E0
01E000000003800000000F0000000001E0
01E00000000380000000070000000000E0
01E00000000380000000070000000000E0
01E00000000380000000070000000000F0
01E000000003800000000F0000000000F0
01E000000003800000000F0000000000F0
01E000000003800000001F0000000000F0
01E000000003800000003E0000000000F0
01E00000000380000001FE0000000000F0
01E000000003FFFFFFFFFC0000000000F0
01E000000003FFFFFFFFF00000000000F0
01E000000003FFFFFFFFC00000000000F0
01E000000001FFFFFFFC000000000000E0
01E00000000000000000000000000000E0
01E00000000000000000000000000000E0
01E00000000000000000000000000001E0
01E00000000000000000000000000001E0
01E00000000000000000000000000001E0
01E00000000000000000000000000001C0
01E00000000000000000000000000003C0
01E00000000000000000000000000003C0
01E0000000000000000000000000000780
01E0000000000000000000000000000780
01E0000000000000000000000000000F00
01E0000000000000000000000000000F00
01E0000000000000000000000000001E00
01E0000000000000000000000000001E00
01E0000000000000000000000000003C00
01E0000000000000000000000000007800
01E000000000000000000000000000F800
01E000000000000000000000000001F000
01E000000000000000000000000003E000
01E000000000000000000000000007C000
01E00000000000000000000000000F8000
01E00000000000000000000000001F0000
01E00000000000000000000000007E0000
01E0000000000000000000000000FC0000
01E0000000000000000000000003F80000
01E000000000000000000000001FE00000
01E00000000000000000000000FF800000
01E0000000000000000000000FFE000000
01E000000000000000000007FFF8000000
01FFFFFFFFFFFFFFFFFFFFFFFFC0000000
01FFFFFFFFFFFFFFFFFFFFFFFC00000000
01FFFFFFFFFFFFFFFFFFFFFF8000000000
007FFFFFFFFFFFFFFFFFFE000000000000
ENDCHAR
STARTCHAR 0043
ENCODING 67
SWIDTH 577 0
DWIDTH 104 0
BBX 103 151 3 -2
BITMAP
00000000000001FFFFFFFFF000
000000000007FFFFFFFFFFF000
0000000000FFFFFFFFFFFFF800
000000000FFFFFFFFFFFFFF800
000000007FFFC0000000007800
00000003FFE000000000003C00
0000000FFE0000000000003C00
0000003FE00000000000003C00
000000FF800000000000003C00
000001FC000000000000001E00
000007F0000000000000001E00
00000FE0000000000000001E00
00001F80000000000000001E00
00003F00000000000000000F00
00007C00000000000000000F00
0000F800000000000000000F00
0001F000000000000000000780
0003E000000000000000000780
0007C000000000000000000780
00078000000000000000000780
000F00000000000000000003C0
001F00000000000000000003C0
001E00000000000000000003C0
003C00000000000000000003C0
007C00000000000000000001E0
007800000000000000000001E0
00F000000000000000000001E0
00F000000000000000000000F0
01E000000000000000000000F0
01E000000000000000000000F0
03C000000000000000000000F0
03C00000000000000000000078
07800000000000000000000078
07800000000000001FFFFFFFF8
0F0000000000003FFFFFFFFFF8
0F000000000001FFFFFFFFFFF8
0F000000000007FFFFFFFFFFF8
1E00000000001FFC0000000000
1E00000000003FC00000000000
1E0000000000FE000000000000
3C0000000001F8000000000000
3C0000000003F0000000000000
3C0000000007E0000000000000
380000000007C0000000000000
78000000000F80000000000000
78000000001F00000000000000
78000000001E00000000000000
78000000003C00000000000000
70000000003C00000000000000
70000000007800000000000000
F0000000007800000000000000
F0000000007000000000000000
F000000000F000000000000000
F000000000F000000000000000
F000000000F000000000000000
F000000000E000000000000000
F000000000E000000000000000
F000000000E000000000000000
E000000001E000000000000000
E000000001E000000000000000
E000000001E000000000000000
E000000001E000000000000000
F000000001E000000000000000
F000000001E000000000000000
F000000001E000000000000000
F000000001E000000000000000
F000000001E000000000000000
F000000001E000000000000000
F000000000E000000000000000
F000000000E000000000000000
F000000000E000000000000000
7000000000F000000000000000
7000000000F000000000000000
7000000000F000000000000000
7800000000F000000000000000
78000000007000000000000000
78000000007800000000000000
78000000007800000000000000
38000000007800000000000000
38000000003800000000000000
3C000000003C00000000000000
3C000000003C00000000000000
3C000000001C00000000000000
1C000000001E00000000000000
1E000000001E00000000000000
1E000000000F00000000000000
1E000000000F00000000000000
0F000000000780000000000000
0F000000000780000000000000
0F0000000003C0000000000000
078000000003C0000000000000
078000000001E0000000000000
078000000001F0000000000000
03C000000000F0000000000000
03C00000000078000000000000
03C0000000007C000000000000
01E0000000003E000000000000
01E0000000001F000000000000
00F0000000000F800000000000
00F00000000007800000000000
00780000000003C00000000000
00780000000003E00000000000
003C0000000001F80000000000
003C0000000000FC0000000000
001E00000000007E0000000000
001E00000000003F0000000000
000F00000000000FC000000000
000F800000000007E000000000
0007800000000003F800000000
0007C00000000000FE00000000
0003E000000000007FC0000000
0001E000000000001FF0000000
0001F0000000000007FF000000
0000F8000000000000FFF80000
0000780000000000003FFFFFF8
00007C00000000000007FFFFF0
00003E000000000000007FFFF0
00001F0000000000000000FFFA
00000F0000000000000000001E
00000F8000000000000000001E
000007C000000000000000003C
000003E000000000000000003C
000001F000000000000000003C
000000F8000000000000000038
0000007C000000000000000078
0000007E000000000000000078
0000003F000000000000000078
0000001F800000000000000070
0000000FC000000000000000F0
00000007E000000000000000F0
00000001F000000000000000F0
00000000FC00000000000001E0
000000007E00000000000001E0
000000003F00000000000001E0
000000001FC0000000000001C0
0000000007E0000000000003C0
0000000003F8000000000003C0
0000000000FE000000000003C0
00000000007F00000000000380
00000000001FC0000000000780
00000000000FF8000000000780
000000000003FE000000000780
000000000000FF800000000F00
0000000000003FF00000000F00
00000000000007FF0000000F00
00000000000001FFF000000E00
000000000000003FFFC0001E00
0000000000000007FFFFFFFE00
00000000000000003FFFFFFE00
000000000000000001FFFFFC00
000000000000000000001FF800
ENDCHAR
STARTCHAR 0044
ENCODING 68
SWIDTH 777 0
DWIDTH 140 0
BBX 134 151 4 -2
BITMAP
003FFFFFFFFFFFFFFFFF80000000000000
007FFFFFFFFFFFFFFFFFFF800000000000
007FFFFFFFFFFFFFFFFFFFFC0000000000
007FFFFFFFFFFFFFFFFFFFFFC000000000
00F0000000000000000007FFF800000000
00F00000000000000000001FFF00000000
00F000000000000000000001FFC0000000
01E0000000000000000000001FF0000000
01E00000000000000000000007FC000000
01E00000000000000000000000FE000000
01E000000000000000000000003F800000
03C000000000000000000000001FC00000
03C0000000000000000000000007E00000
03C0000000000000000000000003F00000
0380000000000000000000000000F80000
07800000000000000000000000007C0000
07800000000000000000000000003E0000
07800000000000000000000000001F0000
07000000000000000000000000000F8000
0F00000000000000000000000000078000
0F0000000000000000000000000003C000
0F0000000000000000000000000003E000
1E0000000000000000000000000001E000
1E0000000000000000000000000000F000
1E0000000000000000000000000000F800
1E00000000000000000000000000007800
3C00000000000000000000000000003C00
3C00000000000000000000000000003C00
3C00000000000000000000000000001E00
3800000000000000000000000000001E00
7800000000000000000000000000000F00
7800000000000000000000000000000F00
7800000000000000000000000000000780
FFFFFFFFFFFFFFFFC00000000000000780
FFFFFFFFFFFFFFFFFFF000000000000380
FFFFFFFFFFFFFFFFFFFE000000000003C0
7FFFFFFFFFFFFFFFFFFF800000000003C0
000000000000000000FFE00000000001E0
00FFFFFFFFFF8000000FF00000000001E0
01FFFFFFFFFF80000001FC0000000001E0
01FFFFFFFFFF80000000FE0000000000E0
01E000000003800000003F0000000000F0
01E000000003800000001F8000000000F0
01E000000003800000000F8000000000F0
01E0000000038000000007C00000000070
01E0000000038000000003E00000000078
01E0000000038000000001E00000000078
01E0000000038000000000F00000000078
01E0000000038000000000F00000000038
01E0000000038000000000780000000038
01E0000000038000000000780000000038
01E000000003800000000078000000003C
01E00000000380000000003C000000003C
01E00000000380000000003C000000003C
01E00000000380000000003C000000003C
01E00000000380000000003C000000003C
01E00000000380000000001C000000003C
01E00000000380000000001C000000003C
01E00000000380000000001C000000003C
01E00000000380000000001E000000003C
01E00000000380000000001E000000003C
01E00000000380000000001E000000003C
01E00000000380000000001E000000003C
01E00000000380000000001E000000003C
01E00000000380000000001E000000003C
01E00000000380000000001E000000003C
01E00000000380000000001E000000003C
01E00000000380000000001C000000003C
01E00000000380000000001C000000003C
01E00000000380000000001C000000003C
01E00000000380000000001C000000003C
01E00000000380000000003C0000000038
01E00000000380000000003C0000000038
01E00000000380000000003C0000000038
01E00000000380000000003C0000000078
01E0000000038000000000380000000078
01E0000000038000000000780000000078
01E0000000038000000000780000000078
01E0000000038000000000780000000078
01E0000000038000000000700000000070
01E0000000038000000000F000000000F0
01E0000000038000000000F000000000F0
01E0000000038000000000E000000000F0
01E0000000038000000001E000000000F0
01E0000000038000000001E000000000E0
01E0000000038000000003C000000001E0
01E0000000038000000003C000000001E0
01E00000000380000000078000000001C0
01E00000000380000000078000000003C0
01E000000003800000000F0000000003C0
01E000000003800000000F0000000003C0
01E000000003800000001E000000000380
01E000000003800000003E000000000780
01E000000003800000003C000000000780
01E0000000038000000078000000000F00
01E00000000380000000F8000000000F00
01E00000000380000000F0000000000E00
01E00000000380000001E0000000001E00
01E00000000380000003E0000000001E00
01E00000000380000007C0000000003C00
01E0000000038000000F80000000003C00
01E0000000038000000F00000000007800
01E0000000038000001E00000000007800
01E0000000038000003C0000000000F000
01E000000003800000FC0000000000F000
01E000000003800001F00000000001E000
01E000000003800003E00000000003E000
01E000000003800007C00000000003C000
01E00000000380001F8000000000078000
01E00000000380007F00000000000F8000
01E0000000038001FC00000000000F0000
01E0000000038007F800000000001F0000
01E000000003803FE000000000003E0000
01E00000000383FF8000000000007C0000
01E000000003FFFE000000000000780000
01E000000003FFF0000000000000F80000
01E000000003FF80000000000001F00000
01E000000001C000000000000003E00000
01E0000000000000000000000007C00000
01E000000000000000000000000F800000
01E000000000000000000000001F000000
01E000000000000000000000003E000000
01E000000000000000000000007C000000
01E00000000000000000000000F8000000
01E00000000000000000000001F0000000
01E00000000000000000000007E0000000
01E0000000000000000000000FC0000000
01E0000000000000000000001F80000000
01E0000000000000000000003F00000000
01E000000000000000000000FE00000000
01E000000000000000000001F800000000
01E000000000000000000007F000000000
01E00000000000000000000FE000000000
01E00000000000000000003F8000000000
01E00000000000000000007F0000000000
01E0000000000000000001FC0000000000
01E0000000000000000007F80000000000
01E000000000000000001FE00000000000
01E000000000000000007F800000000000
01E00000000000000001FE000000000000
01E00000000000000007F8000000000000
01E0000000000000003FE0000000000000
01E000000000000001FF80000000000000
01E00000000000000FFE00000000000000
01E0000000000000FFF000000000000000
01E000000000001FFF8000000000000000
01E00000000007FFFC0000000000000000
01FFFFFFFFFFFFFFC00000000000000000
01FFFFFFFFFFFFFC000000000000000000
01FFFFFFFFFFFF80000000000000000000
007FFFFFFFFE0000000000000000000000
ENDCHAR
STARTCHAR 0045
ENCODING 69
SWIDTH 638 0
DWIDTH 115 0
BBX 105 151 11 -2
BITMAP
7FFFFFFFFFFFFFFFFFFFFFF00000
FFFFFFFFFFFFFFFFFFFFFFF00000
FFFFFFFFFFFFFFFFFFFFFFF00000
FFFFFFFFFFFFFFFFFFFFFFF80000
E000000000000000000000780000
E000000000000000000000780000
E0000000000000000000003C0000
E0000000000000000000003C0000
E0000000000000000000003C0000
E0000000000000000000003C0000
E0000000000000000000001E0000
E0000000000000000000001E0000
E0000000000000000000001E0000
E0000000000000000000000E0000
E0000000000000000000000F0000
E0000000000000000000000F0000
E0000000000000000000000F0000
E000000000000000000000078000
E000000000000000000000078000
E000000000000000000000078000
E000000000000000000000078000
E00000000000000000000003C000
E00000000000000000000003C000
E00000000000000000000003C000
E00000000000000000000003C000
E00000000000000000000001E000
E00000000000000000000001E000
E00000000000000000000001E000
E00000000000000000000000F000
E00000000000000000000000F000
E00000000000000000000000F000
E00000000000000000000000F000
E000000000000000000000007800
E000000001FFFFFFFFFFFFFFF800
E000000003FFFFFFFFFFFFFFF800
E000000003FFFFFFFFFFFFFFF800
E000000003FFFFFFFFFFFFFFF000
E000000003C00000000000000000
E000000003C00000000000000000
E000000003C00000000000000000
E000000003C00000000000000000
E000000003C00000000000000000
E000000003C00000000000000000
E000000003C00000000000000000
E000000003C00000000000000000
E000000003C00000000000000000
E000000003C00000000000000000
E000000003C00000000000000000
E000000003C00000000000000000
E000000003C00000000000000000
E000000003C00000000000000000
E000000003C00000000000000000
E000000003C00000000000000000
E000000003C00000000000000000
E000000003C00000000000000000
E000000003FFFFFFFFFFFFFE0000
E000000003FFFFFFFFFFFFFF0000
E000000003FFFFFFFFFFFFFF0000
E000000001FFFFFFFFFFFFFE0000
E0000000000000000000001E0000
E0000000000000000000001E0000
E0000000000000000000001E0000
E0000000000000000000003C0000
E0000000000000000000003C0000
E0000000000000000000003C0000
E0000000000000000000003C0000
E000000000000000000000780000
E000000000000000000000780000
E000000000000000000000780000
E000000000000000000000700000
E000000000000000000000F00000
E000000000000000000000F00000
E000000000000000000000F00000
E000000000000000000001E00000
E000000000000000000001E00000
E000000000000000000001E00000
E000000000000000000001E00000
E000000000000000000003C00000
E000000000000000000003C00000
E000000000000000000003C00000
E000000000000000000003800000
E000000000000000000007800000
E000000000000000000007800000
E000000000000000000007800000
E00000000000000000000F000000
E00000000000000000000F000000
E00000000000000000000F000000
E00000000000000000000F000000
E000000001FFFFFFFFFFFE000000
E000000003FFFFFFFFFFFE000000
E000000003FFFFFFFFFFFE000000
E000000003FFFFFFFFFFFC000000
E000000003C00000000000000000
E000000003C00000000000000000
E000000003C00000000000000000
E000000003C00000000000000000
E000000003C00000000000000000
E000000003C00000000000000000
E000000003C00000000000000000
E000000003C00000000000000000
E000000003C00000000000000000
E000000003C00000000000000000
E000000003C00000000000000000
E000000003C00000000000000000
E000000003C00000000000000000
E000000003C00000000000000000
E000000003C00000000000000000
E000000003C00000000000000000
E000000003C00000000000000000
E000000003C00000000000000000
E000000003C00000000000000000
E000000003C00000000000000000
E000000003C00000000000000000
E000000003C00000000000000000
E000000003FFFFFFFFFFFFFFFF00
E000000003FFFFFFFFFFFFFFFF80
E000000003FFFFFFFFFFFFFFFF80
E000000001FFFFFFFFFFFFFFFF80
E000000000000000000000000780
E000000000000000000000000F00
E000000000000000000000000F00
E000000000000000000000000F00
E000000000000000000000000E00
E000000000000000000000001E00
E000000000000000000000001E00
E000000000000000000000001E00
E000000000000000000000003C00
E000000000000000000000003C00
E000000000000000000000003C00
E000000000000000000000003C00
E000000000000000000000007800
E000000000000000000000007800
E000000000000000000000007800
E000000000000000000000007000
E00000000000000000000000F000
E00000000000000000000000F000
E00000000000000000000000F000
E00000000000000000000001E000
E00000000000000000000001E000
E00000000000000000000001E000
E00000000000000000000001E000
E00000000000000000000003C000
E00000000000000000000003C000
E00000000000000000000003C000
E000000000000000000000038000
E000000000000000000000078000
E000000000000000000000078000
FFFFFFFFFFFFFFFFFFFFFFFF8000
FFFFFFFFFFFFFFFFFFFFFFFF0000
FFFFFFFFFFFFFFFFFFFFFFFF0000
7FFFFFFFFFFFFFFFFFFFFFFE0000
ENDCHAR
STARTCHAR 0046
ENCODING 70
SWIDTH 600 0
DWIDTH 108 0
BBX 100 173 11 -24
BITMAP
7FFFFFFFFFFFFFFFFFFFFFC000
FFFFFFFFFFFFFFFFFFFFFFE000
FFFFFFFFFFFFFFFFFFFFFFE000
FFFFFFFFFFFFFFFFFFFFFFE000
E000000000000000000001E000
E000000000000000000000F000
E000000000000000000000F000
E000000000000000000000F000
E0000000000000000000007000
E0000000000000000000007800
E0000000000000000000007800
E0000000000000000000007800
E0000000000000000000003C00
E0000000000000000000003C00
E0000000000000000000003C00
E0000000000000000000003C00
E0000000000000000000001E00
E0000000000000000000001E00
E0000000000000000000001E00
E0000000000000000000001E00
E0000000000000000000000F00
E0000000000000000000000F00
E0000000000000000000000F00
E0000000000000000000000780
E0000000000000000000000780
E0000000000000000000000780
E0000000000000000000000780
E00000000000000000000003C0
E00000000000000000000003C0
E00000000000000000000003C0
E00000000000000000000003C0
E00000000000000000000001E0
E00000000000000000000001E0
E000000001FFFFFFFFFFFFFFE0
E000000003FFFFFFFFFFFFFFF0
E000000003FFFFFFFFFFFFFFF0
E000000003FFFFFFFFFFFFFFE0
E000000003C000000000000000
E000000003C000000000000000
E000000003C000000000000000
E000000003C000000000000000
E000000003C000000000000000
E000000003C000000000000000
E000000003C000000000000000
E000000003C000000000000000
E000000003C000000000000000
E000000003C000000000000000
E000000003C000000000000000
E000000003C000000000000000
E000000003C000000000000000
E000000003C000000000000000
E000000003C000000000000000
E000000003C000000000000000
E000000003C000000000000000
E000000003C000000000000000
E000000003C000000000000000
E000000003C000000000000000
E000000003FFFFFFFFFFFFFC00
E000000003FFFFFFFFFFFFFC00
E000000001FFFFFFFFFFFFFC00
E0000000000000000000003C00
E0000000000000000000007800
E0000000000000000000007800
E0000000000000000000007800
E0000000000000000000007000
E000000000000000000000F000
E000000000000000000000F000
E000000000000000000000F000
E000000000000000000001E000
E000000000000000000001E000
E000000000000000000001E000
E000000000000000000001E000
E000000000000000000003C000
E000000000000000000003C000
E000000000000000000003C000
E0000000000000000000038000
E0000000000000000000078000
E0000000000000000000078000
E0000000000000000000078000
E0000000000000000000070000
E00000000000000000000F0000
E00000000000000000000F0000
E00000000000000000000F0000
E00000000000000000001E0000
E00000000000000000001E0000
E00000000000000000001E0000
E00000000000000000001C0000
E00000000000000000003C0000
E00000000000000000003C0000
E00000000000000000003C0000
E000000001FFFFFFFFFFF80000
E000000003FFFFFFFFFFF80000
E000000003FFFFFFFFFFF80000
E000000003FFFFFFFFFFE00000
E000000003C000000000000000
E000000003C000000000000000
E000000003C000000000000000
E000000003C000000000000000
E000000003C000000000000000
E000000003C000000000000000
E000000003C000000000000000
E000000003C000000000000000
E000000003C000000000000000
E000000003C000000000000000
E000000003C000000000000000
E000000003C000000000000000
E000000003C000000000000000
E000000003C000000000000000
E000000003C000000000000000
E000000003C000000000000000
E000000003C000000000000000
E000000003C000000000000000
E000000003C000000000000000
E000000003C000000000000000
E000000003C000000000000000
E000000003C000000000000000
E000000003C000000000000000
E000000003C000000000000000
E000000003C000000000000000
E000000003C000000000000000
E000000003C000000000000000
E000000003C000000000000000
E000000003C000000000000000
E000000003C000000000000000
E000000003C000000000000000
E000000003C000000000000000
E000000003C000000000000000
E000000003C000000000000000
E000000003C000000000000000
E000000003C000000000000000
E000000003C000000000000000
E000000003C000000000000000
E000000003C000000000000000
E000000003C000000000000000
E000000003C000000000000000
E000000003C000000000000000
E000000003C000000000000000
E000000003C000000000000000
E000000001C000000000000000
E000000001C000000000000000
E000000001C000000000000000
E000000001C000000000000000
E000000001E000000000000000
E000000001E000000000000000
E000000001E000000000000000
F000000000E000000000000000
F000000000F000000000000000
F000000000F000000000000000
F000000000F000000000000000
F000000001F000000000000000
F000000007E000000000000000
F00000000FC000000000000000
F00000003F0000000000000000
70000000FE0000000000000000
70000001F80000000000000000
78000007E00000000000000000
7800000FC00000000000000000
7800003F000000000000000000
780000FE000000000000000000
380001F8000000000000000000
3C0007E0000000000000000000
3C000FC0000000000000000000
3C003F00000000000000000000
1C007E00000000000000000000
1E01F800000000000000000000
1E07F000000000000000000000
0E0FC000000000000000000000
0F3F0000000000000000000000
0F7E0000000000000000000000
07F80000000000000000000000
07F00000000000000000000000
03C00000000000000000000000
03800000000000000000000000
ENDCHAR
STARTCHAR 0047
ENCODING 71
SWIDTH 761 0
DWIDTH 137 0
BBX 127 151 3 -2
BITMAP
00000000000001FFFFFFFFFFFFFFE000
000000000007FFFFFFFFFFFFFFFFF000
0000000000FFFFFFFFFFFFFFFFFFF000
000000000FFFFFFFFFFFFFFFFFFFF000
000000007FFFC0000000000000007800
00000003FFE000000000000000007800
0000000FFE0000000000000000007800
0000003FE00000000000000000003800
000000FF800000000000000000003C00
000001FC000000000000000000003C00
000007F0000000000000000000003C00
00000FE0000000000000000000001E00
00001F80000000000000000000001E00
00003F00000000000000000000001E00
00007C00000000000000000000001E00
0000F800000000000000000000000F00
0001F000000000000000000000000F00
0003E000000000000000000000000F00
0007C000000000000000000000000700
00078000000000000000000000000780
000F0000000000000000000000000780
001F0000000000000000000000000780
001E00000000000000000000000003C0
003C00000000000000000000000003C0
007C00000000000000000000000003C0
007800000000000000000000000003C0
00F000000000000000000000000001E0
00F000000000000000000000000001E0
01E000000000000000000000000001E0
01E000000000000000000000000001E0
03C000000000000000000000000000F0
03C000000000000000000000000000F0
078000000000000000000000000000F0
07800000000000001FFFFFFFFFFFFFF8
0F0000000000003FFFFFFFFFFFFFFFF8
0F000000000001FFFFFFFFFFFFFFFFF8
0F000000000007FFFFFFFFFFFFFFFFF0
1E00000000001FFC0000000000000000
1E00000000003FC00000000000000000
1E0000000000FE000000000000000000
3C0000000001F8000000000000000000
3C0000000003F0000000000000000000
3C0000000007E0000000000000000000
380000000007C0000000000000000000
78000000000F80000000000000000000
78000000001F00000000000000000000
78000000001E00000000000000000000
78000000003C000003FFFFFFFFFFFFFC
70000000003C000003FFFFFFFFFFFFFE
700000000078000003FFFFFFFFFFFFFE
F00000000078000003C000000000001E
F00000000070000003C000000000001E
F000000000F0000003C000000000001E
F000000000F0000003C000000000001E
F000000000F0000003C000000000001E
F000000000E0000003C000000000001E
F000000000E0000003C000000000001E
F000000000E0000003C000000000001E
E000000001E0000003C000000000001E
E000000001E0000003C000000000001E
E000000001E0000003C000000000001E
E000000001E0000003C000000000001E
F000000001E0000003C000000000001E
F000000001E0000003C000000000001E
F000000001E0000003C000000000001E
F000000001E0000003C000000000001E
F000000001E0000003C000000000001E
F000000001E0000003C000000000001E
F000000001E0000003C000000000001E
F000000000E0000003C000000000001E
F000000000E0000003C000000000001E
F000000000F0000003C000000000001E
7000000000F0000003C000000000001E
7000000000F0000003C000000000001E
7000000000F0000003C000000000001E
780000000070000003C000000000001E
780000000070000003C000000000001E
780000000078000003C000000000001E
780000000078000003C000000000001E
380000000038000003C000000000001E
38000000003C000003FFFF000000001E
3C000000003C000003FFFF000000001E
3C000000001C000003FFFF000000001E
3C000000001E000000000F000000001E
1C000000001E000000000F000000001E
1E000000000F000000000F000000001E
1E000000000F000000000F000000001E
1E0000000007800000000F000000001E
0E0000000007800000000F000000001E
0F0000000003C00000000F000000001E
0F0000000003C00000000F000000001E
070000000001E00000000F000000001E
078000000001E00000000F000000001E
078000000000F00000000F000000001E
03C000000000F80000000F000000001E
03C000000000780000000F000000001E
03C0000000003C0000000F000000001E
01E0000000003E0000000F000000001E
01E0000000001F0000000F000000001E
00F0000000000F0000000F000000001E
00F000000000078000000F000000001E
00780000000007C000000F000000001E
00780000000003E000000F000000001E
003C0000000001F000000F000000001E
003C0000000000F800000F000000001E
001E00000000007E00000F000000001E
001E00000000003F00000F000000001E
000F00000000001F80000F000000001E
000F800000000007E0000F000000001E
0007800000000003F8000F000000001E
0003C00000000001FE000F000000001E
0003E000000000007F800F000000001E
0001F000000000001FF00F000000001E
0000F000000000000FFF0F000000001E
000078000000000001FFFF000000001E
00007C0000000000007FFF000000001E
00003E0000000000000FFF000000001E
00001F000000000000003E000000001E
00000F8000000000000000000000001E
000007C000000000000000000000001E
000003E000000000000000000000001E
000003F000000000000000000000001E
000001F800000000000000000000001E
000000FC00000000000000000000001E
0000007E00000000000000000000001E
0000001F00000000000000000000001E
0000000FC0000000000000000000001E
00000007E0000000000000000000001E
00000003F0000000000000000000001E
00000001FC000000000000000000001E
000000007E000000000000000000001E
000000003F000000000000000000001E
000000001FC00000000000000000001E
0000000007F00000000000000000001E
0000000003F80000000000000000001E
0000000000FE0000000000000000001E
00000000007F8000000000000000001E
00000000001FE000000000000000001E
000000000007F800000000000000001E
000000000001FE00000000000000001E
0000000000007F80000000000000001E
0000000000001FF0000000000000001E
00000000000007FE000000000000001E
00000000000001FFC00000000000001E
000000000000003FFC0000000000001E
0000000000000007FFE000000000001E
0000000000000000FFFF80000000001E
00000000000000000FFFFFFFFFFFFFFE
000000000000000000FFFFFFFFFFFFFE
00000000000000000003FFFFFFFFFFFE
00000000000000000000003FFFFFFFFC
ENDCHAR
STARTCHAR 0048
ENCODING 72
SWIDTH 800 0
DWIDTH 144 0
BBX 121 173 11 -24
BITMAP
7FFFFFFFFFC000000000FFFFFFFFFF80
FFFFFFFFFFC000000001FFFFFFFFFF80
FFFFFFFFFFC000000001FFFFFFFFFF80
FFFFFFFFFFC000000001FFFFFFFFFF80
F000000001C000000001E00000000380
F000000001C000000001E00000000380
F000000001C000000001E00000000380
F000000001C000000001E00000000380
F000000001C000000001E00000000380
F000000001C000000001E00000000380
F000000001C000000001E00000000380
F000000001C000000001E00000000380
F000000001C000000001E00000000380
F000000001C000000001E00000000380
F000000001C000000001E00000000380
F000000001C000000001E00000000380
F000000001C000000001E00000000380
F000000001C000000001E00000000380
F000000001C000000001E00000000380
F000000001C000000001E00000000380
F000000001C000000001E00000000380
F000000001C000000001E00000000380
F000000001C000000001E00000000380
F000000001C000000001E00000000380
F000000001C000000001E00000000380
F000000001C000000001E00000000380
F000000001C000000001E00000000380
F000000001C000000001E00000000380
F000000001C000000001E00000000380
F000000001C000000001E00000000380
F000000001C000000001E00000000380
F000000001C000000001E00000000380
F000000001C000000001E00000000380
F000000001C000000001E00000000380
F000000001C000000001E00000000380
F000000001C000000001E00000000380
F000000001C000000001E00000000380
F000000001C000000001E00000000380
F000000001C000000001E00000000380
F000000001C000000001E00000000380
F000000001C000000001E00000000380
F000000001C000000001E00000000380
F000000001C000000001E00000000380
F000000001C000000001E00000000380
F000000001C000000001E00000000380
F000000001C000000001E00000000380
F000000001C000000001E00000000380
F000000001FFFFFFFFFFE00000000380
F000000001FFFFFFFFFFE00000000380
F000000001FFFFFFFFFFE00000000380
F0000000000000000000000000000380
F0000000000000000000000000000380
F0000000000000000000000000000380
F0000000000000000000000000000380
F0000000000000000000000000000380
F0000000000000000000000000000380
F0000000000000000000000000000380
F0000000000000000000000000000380
F0000000000000000000000000000380
F0000000000000000000000000000380
F0000000000000000000000000000380
F0000000000000000000000000000380
F0000000000000000000000000000380
F0000000000000000000000000000380
F0000000000000000000000000000380
F0000000000000000000000000000380
F0000000000000000000000000000380
F0000000000000000000000000000380
F0000000000000000000000000000380
F0000000000000000000000000000380
F0000000000000000000000000000380
F0000000000000000000000000000380
F0000000000000000000000000000380
F0000000000000000000000000000380
F0000000000000000000000000000380
F0000000000000000000000000000380
F0000000000000000000000000000380
F0000000000000000000000000000380
F0000000000000000000000000000380
F0000000000000000000000000000380
F000000001FFFFFFFFFFE00000000380
F000000001FFFFFFFFFFE00000000380
F000000001FFFFFFFFFFE00000000380
F000000001C000000001E00000000380
F000000001C000000001E00000000380
F000000001C000000001E00000000380
F000000001C000000001E00000000380
F000000001C000000001E00000000380
F000000001C000000001E00000000380
F000000001C000000001E00000000380
F000000001C000000001E00000000380
F000000001C000000001E00000000380
F000000001C000000001E00000000380
F000000001C000000001E00000000380
F000000001C000000001E00000000380
F000000001C000000001E00000000380
F000000001C000000001E00000000380
F000000001C000000001E00000000380
F000000001C000000001E00000000380
F000000001C000000001E00000000380
F000000001C000000001E00000000380
F000000001C000000001E00000000380
F000000001C000000001E00000000380
F000000001C000000001E00000000380
F000000001C000000001E00000000380
F000000001C000000001E00000000380
F000000001C000000001E00000000380
F000000001C000000001E00000000380
F000000001C000000001E00000000380
F000000001C000000001E00000000380
F000000001C000000001E00000000380
F000000001C000000001E00000000380
F000000001C000000001E00000000380
F000000001C000000001E00000000380
F000000001C000000001E00000000380
F000000001C000000001E00000000380
F000000001C000000001E00000000380
F000000001C000000001E00000000380
F000000001C000000001E00000000380
F000000001C000000001E00000000380
F000000001C000000001E00000000380
F000000001C000000001E00000000380
F000000001C000000001E00000000380
F000000001C000000001E00000000380
F000000001C000000001E00000000380
F000000001C000000001E00000000380
F000000001C000000001E00000000380
F000000001C000000001E00000000380
F000000001C000000001E00000000380
F000000001C000000001E00000000380
F000000001C000000001E00000000380
F000000001C000000001E00000000380
F000000001C000000001E00000000380
F000000001C000000001E00000000380
F000000001C000000001E00000000380
F000000001C000000001E00000000380
F000000001E000000001E00000000380
F000000001E000000001E00000000380
F000000001E000000001E00000000380
F000000001E000000001E00000000380
F000000001E000000001E00000000380
F000000001E000000001E00000000380
F000000000E000000001E00000000380
F000000000E000000001E00000000380
F000000000F000000001E00000000380
F000000000F000000001E00000000380
7000000000F000000001E00000000380
70000000007000000001FFFFFFFFFF80
70000000007800000001FFFFFFFFFF80
7000000001F800000001FFFFFFFFFF80
7000000003F0000000007FFFFFFFFF80
780000000FC000000000000000000000
780000003F8000000000000000000000
780000007E0000000000000000000000
78000001FC0000000000000000000000
78000003F00000000000000000000000
3800000FC00000000000000000000000
3800001F800000000000000000000000
3C00007E000000000000000000000000
3C0001FC000000000000000000000000
3C0003F0000000000000000000000000
1C000FC0000000000000000000000000
1E001F80000000000000000000000000
1E007E00000000000000000000000000
1E00FC00000000000000000000000000
0F03F000000000000000000000000000
0F0FE000000000000000000000000000
071F8000000000000000000000000000
07FE0000000000000000000000000000
07FC0000000000000000000000000000
03F00000000000000000000000000000
03E00000000000000000000000000000
01800000000000000000000000000000
ENDCHAR
STARTCHAR 0049
ENCODING 73
SWIDTH 361 0
DWIDTH 65 0
BBX 42 151 11 -2
BITMAP
7FFFFFFFFFC0
FFFFFFFFFFC0
FFFFFFFFFFC0
FFFFFFFFFFC0
F000000001C0
F000000001C0
F000000001C0
F000000001C0
F000000001C0
F000000001C0
F000000001C0
F000000001C0
F000000001C0
F000000001C0
F000000001C0
F000000001C0
F000000001C0
F000000001C0
F000000001C0
F000000001C0
F000000001C0
F000000001C0
F000000001C0
F000000001C0
F000000001C0
F000000001C0
F000000001C0
F000000001C0
F000000001C0
F000000001C0
F000000001C0
F000000001C0
F000000001C0
F000000001C0
F000000001C0
F000000001C0
F000000001C0
F000000001C0
F000000001C0
F000000001C0
F000000001C0
F000000001C0
F000000001C0
F000000001C0
F000000001C0
F000000001C0
F000000001C0
F000000001C0
F000000001C0
F000000001C0
F000000001C0
F000000001C0
F000000001C0
F000000001C0
F000000001C0
F000000001C0
F000000001C0
F000000001C0
F000000001C0
F000000001C0
F000000001C0
F000000001C0
F000000001C0
F000000001C0
F000000001C0
F000000001C0
F000000001C0
F000000001C0
F000000001C0
F000000001C0
F000000001C0
F000000001C0
F000000001C0
F000000001C0
F000000001C0
F000000001C0
F000000001C0
F000000001C0
F000000001C0
F000000001C0
F000000001C0
F000000001C0
F000000001C0
F000000001C0
F000000001C0
F000000001C0
F000000001C0
F000000001C0
F000000001C0
F000000001C0
F000000001C0
F000000001C0
F000000001C0
F000000001C0
F000000001C0
F000000001C0
F000000001C0
F000000001C0
F000000001C0
F000000001C0
F000000001C0
F000000001C0
F000000001C0
F000000001C0
F000000001C0
F000000001C0
F000000001C0
F000000001C0
F000000001C0
F000000001C0
F000000001C0
F000000001C0
F000000001C0
F000000001C0
F000000001C0
F000000001C0
F000000001C0
F000000001C0
F000000001C0
F000000001C0
F000000001C0
F000000001C0
F000000001C0
F000000001C0
F000000001C0
F000000001C0
F000000001C0
F000000001C0
F000000001C0
F000000001C0
F000000001C0
F000000001C0
F000000001C0
F000000001C0
F000000001C0
F000000001C0
F000000001C0
F000000001C0
F000000001C0
F000000001C0
F000000001C0
F000000001C0
F000000001C0
F000000001C0
F000000001C0
F000000001C0
F000000001C0
FFFFFFFFFFC0
FFFFFFFFFFC0
FFFFFFFFFFC0
3FFFFFFFFFC0
ENDCHAR
STARTCHAR 004A
ENCODING 74
SWIDTH 461 0
DWIDTH 83 0
BBX 74 191 -3 -43
BITMAP
000FFFFFFFFFFFFFFFC0
000FFFFFFFFFFFFFFFC0
001FFFFFFFFFFFFFFFC0
001FFFFFFFFFFFFFFFC0
001E00000000000001C0
001C00000000000001C0
003C00000000000001C0
003C00000000000001C0
003C00000000000001C0
007800000000000001C0
007800000000000001C0
007800000000000001C0
007800000000000001C0
00F000000000000001C0
00F000000000000001C0
00F000000000000001C0
00E000000000000001C0
01E000000000000001C0
01E000000000000001C0
01E000000000000001C0
03C000000000000001C0
03C000000000000001C0
03C000000000000001C0
03C000000000000001C0
078000000000000001C0
078000000000000001C0
078000000000000001C0
070000000000000001C0
0F0000000000000001C0
0F0000000000000001C0
0F0000000000000001C0
1E0000000000000001C0
1E0000000000000001C0
1FFFFFFFE000000001C0
1FFFFFFFF000000001C0
1FFFFFFFF000000001C0
1FFFFFFFF000000001C0
00000000F000000001C0
00000000F000000001C0
00000000F000000001C0
00000000F000000001C0
00000000F000000001C0
00000000F000000001C0
00000000F000000001C0
00000000F000000001C0
00000000F000000001C0
00000000F000000001C0
00000000F000000001C0
00000000F000000001C0
00000000F000000001C0
00000000F000000001C0
00000000F000000001C0
00000000F000000001C0
00000000F000000001C0
00000000F000000001C0
00000000F000000001C0
00000000F000000001C0
00000000F000000001C0
00000000F000000001C0
00000000F000000001C0
00000000F000000001C0
00000000F000000001C0
00000000F000000001C0
00000000F000000001C0
00000000F000000001C0
00000000F000000001C0
00000000F000000001C0
00000000F000000001C0
00000000F000000001C0
00000000F000000001C0
00000000F000000001C0
00000000F000000001C0
00000000F000000001C0
00000000F000000001C0
00000000F000000001C0
00000000F000000001C0
00000000F000000001C0
00000000F000000001C0
00000000F000000001C0
00000000F000000001C0
00000000F000000001C0
00000000F000000001C0
00000000F000000001C0
00000000F000000001C0
00000000F000000001C0
00000000F000000001C0
00000000F000000001C0
00000000F000000001C0
00000000F000000001C0
00000000F000000001C0
00000000F000000001C0
00000000F000000001C0
00000000F000000001C0
00000000F000000001C0
00000000F000000001C0
00000000F000000001C0
00000000F000000001C0
00000000F000000001C0
00000000F000000001C0
00000000F000000001C0
00000000F000000001C0
00000000F000000001C0
00000000F000000001C0
00000000F000000001C0
00000000F000000001C0
00000000F000000001C0
00000000F000000001C0
00000000F000000001C0
00000000F000000001C0
00000000F000000001C0
00000000F000000001C0
00000000F000000001C0
00000000F000000001C0
00000000F000000001C0
00000000F000000001C0
00000000F000000001C0
00000000F000000001C0
00000000F000000001C0
00000000F000000001C0
00000000F000000001C0
00000000F000000001C0
00000000E000000001C0
00000000E000000003C0
00000000E000000003C0
00000000E000000003C0
00000001E000000003C0
00000001E000000003C0
00000001E000000003C0
00000001E000000003C0
00000001E000000003C0
00000001C00000000380
00000003C00000000380
00000003C00000000380
00000003C00000000780
00000003800000000780
00000007800000000780
00000007800000000780
00000007000000000700
0000000F000000000700
0000000E000000000F00
0000001E000000000F00
0000003C000000000F00
0000007C000000000E00
00000078000000001E00
000000F0000000001E00
000003E0000000001E00
000007C0000000003C00
00000F80000000003C00
00003F00000000003C00
00007E00000000007800
0001FC00000000007800
0003F00000000000F000
000FE00000000000F000
003F800000000000F000
00FF000000000001E000
03FC000000000003E000
0FF0000000000003C000
3FC00000000000078000
7F000000000000078000
FC0000000000000F0000
780000000000001E0000
780000000000003E0000
3C0000000000007C0000
3C000000000000F80000
1E000000000001F00000
1E000000000003E00000
0F000000000007C00000
0F00000000000F800000
0780000000001F000000
0780000000003E000000
03C000000000FC000000
03C000000001F8000000
01E000000003F0000000
01E00000000FE0000000
00F00000001F80000000
00F00000007F00000000
0078000000FC00000000
007C000003F800000000
003C00000FE000000000
003E00003FC000000000
001E00007F0000000000
001F0001FC0000000000
000F0007F80000000000
000F801FE00000000000
0007807F800000000000
0007C1FE000000000000
0003CFF8000000000000
0003FFE0000000000000
0001FF00000000000000
0001FC00000000000000
0000F000000000000000
ENDCHAR
STARTCHAR 004B
ENCODING 75
SWIDTH 722 0
DWIDTH 130 0
BBX 127 151 11 -2
BITMAP
7FFFFFFFFF800000003FFFFFFFFFFF00
FFFFFFFFFFC00000007FFFFFFFFFFF00
FFFFFFFFFFC00000007FFFFFFFFFFF00
FFFFFFFFFFC0000000FFFFFFFFFFFF00
E000000003C0000000F0000000001E00
E000000003C0000001E0000000001E00
E000000003C0000001E0000000003C00
E000000003C0000003C0000000003C00
E000000003C0000003C0000000007800
E000000003C00000078000000000F800
E000000003C00000078000000000F000
E000000003C000000F0000000001F000
E000000003C000000F0000000001E000
E000000003C000001E0000000003C000
E000000003C000001E0000000003C000
E000000003C000003C00000000078000
E000000003C000007C00000000078000
E000000003C0000078000000000F0000
E000000003C00000F8000000000F0000
E000000003C00000F0000000001E0000
E000000003C00001F0000000003E0000
E000000003C00001E0000000003C0000
E000000003C00003C0000000007C0000
E000000003C00003C000000000780000
E000000003C000078000000000F80000
E000000003C000078000000000F00000
E000000003C0000F0000000001E00000
E000000003C0000F0000000001E00000
E000000003C0001E0000000003C00000
E000000003C0001E0000000003C00000
E000000003C0003C0000000007800000
E000000003C0003C0000000007800000
E000000003C00078000000000F000000
E000000003C00078000000001F000000
E000000003C000F0000000001E000000
E000000003C000F0000000003E000000
E000000003C001E0000000003C000000
E000000003C003E00000000078000000
E000000003C003C00000000078000000
E000000003C007C000000000F0000000
E000000003C0078000000000F0000000
E000000003C00F8000000001E0000000
E000000003C00F0000000001E0000000
E000000003C01E0000000003C0000000
E000000003C01E0000000007C0000000
E000000003C03C000000000780000000
E000000003C03C000000000F80000000
E000000003C078000000000F00000000
E000000003C078000000001F00000000
E000000003C0F0000000001E00000000
E000000003C0F0000000003C00000000
E000000003C1E0000000003C00000000
E000000003C1E0000000007800000000
E000000003C3C0000000007800000000
E000000003C3C000000000F000000000
E000000003C78000000001F000000000
E000000003C78000000001E000000000
E000000003CF0000000003E000000000
E000000003DF0000000003C000000000
E000000003DE0000000007C000000000
E000000003FE00000000078000000000
E000000003FC000000000F0000000000
E000000003FC000000000F0000000000
E000000003F8000000001E0000000000
E000000003F0000000001E0000000000
E000000003F0000000003C0000000000
E000000003E0000000003C0000000000
E000000003E0000000003C0000000000
E000000003E0000000003E0000000000
E000000003E0000000001E0000000000
E000000003F0000000001F0000000000
E000000003F0000000000F0000000000
E000000003F0000000000F8000000000
E000000003F800000000078000000000
E000000003F80000000007C000000000
E000000003FC0000000003C000000000
E000000003DC0000000003E000000000
E000000003DE0000000001E000000000
E000000003DE0000000001F000000000
E000000003CF0000000000F000000000
E000000003CF0000000000F800000000
E000000003C780000000007800000000
E000000003C780000000007C00000000
E000000003C3C0000000003C00000000
E000000003C3C0000000003E00000000
E000000003C1E0000000001E00000000
E000000003C1E0000000000F00000000
E000000003C0F0000000000F00000000
E000000003C0F0000000000780000000
E000000003C078000000000780000000
E000000003C0780000000003C0000000
E000000003C03C0000000003C0000000
E000000003C03C0000000001E0000000
E000000003C01E0000000001E0000000
E000000003C01E0000000000F0000000
E000000003C00F0000000000F0000000
E000000003C00F000000000078000000
E000000003C007800000000078000000
E000000003C00780000000003C000000
E000000003C003C0000000003C000000
E000000003C003C0000000001E000000
E000000003C001E0000000001E000000
E000000003C001E0000000000F000000
E000000003C000F0000000000F000000
E000000003C000F00000000007800000
E000000003C000780000000007800000
E000000003C000780000000003C00000
E000000003C0003C0000000003E00000
E000000003C0003C0000000001E00000
E000000003C0001C0000000001F00000
E000000003C0001E0000000000F00000
E000000003C0000E0000000000F80000
E000000003C0000F0000000000780000
E000000003C0000F00000000007C0000
E000000003C0000780000000003C0000
E000000003C0000780000000003E0000
E000000003C00003C0000000001E0000
E000000003C00003C0000000001F0000
E000000003C00001E0000000000F0000
E000000003C00001E0000000000F8000
E000000003C00000F000000000078000
E000000003C00000F00000000007C000
E000000003C00000780000000003C000
E000000003C00000780000000003E000
E000000003C000003C0000000001E000
E000000003C000003C0000000001F000
E000000003C000001E0000000000F000
E000000003C000001E0000000000F800
E000000003C000000F00000000007800
E000000003C000000F00000000007C00
E000000003C000000780000000003C00
E000000003C000000780000000001E00
E000000003C0000003C0000000001E00
E000000003C0000003C0000000000F00
E000000003C0000001E0000000000F00
E000000003C0000001E0000000000780
E000000003C0000000F0000000000780
E000000003C0000000F00000000003C0
E000000003C0000000780000000003C0
E000000003C0000000780000000001E0
E000000003C00000003C0000000001E0
E000000003C00000003C0000000000F0
E000000003C00000001E0000000000F0
E000000003C00000001E000000000078
E000000003C00000000F000000000078
E000000003C00000000F00000000003C
E000000003C00000000700000000003C
FFFFFFFFFFC000000007FFFFFFFFFFFE
FFFFFFFFFFC000000007FFFFFFFFFFFE
FFFFFFFFFFC000000003FFFFFFFFFFFE
7FFFFFFFFF8000000001FFFFFFFFFFFC
ENDCHAR
STARTCHAR 004C
ENCODING 76
SWIDTH 538 0
DWIDTH 97 0
BBX 93 151 11 -2
BITMAP
7FFFFFFFFF80000000000000
FFFFFFFFFFC0000000000000
FFFFFFFFFFC0000000000000
FFFFFFFFFFC0000000000000
E000000003C0000000000000
E000000003C0000000000000
E000000003C0000000000000
E000000003C0000000000000
E000000003C0000000000000
E000000003C0000000000000
E000000003C0000000000000
E000000003C0000000000000
E000000003C0000000000000
E000000003C0000000000000
E000000003C0000000000000
E000000003C0000000000000
E000000003C0000000000000
E000000003C0000000000000
E000000003C0000000000000
E000000003C0000000000000
E000000003C0000000000000
E000000003C0000000000000
E000000003C0000000000000
E000000003C0000000000000
E000000003C0000000000000
E000000003C0000000000000
E000000003C0000000000000
E000000003C0000000000000
E000000003C0000000000000
E000000003C0000000000000
E000000003C0000000000000
E000000003C0000000000000
E000000003C0000000000000
E000000003C0000000000000
E000000003C0000000000000
E000000003C0000000000000
E000000003C0000000000000
E000000003C0000000000000
E000000003C0000000000000
E000000003C0000000000000
E000000003C0000000000000
E000000003C0000000000000
E000000003C0000000000000
E000000003C0000000000000
E000000003C0000000000000
E000000003C0000000000000
E000000003C0000000000000
E000000003C0000000000000
E000000003C0000000000000
E000000003C0000000000000
E000000003C0000000000000
E000000003C0000000000000
E000000003C0000000000000
E000000003C0000000000000
E000000003C0000000000000
E000000003C0000000000000
E000000003C0000000000000
E000000003C0000000000000
E000000003C0000000000000
E000000003C0000000000000
E000000003C0000000000000
E000000003C0000000000000
E000000003C0000000000000
E000000003C0000000000000
E000000003C0000000000000
E000000003C0000000000000
E000000003C0000000000000
E000000003C0000000000000
E000000003C0000000000000
E000000003C0000000000000
E000000003C0000000000000
E000000003C0000000000000
E000000003C0000000000000
E000000003C0000000000000
E000000003C0000000000000
E000000003C0000000000000
E000000003C0000000000000
E000000003C0000000000000
E000000003C0000000000000
E000000003C0000000000000
E000000003C0000000000000
E000000003C0000000000000
E000000003C0000000000000
E000000003C0000000000000
E000000003C0000000000000
E000000003C0000000000000
E000000003C0000000000000
E000000003C0000000000000
E000000003C0000000000000
E000000003C0000000000000
E000000003C0000000000000
E000000003C0000000000000
E000000003C0000000000000
E000000003C0000000000000
E000000003C0000000000000
E000000003C0000000000000
E000000003C0000000000000
E000000003C0000000000000
E000000003C0000000000000
E000000003C0000000000000
E000000003C0000000000000
E000000003C0000000000000
E000000003C0000000000000
E000000003C0000000000000
E000000003C0000000000000
E000000003C0000000000000
E000000003C0000000000000
E000000003C0000000000000
E000000003C0000000000000
E000000003C0000000000000
E000000003C0000000000000
E000000003C0000000000000
E000000003C0000000000000
E000000003C0000000000000
E000000003FFFFFFFFFFFFF0
E000000003FFFFFFFFFFFFF8
E000000003FFFFFFFFFFFFF0
E000000001FFFFFFFFFFFFF0
E000000000000000000000F0
E000000000000000000000F0
E000000000000000000001E0
E000000000000000000001E0
E000000000000000000001E0
E000000000000000000001E0
E000000000000000000003C0
E000000000000000000003C0
E000000000000000000003C0
E00000000000000000000380
E00000000000000000000780
E00000000000000000000780
E00000000000000000000780
E00000000000000000000F00
E00000000000000000000F00
E00000000000000000000F00
E00000000000000000000F00
E00000000000000000001E00
E00000000000000000001E00
E00000000000000000001E00
E00000000000000000001C00
E00000000000000000003C00
E00000000000000000003C00
E00000000000000000003C00
E00000000000000000003800
E00000000000000000007800
E00000000000000000007800
E00000000000000000007800
E0000000000000000000F000
FFFFFFFFFFFFFFFFFFFFF000
FFFFFFFFFFFFFFFFFFFFF000
FFFFFFFFFFFFFFFFFFFFE000
7FFFFFFFFFFFFFFFFFFFC000
ENDCHAR
STARTCHAR 004D
ENCODING 77
SWIDTH 900 0
DWIDTH 162 0
BBX 140 151 11 -2
BITMAP
7FFFFFFFFE0000000000000007FFFFFFFFE0
FFFFFFFFFF000000000000000FFFFFFFFFF0
FFFFFFFFFF800000000000001FFFFFFFFFF0
FFFFFFFFFFC00000000000003FFFFFFFFFF0
F000000003C00000000000003C00000000F0
F000000001E00000000000007800000000F0
F000000001F0000000000000F800000000F0
F000000000F8000000000001F000000000F0
F00000000078000000000001E000000000F0
F0000000003C000000000003C000000000F0
F0000000003E000000000007C000000000F0
F0000000001F00000000000F8000000000F0
F0000000000F00000000000F0000000000F0
F0000000000F80000000001E0000000000F0
F00000000007C0000000003E0000000000F0
F00000000003C0000000007C0000000000F0
F00000000001E000000000780000000000F0
F00000000001F000000000F00000000000F0
F00000000000F800000001F00000000000F0
F000000000007800000003E00000000000F0
F000000000003C00000003C00000000000F0
F000000000003E00000007800000000000F0
F000000000001E0000000F800000000000F0
F000000000000F0000001F000000000000F0
F000000000000F8000001E000000000000F0
F0000000000007C000003C000000000000F0
F0000000000003C000007C000000000000F0
F0000000000001E00000F8000000000000F0
F0000000000001F00000F0000000000000F0
F0000000000000F80001E0000000000000F0
F0000000000000780003E0000000000000F0
F00000000000003C0007C0000000000000F0
F00000000000003E000780000000000000F0
F00000000000001E000F80000000000000F0
F00000000000000F001F00000000000000F0
F00000000000000F801E00000000000000F0
F000000000000007C03C00000000000000F0
F000000000000003C07C00000000000000F0
F000000000000001E0F800000000000000F0
F000000000000001F0F000000000000000F0
F000000000000000F9E000000000000000F0
F0000000000000007BE000000000000000F0
F0000000000000007FC000000000000000F0
F0000000000000003F8000000000000000F0
F0000000000000001F0000000000000000F0
F0000000000000000F0000000000000000F0
F0000000000000000E0000000000000000F0
F000000000000000000000000000000000F0
F000000000000000000000000000000000F0
F000000000000000000000000000000000F0
F000000000000000000000000000000000F0
F000000000000000000000000000000000F0
F000000000000000000000000000000000F0
F000000000000000000000000000000000F0
F000000000000000000000000000000000F0
F000000000000000000000000000000000F0
F000000000000000000000000000000000F0
F000000000000000000000000000000000F0
F000000000C00000000000001000000000F0
F000000001C00000000000003800000000F0
F000000003E00000000000007C00000000F0
F000000003F0000000000000FC00000000F0
F000000003F8000000000001FC00000000F0
F000000003F8000000000001FC00000000F0
F000000003FC000000000003FC00000000F0
F000000003FE000000000007BC00000000F0
F000000003DF00000000000FBC00000000F0
F000000003CF00000000000F3C00000000F0
F000000003C780000000001E3C00000000F0
F000000003C7C0000000003C3C00000000F0
F000000003C3E0000000007C3C00000000F0
F000000003C1E000000000783C00000000F0
F000000003C1F000000000F03C00000000F0
F000000003C0F800000001E03C00000000F0
F000000003C07800000003E03C00000000F0
F000000003C03C00000003C03C00000000F0
F000000003C03E00000007803C00000000F0
F000000003C01F0000000F003C00000000F0
F000000003C00F0000001F003C00000000F0
F000000003C0078000001E003C00000000F0
F000000003C007C000003C003C00000000F0
F000000003C003E0000078003C00000000F0
F000000003C001E00000F8003C00000000F0
F000000003C000F00000F0003C00000000F0
F000000003C000F80001E0003C00000000F0
F000000003C0007C0003C0003C00000000F0
F000000003C0003C0007C0003C00000000F0
F000000003C0003E000F80003C00000000F0
F000000003C0001F000F00003C00000000F0
F000000003C0000F001F00003C00000000F0
F000000003C00007803E00003C00000000F0
F000000003C00007C07C00003C00000000F0
F000000003C00003E07800003C00000000F0
F000000003C00001E0F800003C00000000F0
F000000003C00000F1F000003C00000000F0
F000000003C00000FBE000003C00000000F0
F000000003C000007FC000003C00000000F0
F000000003C000003FC000003C00000000F0
F000000003C000001F8000003C00000000F0
F000000003C000001F0000003C00000000F0
F000000003C000000E0000003C00000000F0
F000000003C00000000000003C00000000F0
F000000003C00000000000003C00000000F0
F000000003C00000000000003C00000000F0
F000000003C00000000000003C00000000F0
F000000003C00000000000003C00000000F0
F000000003C00000000000003C00000000F0
F000000003C00000000000003C00000000F0
F000000003C00000000000003C00000000F0
F000000003C00000000000003C00000000F0
F000000003C00000000000003C00000000F0
F000000003C00000000000003C00000000F0
F000000003C00000000000003C00000000F0
F000000003C00000000000003C00000000F0
F000000003C00000000000003C00000000F0
F000000003C00000000000003C00000000F0
F000000003C00000000000003C00000000F0
F000000003C00000000000003C00000000F0
F000000003C00000000000003C00000000F0
F000000003C00000000000003C00000000F0
F000000003C00000000000003C00000000F0
F000000003C00000000000003C00000000F0
F000000003C00000000000003C00000000F0
F000000003C00000000000003C00000000F0
F000000003C00000000000003C00000000F0
F000000003C00000000000003C00000000F0
F000000003C00000000000003C00000000F0
F000000003C00000000000003C00000000F0
F000000003C00000000000003C00000000F0
F000000003C00000000000003C00000000F0
F000000003C00000000000003C00000000F0
F000000003C00000000000003C00000000F0
F000000003C00000000000003C00000000F0
F000000003C00000000000003C00000000F0
F000000003C00000000000003C00000000F0
F000000003C00000000000003C00000000F0
F000000003C00000000000003C00000000F0
F000000003C00000000000003C00000000F0
F000000003C00000000000003C00000000F0
F000000003C00000000000003C00000000F0
F000000003C00000000000003C00000000F0
F000000003C00000000000003C00000000F0
F000000003C00000000000003C00000000F0
F000000003C00000000000003C00000000F0
F000000003C00000000000003C00000000F0
F000000003C00000000000003C00000000F0
F000000003C00000000000003C00000000F0
FFFFFFFFFFC00000000000003FFFFFFFFFF0
FFFFFFFFFFC00000000000003FFFFFFFFFF0
FFFFFFFFFFC00000000000003FFFFFFFFFF0
7FFFFFFFFF800000000000001FFFFFFFFFE0
ENDCHAR
STARTCHAR 004E
ENCODING 78
SWIDTH 800 0
DWIDTH 144 0
BBX 122 151 11 -2
BITMAP
7FFFFFFFFF00000000007FFFFFFFFF80
FFFFFFFFFF8000000000FFFFFFFFFFC0
FFFFFFFFFFC000000000FFFFFFFFFFC0
FFFFFFFFFFE000000000FFFFFFFFFFC0
F000000003E000000000E000000003C0
F000000001F000000000E000000003C0
F000000000F800000000E000000003C0
F0000000007C00000000E000000003C0
F0000000003E00000000E000000003C0
F0000000001F00000000E000000003C0
F0000000000F80000000E000000003C0
F0000000000F80000000E000000003C0
F00000000007C0000000E000000003C0
F00000000003E0000000E000000003C0
F00000000001F0000000E000000003C0
F00000000000F8000000E000000003C0
F000000000007C000000E000000003C0
F000000000003E000000E000000003C0
F000000000003E000000E000000003C0
F000000000001F000000E000000003C0
F000000000000F800000E000000003C0
F0000000000007C00000E000000003C0
F0000000000003E00000E000000003C0
F0000000000001F00000E000000003C0
F0000000000001F80000E000000003C0
F0000000000000F80000E000000003C0
F00000000000007C0000E000000003C0
F00000000000003E0000E000000003C0
F00000000000001F0000E000000003C0
F00000000000000F8000E000000003C0
F000000000000007C000E000000003C0
F000000000000007E000E000000003C0
F000000000000003E000E000000003C0
F000000000000001F000E000000003C0
F000000000000000F800E000000003C0
F0000000000000007C00E000000003C0
F0000000000000003E00E000000003C0
F0000000000000001F00E000000003C0
F0000000000000001F80E000000003C0
F0000000000000000F80E000000003C0
F00000000000000007C0E000000003C0
F00000000000000003E0E000000003C0
F00000000000000001F0E000000003C0
F00000000000000000F8E000000003C0
F000000000000000007CE000000003C0
F000000000000000007EE000000003C0
F000000000000000003EE000000003C0
F000000000000000001FE000000003C0
F000000000000000000FE000000003C0
F0000000000000000007E000000003C0
F0000000000000000003E000000003C0
F0000000000000000001E000000003C0
F0000000000000000001E000000003C0
F0000000000000000000E000000003C0
F000000000C0000000000000000003C0
F000000001E0000000000000000003C0
F000000001E0000000000000000003C0
F000000001F0000000000000000003C0
F000000001F8000000000000000003C0
F000000001FC000000000000000003C0
F000000001FE000000000000000003C0
F000000001DF000000000000000003C0
F000000001CF000000000000000003C0
F000000001CF800000000000000003C0
F000000001C7C00000000000000003C0
F000000001C3E00000000000000003C0
F000000001C1F00000000000000003C0
F000000001C0F80000000000000003C0
F000000001C0780000000000000003C0
F000000001C07C0000000000000003C0
F000000001C03E0000000000000003C0
F000000001C01F0000000000000003C0
F000000001C00F8000000000000003C0
F000000001C0078000000000000003C0
F000000001C003C000000000000003C0
F000000001C003E000000000000003C0
F000000001C001F000000000000003C0
F000000001C000F800000000000003C0
F000000001C0007C00000000000003C0
F000000001C0003C00000000000003C0
F000000001C0003E00000000000003C0
F000000001C0001F00000000000003C0
F000000001C0000F80000000000003C0
F000000001C00007C0000000000003C0
F000000001C00003E0000000000003C0
F000000001C00001E0000000000003C0
F000000001C00001F0000000000003C0
F000000001C00000F8000000000003C0
F000000001C000007C000000000003C0
F000000001C000003E000000000003C0
F000000001C000001E000000000003C0
F000000001C000001F000000000003C0
F000000001C000000F800000000003C0
F000000001C0000007C00000000003C0
F000000001C0000003E00000000003C0
F000000001C0000001F00000000003C0
F000000001C0000000F00000000003C0
F000000001C0000000F80000000003C0
F000000001C00000007C0000000003C0
F000000001C00000003E0000000003C0
F000000001C00000001F0000000003C0
F000000001C00000000F0000000003C0
F000000001C0000000078000000003C0
F000000001C000000007C000000003C0
F000000001C000000003E000000003C0
F000000001C000000001E000000003C0
F000000001C000000000E000000003C0
F000000001C000000000E000000003C0
F000000001C000000000E000000003C0
F000000001C000000000E000000003C0
F000000001C000000000E000000003C0
F000000001C000000000E000000003C0
F000000001C000000000E000000003C0
F000000001C000000000E000000003C0
F000000001C000000000E000000003C0
F000000001C000000000E000000003C0
F000000001C000000000E000000003C0
F000000001C000000000E000000003C0
F000000001C000000000E000000003C0
F000000001C000000000E000000003C0
F000000001C000000000E000000003C0
F000000001C000000000E000000003C0
F000000001C000000000E000000003C0
F000000001C000000000E000000003C0
F000000001C000000000E000000003C0
F000000001C000000000E000000003C0
F000000001C000000000E000000003C0
F000000001C000000000E000000003C0
F000000001C000000000E000000003C0
F000000001C000000000E000000003C0
F000000001C000000000E000000003C0
F000000001C000000000E000000003C0
F000000001C000000000E000000003C0
F000000001C000000000E000000003C0
F000000001C000000000E000000003C0
F000000001C000000000E000000003C0
F000000001C000000000E000000003C0
F000000001C000000000E000000003C0
F000000001C000000000E000000003C0
F000000001C000000000E000000003C0
F000000001C000000000E000000003C0
F000000001C000000000E000000003C0
F000000001C000000000E000000003C0
F000000001C000000000E000000003C0
F000000001C000000000E000000003C0
F000000001C000000000E000000003C0
F000000001C000000000E000000003C0
FFFFFFFFFFC000000000FFFFFFFFFFC0
FFFFFFFFFFC000000000FFFFFFFFFFC0
FFFFFFFFFFC000000000FFFFFFFFFFC0
3FFFFFFFFF80000000007FFFFFFFFF80
ENDCHAR
STARTCHAR 004F
ENCODING 79
SWIDTH 800 0
DWIDTH 144 0
BBX 138 157 3 -6
BITMAP
000000000000003FFFFF0000000000000000
0000000000007FFFFFFFFF80000000000000
00000000001FFFFFFFFFFFFE000000000000
0000000001FFFFFFFFFFFFFFE00000000000
000000000FFFFC0000000FFFFC0000000000
000000007FFE00000000001FFF8000000000
00000003FFC0000000000000FFE000000000
0000000FFC000000000000000FFC00000000
0000003FE00000000000000001FE00000000
0000007F8000000000000000007F80000000
000001FC0000000000000000001FE0000000
000003F000000000000000000007F0000000
00000FE000000000000000000001FC000000
00001F80000000000000000000007E000000
00003F00000000000000000000003F000000
00007C00000000000000000000001F800000
0000F8000000000000000000000007C00000
0001F0000000000000000000000003E00000
0003E0000000000000000000000001F00000
0003C0000000000000000000000000F00000
000780000000000000000000000000F80000
000F000000000000000000000000007C0000
001F000000000000000000000000003C0000
001E000000000000000000000000001E0000
003C000000000000000000000000001F0000
007C000000000000000000000000000F0000
007800000000000000000000000000078000
00F00000000000000000000000000007C000
00F00000000000000000000000000003C000
01E00000000000000000000000000001E000
01E00000000000000000000000000001E000
03C00000000000000000000000000000F000
03C00000000000000000000000000000F000
078000000000000000000000000000007000
07800000000000000C000000000000007800
070000000000003FFFFF0000000000007800
0F000000000003FFFFFFF000000000003C00
0F00000000000FFFFFFFFC00000000003C00
1E00000000003FFC000FFF00000000001C00
1E0000000000FF8000007F80000000001E00
1E0000000001FC0000000FE0000000001E00
1C0000000003F000000003F0000000000E00
3C0000000007E000000001F8000000000F00
3C0000000007800000000078000000000F00
3C000000000F00000000007C000000000F00
38000000001F00000000003E000000000700
78000000001E00000000001E000000000700
78000000001E00000000001E000000000780
78000000003C00000000000F000000000780
78000000003C00000000000F000000000780
70000000003800000000000F000000000780
700000000078000000000007800000000380
700000000078000000000007800000000380
700000000078000000000007800000000380
F000000000700000000000078000000003C0
F000000000700000000000038000000003C0
F000000000700000000000038000000003C0
F000000000700000000000038000000003C0
F000000000F0000000000003C000000003C0
F000000000F0000000000003C000000003C0
F000000000F0000000000003C000000003C0
F000000000F0000000000003C000000003C0
F000000000F0000000000003C000000003C0
F000000000F0000000000003C000000003C0
F000000000F0000000000003C000000003C0
F000000000F00000000000038000000003C0
F000000000F00000000000038000000003C0
F000000000F00000000000038000000003C0
F00000000070000000000003800000000380
700000000070000000000003800000000380
700000000070000000000003800000000380
700000000070000000000007800000000380
700000000078000000000007800000000780
780000000078000000000007800000000780
780000000078000000000007800000000780
780000000078000000000007800000000780
780000000078000000000007800000000780
780000000038000000000007000000000700
380000000038000000000007000000000700
38000000003C00000000000F000000000F00
3C000000003C00000000000F000000000F00
3C000000003C00000000000F000000000F00
3C000000003C00000000000E000000000F00
3C000000001C00000000000E000000000E00
1C000000001E00000000001E000000000E00
1E000000001E00000000001E000000001E00
1E000000001E00000000001E000000001E00
1E000000000E00000000001C000000001E00
1E000000000F00000000003C000000001C00
0F000000000F00000000003C000000003C00
0F000000000F000000000038000000003C00
0F0000000007000000000078000000003C00
070000000007800000000078000000003800
078000000007800000000078000000007800
0780000000078000000000F0000000007800
078000000003C000000000F0000000007800
038000000003C000000000F0000000007000
03C000000001E000000001E000000000F000
03C000000001E000000001E000000000F000
01C000000001E000000001C000000000E000
01E000000000F000000003C000000001E000
01E000000000F000000003C000000001E000
00E00000000078000000078000000003C000
00F00000000078000000078000000003C000
00F000000000780000000F0000000003C000
0070000000003C0000000F00000000078000
0078000000003C0000001E00000000078000
0078000000001E0000001E00000000070000
003C000000001F0000003C000000000F0000
003C000000000F0000003C000000000F0000
001E000000000780000078000000001E0000
001E0000000007800000F8000000001E0000
000F0000000003C00000F0000000003C0000
000F0000000001E00001E0000000003C0000
00078000000001F00003E000000000780000
00078000000000F80007C000000000780000
0003C0000000007C000F8000000000F00000
0003C0000000003F003F0000000000F00000
0001E0000000001FC1FE0000000001E00000
0001E0000000000FFFFC0000000001E00000
0000F00000000003FFF00000000003C00000
0000F00000000000FFC00000000003C00000
000078000000000000000000000007800000
00007800000000000000000000000F000000
00003C00000000000000000000000F000000
00001E00000000000000000000001E000000
00001E00000000000000000000003E000000
00000F00000000000000000000003C000000
00000F800000000000000000000078000000
0000078000000000000000000000F8000000
000003C000000000000000000000F0000000
000003E000000000000000000001E0000000
000001F000000000000000000003E0000000
000000F000000000000000000007C0000000
000000780000000000000000000780000000
0000007C0000000000000000000F00000000
0000003E0000000000000000001F00000000
0000001F0000000000000000003E00000000
0000000F8000000000000000007C00000000
00000007C00000000000000000F800000000
00000003E00000000000000001F000000000
00000003F00000000000000003E000000000
00000001F80000000000000007C000000000
000000007C000000000000000F8000000000
000000003F000000000000003F0000000000
000000001F800000000000007E0000000000
000000000FE0000000000001FC0000000000
0000000007F0000000000007F00000000000
0000000001FC00000000001FE00000000000
00000000007F80000000007F800000000000
00000000003FE000000001FE000000000000
00000000000FFE0000001FF8000000000000
000000000003FFE00001FFE0000000000000
0000000000007FFFFFFFFF80000000000000
0000000000000FFFFFFFFC00000000000000
00000000000000FFFFFFC000000000000000
0000000000000003FFF80000000000000000
ENDCHAR
STARTCHAR 0050
ENCODING 80
SWIDTH 700 0
DWIDTH 126 0
BBX 121 151 4 -2
BITMAP
003FFFFFFFFFFFFFFFFC000000000000
007FFFFFFFFFFFFFFFFFFC0000000000
007FFFFFFFFFFFFFFFFFFFC000000000
007FFFFFFFFFFFFFFFFFFFFC00000000
00F000000000000000003FFF80000000
00F0000000000000000000FFE0000000
00F00000000000000000001FF8000000
01E000000000000000000003FE000000
01E0000000000000000000007F000000
01E0000000000000000000001F800000
01E0000000000000000000000FE00000
03C00000000000000000000003F00000
03C00000000000000000000001F80000
03C00000000000000000000000F80000
038000000000000000000000007C0000
078000000000000000000000003E0000
078000000000000000000000001F0000
078000000000000000000000000F8000
07000000000000000000000000078000
0F00000000000000000000000003C000
0F00000000000000000000000003E000
0F00000000000000000000000001E000
1E00000000000000000000000001F000
1E00000000000000000000000000F000
1E000000000000000000000000007800
1E000000000000000000000000007800
3C000000000000000000000000003C00
3C000000000000000000000000003C00
3C000000000000000000000000003C00
38000000000000000000000000001E00
78000000000000000000000000001E00
78000000000000000000000000001E00
78000000000000000000000000000E00
FFFFFFFFFFFFFFFC0000000000000F00
FFFFFFFFFFFFFFFFFE00000000000F00
FFFFFFFFFFFFFFFFFFC0000000000F00
7FFFFFFFFFFFFFFFFFF0000000000700
00000000000000000FFC000000000700
00FFFFFFFFFF800000FE000000000700
01FFFFFFFFFF8000003F000000000780
01FFFFFFFFFF8000000F000000000780
01E00000000380000007800000000780
01E00000000380000007800000000780
01E00000000380000007800000000780
01E00000000380000003800000000780
01E00000000380000003800000000780
01E00000000380000003800000000780
01E00000000380000003800000000700
01E00000000380000007800000000700
01E00000000380000007800000000700
01E00000000380000007800000000F00
01E00000000380000007000000000F00
01E0000000038000000F000000000F00
01E0000000038000000F000000000E00
01E0000000038000001E000000001E00
01E0000000038000001E000000001E00
01E0000000038000003C000000001E00
01E00000000380000078000000001C00
01E000000003800000F8000000003C00
01E000000003800001F0000000003C00
01E000000003800003E0000000003800
01E000000003800007C0000000007800
01E00000000380000F80000000007800
01E00000000380001F0000000000F000
01E00000000380003E0000000000F000
01E00000000380007C0000000001E000
01E0000000038001F80000000001E000
01E0000000038003F00000000003C000
01E0000000038007E00000000003C000
01E000000003801F8000000000078000
01E000000003803F0000000000078000
01E00000000380FE00000000000F0000
01E00000000381F800000000001E0000
01E00000000387F000000000003E0000
01E0000000038FE000000000003C0000
01E000000003BF800000000000780000
01E000000003FE000000000000F80000
01E000000003FC000000000001F00000
01E000000003F0000000000003E00000
01E000000003C0000000000003C00000
01E00000000000000000000007800000
01E0000000000000000000000F800000
01E0000000000000000000001F000000
01E0000000000000000000003E000000
01E000000000000000000000FC000000
01E000000000000000000001F8000000
01E000000000000000000003F0000000
01E000000000000000000007E0000000
01E00000000000000000000FC0000000
01E00000000000000000001F00000000
01E00000000000000000003E00000000
01E0000000000000000000FC00000000
01E0000000000000000001F800000000
01E0000000000000000003F000000000
01E000000000000000000FC000000000
01E000000000000000001F8000000000
01E000000000000000003F0000000000
01E00000000000000000FC0000000000
01E00000000000000001F80000000000
01E00000000000000007F00000000000
01E0000000000000000FC00000000000
01E0000000000000003F000000000000
01E000000000000000FE000000000000
01E000000000000003F8000000000000
01E000000000000007F0000000000000
01E00000000000001FC0000000000000
01E00000000000007F00000000000000
01E0000000000001FC00000000000000
01E0000000000007F800000000000000
01E000000000001FE000000000000000
01E000000000007F8000000000000000
01E00000000001FE0000000000000000
01E00000000007F80000000000000000
01E0000000003FE00000000000000000
01E000000000FF000000000000000000
01E000000003FC000000000000000000
01E000000003F0000000000000000000
01E000000003C0000000000000000000
01E00000000380000000000000000000
01E00000000380000000000000000000
01E00000000380000000000000000000
01E00000000380000000000000000000
01E00000000380000000000000000000
01E00000000380000000000000000000
01E00000000380000000000000000000
01E00000000380000000000000000000
01E00000000380000000000000000000
01E00000000380000000000000000000
01E00000000380000000000000000000
01E00000000380000000000000000000
01E00000000380000000000000000000
01E00000000380000000000000000000
01E00000000380000000000000000000
01E00000000380000000000000000000
01E00000000380000000000000000000
01E00000000380000000000000000000
01E00000000380000000000000000000
01E00000000380000000000000000000
01E00000000380000000000000000000
01E00000000380000000000000000000
01E00000000380000000000000000000
01E00000000380000000000000000000
01E00000000380000000000000000000
01E00000000380000000000000000000
01E00000000380000000000000000000
01E00000000380000000000000000000
01E00000000380000000000000000000
01FFFFFFFFFF80000000000000000000
01FFFFFFFFFF80000000000000000000
01FFFFFFFFFF80000000000000000000
007FFFFFFFFF80000000000000000000
ENDCHAR
STARTCHAR 0051
ENCODING 81
SWIDTH 800 0
DWIDTH 144 0
BBX 138 154 3 -2
BITMAP
000000000000003FFFFF0000000000000000
0000000000007FFFFFFFFF80000000000000
00000000001FFFFFFFFFFFFC000000000000
0000000001FFFFFFFFFFFFFFC00000000000
000000000FFFF80000000FFFFC0000000000
000000007FFE00000000001FFF8000000000
00000003FFC0000000000000FFE000000000
0000000FFC000000000000001FF800000000
0000003FE00000000000000003FE00000000
000000FF8000000000000000007F80000000
000001FC0000000000000000001FC0000000
000007F000000000000000000007F0000000
00000FE000000000000000000001F8000000
00001F8000000000000000000000FC000000
00003E00000000000000000000003E000000
00007C00000000000000000000001F000000
0000F800000000000000000000000F800000
0001F0000000000000000000000007C00000
0003E0000000000000000000000003E00000
0007C0000000000000000000000001F00000
000780000000000000000000000000F00000
000F00000000000000000000000000780000
001F000000000000000000000000007C0000
003E000000000000000000000000003C0000
003C000000000000000000000000001E0000
0078000000000000000000000000000F0000
0078000000000000000000000000000F0000
00F000000000000000000000000000078000
00F000000000000000000000000000078000
01E00000000000000000000000000003C000
01E00000000000000000000000000003C000
03C00000000000000000000000000001E000
03C00000000000000000000000000001E000
07800000000000000000000000000000F000
07800000000000000C00000000000000F000
0F0000000000007FFFFF0000000000007800
0F000000000003FFFFFFE000000000007800
0E00000000001FFFFFFFFC00000000007800
1E00000000007FFC000FFF00000000003C00
1E0000000000FF0000007F80000000003C00
1C0000000003F80000000FE0000000003C00
3C0000000007E000000003F0000000001C00
3C000000000FC000000001F0000000001E00
3C000000000F8000000000F8000000001E00
38000000001F00000000007C000000000E00
78000000001E00000000003C000000000E00
78000000003C00000000001E000000000F00
78000000003C00000000001E000000000F00
78000000007800000000000F000000000F00
70000000007800000000000F000000000F00
70000000007000000000000F000000000700
700000000070000000000007000000000700
F000000000F0000000000007800000000700
F000000000F0000000000007800000000780
F000000000F0000000000007800000000780
F000000000E0000000000007800000000780
F000000000E0000000000003800000000780
F000000000E0000000000003800000000780
F000000000E0000000000003800000000780
F000000000E0000000000003800000000780
F000000001E0000000000003800000000780
F000000001E0000000000003800000000780
F000000001E0000000000003800000000780
F000000001E0000000000003800000000780
F000000000E0000000000003800000000780
F000000000E0000000000003800000000780
F000000000E0000000000003800000000780
F000000000E0000000000007800000000780
F000000000F0000000000007800000000780
F000000000F0000000000007800000000700
F000000000F0000000000007800000000700
F000000000F0000000000007800000000700
7000000000F0000000000007800000000700
700000000070000000000007000000000F00
700000000070000000000007000000000F00
70000000007800000000000F000000000F00
78000000007800000000000F000000000F00
78000000007800000000000F000000000E00
78000000007800000000000E000000000E00
78000000003800000000000E000000001E00
78000000003C00000000001E000000001E00
38000000003C00000000001E000000001E00
38000000003C00000000001E000000001C00
3C000000001C00000000001C000000003C00
3C000000001E00000000003C000000003C00
3C000000001E00000000003C000000003C00
3C000000001E00000000003C000000003800
1C000000000E000000000078000000007800
1E000000000F000000000078000000007800
1E000000000F000000000078000000007000
1E000000000F00000000007000000000F000
0E00000000078000000000F000000000F000
0F00000000078000000000F000000000E000
0F00000000038000000000E000000001E000
0F0000000003C000000001E000000001E000
070000000003C000000001E000000001C000
078000000001C000000003C000000003C000
078000000001E000000003C000000003C000
078000000001E00000000380000000038000
03C000000000F00000000780000000078000
03C000000000F00000000780000000070000
03C000000000780000000F000000000F0000
01E000000000780000000F000000000F0000
01E0000000003C0000001E000000001E0000
00F0000000003C0000001E000000001E0000
00F0000000001E0000003C000000003C0000
00F0000000001E0000007C000000003C0000
0078000000000F0000007800000000780000
0078000000000F800000F000000000780000
003C0000000007800001F000000000F00000
003C0000000007C00001E000000001F00000
001E0000000003E00003C000000001E00000
001E0000000001F00007C000000003C00000
001F0000000000F8000F8000000007C00000
000F00000000007E003F0000000007800000
000F80000000003F80FE000000000F800000
000780000000001FFFFC000000001F000000
0003C0000000000FFFF0000000001FFFFF80
0003C00000000001FFC0000000003FFFFFC0
0001E000000000001800000000003FFFFFC0
0001F000000000000000000000001FFFFF80
0000F0000000000000000000000000000780
0000F8000000000000000000000000000780
000078000000000000000000000000000780
00003C000000000000000000000000000F00
00003E000000000000000000000000000F00
00001F000000000000000000000000000F00
00000F000000000000000000000000000F00
00000F800000000000000000000000001E00
000007C00000000000000000000000001E00
000003E00000000000000000000000001E00
000001F00000000000000000000000001C00
000000F00000000000000000000000003C00
000000F80000000000000000000000003C00
0000007C0000000000000000000000003C00
0000003E0000000000000000000000007800
0000001F0000000000000000000000007800
0000000F8000000000000000000000007800
00000007E000000000000000000000007800
00000003F00000000000000000000000F000
00000001F80000000000000000000000F000
000000007E0000000000000000000000F000
000000003F0000000000000000000000E000
000000001FC000000000000000000001E000
0000000007F000000000000000000001E000
0000000003FC00000000000000000001E000
0000000000FF00000000000000000001C000
00000000003FE0000000000000000003C000
00000000000FFE000000000000000003C000
000000000003FFE00000000000000003C000
0000000000007FFFFFFFFFFFFFFFFFFF8000
0000000000000FFFFFFFFFFFFFFFFFFF8000
00000000000000FFFFFFFFFFFFFFFFFF8000
00000000000000001FFFFFFFFFFFFFFF0000
ENDCHAR
STARTCHAR 0052
ENCODING 82
SWIDTH 761 0
DWIDTH 137 0
BBX 139 173 4 -25
BITMAP
003FFFFFFFFFFFFFFFFFFF00000000000000
007FFFFFFFFFFFFFFFFFFFFF000000000000
007FFFFFFFFFFFFFFFFFFFFFF00000000000
007FFFFFFFFFFFFFFFFFFFFFFF0000000000
00F00000000000000000000FFFC000000000
00F0000000000000000000003FF000000000
00F00000000000000000000007FC00000000
01E00000000000000000000000FE00000000
01E000000000000000000000003F80000000
01E000000000000000000000000FC0000000
01E0000000000000000000000003E0000000
03C0000000000000000000000001F0000000
03C0000000000000000000000000F8000000
03C00000000000000000000000007C000000
03800000000000000000000000003E000000
07800000000000000000000000001F000000
07800000000000000000000000000F000000
078000000000000000000000000007800000
070000000000000000000000000007C00000
0F0000000000000000000000000003E00000
0F0000000000000000000000000001E00000
0F0000000000000000000000000001F00000
1E0000000000000000000000000000F00000
1E0000000000000000000000000000780000
1E0000000000000000000000000000780000
1E00000000000000000000000000003C0000
3C00000000000000000000000000003C0000
3C00000000000000000000000000003C0000
3C00000000000000000000000000001E0000
3800000000000000000000000000001E0000
7800000000000000000000000000000E0000
7800000000000000000000000000000F0000
7800000000000000000000000000000F0000
FFFFFFFFFFFFFFFFF80000000000000F0000
FFFFFFFFFFFFFFFFFFF000000000000F0000
FFFFFFFFFFFFFFFFFFFE00000000000F0000
7FFFFFFFFFFFFFFFFFFF80000000000F0000
0000000000000000007FC000000000070000
00FFFFFFFFFF80000007E000000000070000
01FFFFFFFFFF80000001F000000000070000
01FFFFFFFFFF80000000F000000000070000
01E000000003800000007000000000070000
01E000000003800000007800000000070000
01E000000003800000007800000000070000
01E0000000038000000078000000000F0000
01E0000000038000000078000000000F0000
01E0000000038000000078000000000F0000
01E0000000038000000070000000000F0000
01E0000000038000000070000000000F0000
01E00000000380000000F0000000000E0000
01E00000000380000000F0000000000E0000
01E00000000380000001E0000000001E0000
01E00000000380000001E0000000001E0000
01E00000000380000003C0000000001C0000
01E0000000038000000780000000003C0000
01E0000000038000000F80000000003C0000
01E0000000038000001F0000000000380000
01E0000000038000003E0000000000780000
01E0000000038000003C0000000000780000
01E000000003800000780000000000F00000
01E000000003800001F80000000000F00000
01E000000003800003F00000000001E00000
01E000000003800007E00000000003E00000
01E00000000380000F800000000003C00000
01E00000000380001F000000000007800000
01E00000000380003E00000000000F800000
01E0000000038000FC00000000001F000000
01E0000000038001F800000000001E000000
01E0000000038003F000000000003C000000
01E000000003800FC000000000007C000000
01E000000003801F800000000000F8000000
01E000000003803F000000000001F0000000
01E00000000380FC000000000003E0000000
01E00000000381F8000000000007C0000000
01E00000000387E000000000000F80000000
01E0000000038FC000000000001F00000000
01E000000003BF8000000000003E00000000
01E000000003FE000000000000FC00000000
01E000000003FC000000000001F800000000
01E000000003F0000000000003F000000000
01E000000003E0000000000007C000000000
01E000000003F000000000001F8000000000
01E000000003F000000000003F0000000000
01E000000003F00000000000FC0000000000
01E000000003F80000000001F80000000000
01E000000003F80000000003F00000000000
01E000000003BC0000000007C00000000000
01E000000003BC0000000007800000000000
01E0000000039E0000000003C00000000000
01E0000000039E0000000003C00000000000
01E0000000038F0000000001E00000000000
01E0000000038F0000000001E00000000000
01E000000003878000000000F00000000000
01E000000003878000000000F80000000000
01E00000000383C000000000780000000000
01E00000000383C0000000003C0000000000
01E00000000381E0000000003C0000000000
01E00000000381E0000000001E0000000000
01E00000000380F0000000001E0000000000
01E00000000380F0000000000F0000000000
01E0000000038078000000000F0000000000
01E000000003807800000000078000000000
01E000000003803C0000000007C000000000
01E000000003803C0000000003C000000000
01E000000003801E0000000001E000000000
01E000000003801E0000000001F000000000
01E000000003800F0000000000F000000000
01E000000003800F00000000007800000000
01E000000003800780000000007800000000
01E000000003800780000000003C00000000
01E0000000038003C0000000003E00000000
01E0000000038003C0000000001E00000000
01E0000000038001E0000000000F00000000
01E0000000038001F0000000000F80000000
01E0000000038000F0000000000780000000
01E0000000038000F80000000003C0000000
01E0000000038000780000000003E0000000
01E00000000380003C0000000001E0000000
01E00000000380003C0000000000F0000000
01E00000000380001E0000000000F8000000
01E00000000380001E000000000078000000
01E00000000380000F00000000003C000000
01E00000000380000F80000000003E000000
01E00000000380000780000000001F000000
01E000000003800003C0000000000F000000
01E000000003800003C00000000007800000
01E000000003800001E00000000007C00000
01E000000003800001F00000000003C00000
01E000000003800000F00000000001E00000
01E000000003800000780000000000F00000
01E000000003800000780000000000F80000
01E0000000038000003C00000000007C0000
01E0000000038000003E00000000003C0000
01E0000000038000001E00000000001E0000
01E0000000038000000F00000000001F0000
01E0000000038000000F80000000000F8000
01E000000003800000078000000000078000
01E00000000380000003C00000000003C000
01E00000000380000003E00000000003E000
01E00000000380000001E00000000001F000
01E00000000380000001F00000000000F800
01E00000000380000000F800000000007C00
01E000000003800000007800000000003C00
01E000000003800000007C00000000001E00
01E000000003800000003E00000000001F00
01E000000003800000001E00000000000F80
01E000000003800000000F000000000007C0
01FFFFFFFFFF800000000F800000000003E0
01FFFFFFFFFF8000000007C00000000001E0
01FFFFFFFFFF8000000003C00000000003E0
007FFFFFFFFF8000000001E0000000000FE0
0000000000000000000001F0000000001F80
0000000000000000000000F0000000007F00
00000000000000000000007800000000FC00
00000000000000000000007C00000003F800
00000000000000000000003E00000007E000
00000000000000000000001F0000000FC000
00000000000000000000000F0000003F0000
0000000000000000000000078000007E0000
000000000000000000000007C00001FC0000
000000000000000000000003E00003F00000
000000000000000000000001F0000FE00000
000000000000000000000000F0001F800000
00000000000000000000000078007F000000
0000000000000000000000007C00FC000000
0000000000000000000000003E01F8000000
0000000000000000000000001F07E0000000
0000000000000000000000000F8FC0000000
00000000000000000000000007FF00000000
00000000000000000000000007FE00000000
00000000000000000000000003FC00000000
00000000000000000000000001F000000000
00000000000000000000000000E000000000
ENDCHAR
STARTCHAR 0053
ENCODING 83
SWIDTH 561 0
DWIDTH 101 0
BBX 98 151 3 -2
BITMAP
0000000003FFFFFFFFFFF00000
0000000FFFFFFFFFFFFFF80000
000000FFFFFFFFFFFFFFF80000
000007FFFFFFFFFFFFFFF80000
00001FFF000000000000780000
00007FE00000000000003C0000
0000FF000000000000003C0000
0003F8000000000000003C0000
0007E0000000000000003C0000
000FC0000000000000001E0000
001F00000000000000001E0000
003E00000000000000001E0000
007C00000000000000000F0000
00F800000000000000000F0000
01F000000000000000000F0000
03E000000000000000000F0000
03C00000000000000000078000
07800000000000000000078000
0F800000000000000000078000
0F000000000000000000078000
1E00000000000000000003C000
1E00000000000000000003C000
3C00000000000000000003C000
3C00000000000000000001E000
3800000000000000000001E000
7800000000000000000001E000
7800000000000000000001E000
7800000000000000000000F000
7000000000000000000000F000
F000000000000000000000F000
F000000000000000000000F000
F0000000000000000000007800
F0000000000000000000007800
E0000000000007FFFFFFFFF800
E00000000000FFFFFFFFFFF800
E00000000003FFFFFFFFFFFC00
E0000000000FFFFFFFFFFFF800
F0000000000FE0000000000000
F0000000001F00000000000000
F0000000001E00000000000000
F0000000001E00000000000000
F0000000001E00000000000000
F0000000001E00000000000000
F0000000000F00000000000000
70000000000F00000000000000
78000000000780000000000000
780000000003C0000000000000
780000000003E0000000000000
3C0000000001F0000000000000
3C0000000000F8000000000000
3E00000000007C000000000000
1E00000000003E000000000000
1F00000000001F000000000000
0F00000000000F800000000000
0F800000000007C00000000000
07C00000000003C00000000000
03C00000000003E00000000000
03E00000000001F00000000000
01F00000000000F80000000000
00F000000000007C0000000000
007800000000003E0000000000
007C00000000001F0000000000
003E00000000000F8000000000
001E000000000007C000000000
000F000000000003E000000000
0007800000000001F000000000
0007C00000000000F000000000
0003E00000000000F800000000
0001F000000000007C00000000
0000F800000000003E00000000
00007C00000000001F00000000
00003C00000000000F80000000
00003E000000000007C0000000
00001F000000000003E0000000
00000F800000000001F0000000
000007C00000000000F8000000
000003E000000000007C000000
000001F000000000003C000000
000001F800000000003E000000
000000FC00000000001F000000
0000007C00000000000F800000
0000003E000000000007C00000
0000001F000000000003E00000
0000000F800000000001F00000
00000007C00000000000F00000
00000003E00000000000F80000
00000001F000000000007C0000
00000001F800000000003E0000
00000000F800000000001E0000
000000007C00000000000F0000
000000003E00000000000F8000
000000001F000000000007C000
000000000F800000000003C000
0000000007C00000000001E000
0000000003E00000000001F000
0000000003F00000000000F000
0000000001F000000000007800
0000000000F800000000007C00
00000000007C00000000003C00
00000000003E00000000001E00
00000000001F00000000001E00
00000000000F80000000000F00
000000000007C0000000000F00
000000000003E0000000000700
000000000003E0000000000780
000000000001F0000000000780
000000000000F8000000000780
00000000000078000000000380
000000000000380000000003C0
0000000000003C0000000003C0
0000000000003C0000000003C0
0000000000003C0000000003C0
0000000000003C0000000003C0
000000000000F80000000003C0
3FFFFFFFFFFFF80000000001C0
7FFFFFFFFFFFF00000000001C0
7FFFFFFFFFFFC00000000003C0
7FFFFFFFFFFF000000000003C0
3C0000000000000000000003C0
3C0000000000000000000003C0
3C0000000000000000000003C0
3C0000000000000000000003C0
1E000000000000000000000380
1E000000000000000000000780
1E000000000000000000000780
0F000000000000000000000780
0F000000000000000000000700
0F000000000000000000000F00
0F000000000000000000000F00
07800000000000000000001E00
07800000000000000000001E00
07800000000000000000003C00
07800000000000000000003C00
03C00000000000000000007800
03C0000000000000000000F800
03C0000000000000000001F000
01E0000000000000000003E000
01E0000000000000000007C000
01E000000000000000000F8000
01E000000000000000001F0000
00F000000000000000003E0000
00F000000000000000007C0000
00F00000000000000001F80000
00F00000000000000007F00000
0078000000000000001FE00000
007800000000000000FF800000
00780000000000001FFF000000
003FFFFFFFFFFFFFFFF8000000
003FFFFFFFFFFFFFFFC0000000
003FFFFFFFFFFFFFFC00000000
000FFFFFFFFFFFFC0000000000
ENDCHAR
STARTCHAR 0054
ENCODING 84
SWIDTH 622 0
DWIDTH 112 0
BBX 124 151 -6 -2
BITMAP
007FFFFFFFFFFFFFFFFFFFFFFFFFC000
007FFFFFFFFFFFFFFFFFFFFFFFFFE000
00FFFFFFFFFFFFFFFFFFFFFFFFFFE000
00FFFFFFFFFFFFFFFFFFFFFFFFFFE000
00F0000000000000000000000000F000
00E0000000000000000000000000F000
01E0000000000000000000000000F000
01E00000000000000000000000007800
01E00000000000000000000000007800
01C00000000000000000000000007800
03C00000000000000000000000007800
03C00000000000000000000000003C00
03C00000000000000000000000003C00
07800000000000000000000000003C00
07800000000000000000000000001C00
07800000000000000000000000001E00
07800000000000000000000000001E00
0F000000000000000000000000001E00
0F000000000000000000000000000F00
0F000000000000000000000000000F00
0E000000000000000000000000000F00
1E000000000000000000000000000F00
1E000000000000000000000000000780
1E000000000000000000000000000780
3C000000000000000000000000000780
3C000000000000000000000000000780
3C0000000000000000000000000003C0
3C0000000000000000000000000003C0
780000000000000000000000000003C0
780000000000000000000000000001E0
780000000000000000000000000001E0
700000000000000000000000000001E0
F00000000000000000000000000001E0
FFFFFFFFFFE000000000FFFFFFFFFFF0
FFFFFFFFFFF000000001FFFFFFFFFFF0
FFFFFFFFFFF000000001FFFFFFFFFFF0
7FFFFFFFFFF000000001FFFFFFFFFFE0
00000000007000000001E00000000000
00000000007000000001E00000000000
00000000007000000001E00000000000
00000000007000000001E00000000000
00000000007000000001E00000000000
00000000007000000001E00000000000
00000000007000000001E00000000000
00000000007000000001E00000000000
00000000007000000001E00000000000
00000000007000000001E00000000000
00000000007000000001E00000000000
00000000007000000001E00000000000
00000000007000000001E00000000000
00000000007000000001E00000000000
00000000007000000001E00000000000
00000000007000000001E00000000000
00000000007000000001E00000000000
00000000007000000001E00000000000
00000000007000000001E00000000000
00000000007000000001E00000000000
00000000007000000001E00000000000
00000000007000000001E00000000000
00000000007000000001E00000000000
00000000007000000001E00000000000
00000000007000000001E00000000000
00000000007000000001E00000000000
00000000007000000001E00000000000
00000000007000000001E00000000000
00000000007000000001E00000000000
00000000007000000001E00000000000
00000000007000000001E00000000000
00000000007000000001E00000000000
00000000007000000001E00000000000
00000000007000000001E00000000000
00000000007000000001E00000000000
00000000007000000001E00000000000
00000000007000000001E00000000000
00000000007000000001E00000000000
00000000007000000001E00000000000
00000000007000000001E00000000000
00000000007000000001E00000000000
00000000007000000001E00000000000
00000000007000000001E00000000000
00000000007000000001E00000000000
00000000007000000001E00000000000
00000000007000000001E00000000000
00000000007000000001E00000000000
00000000007000000001E00000000000
00000000007000000001E00000000000
00000000007000000001E00000000000
00000000007000000001E00000000000
00000000007000000001E00000000000
00000000007000000001E00000000000
00000000007000000001E00000000000
00000000007000000001E00000000000
00000000007000000001E00000000000
00000000007000000001E00000000000
00000000007000000001E00000000000
00000000007000000001E00000000000
00000000007000000001E00000000000
00000000007000000001E00000000000
00000000007000000001E00000000000
00000000007000000001E00000000000
00000000007000000001E00000000000
00000000007000000001E00000000000
00000000007000000001E00000000000
00000000007000000001E00000000000
00000000007000000001E00000000000
00000000007000000001E00000000000
00000000007000000001E00000000000
00000000007000000001E00000000000
00000000007000000001E00000000000
00000000007000000001E00000000000
00000000007000000001E00000000000
00000000007000000001E00000000000
00000000007000000001E00000000000
00000000007000000001E00000000000
00000000007000000001E00000000000
00000000007000000001E00000000000
00000000007000000001E00000000000
00000000007000000001E00000000000
00000000007000000001E00000000000
00000000007000000001E00000000000
00000000007000000001E00000000000
00000000007000000001E00000000000
00000000007000000001E00000000000
00000000007000000001E00000000000
00000000007000000001E00000000000
00000000007000000001E00000000000
00000000007000000001E00000000000
00000000007000000001E00000000000
00000000007000000001E00000000000
00000000007000000001E00000000000
00000000007000000001E00000000000
00000000007000000001E00000000000
00000000007000000001E00000000000
00000000007000000001E00000000000
00000000007000000001E00000000000
00000000007000000001E00000000000
00000000007000000001E00000000000
00000000007000000001E00000000000
00000000007000000001E00000000000
00000000007000000001E00000000000
00000000007000000001E00000000000
00000000007000000001E00000000000
00000000007000000001E00000000000
00000000007000000001E00000000000
00000000007000000001E00000000000
00000000007000000001E00000000000
00000000007000000001E00000000000
00000000007FFFFFFFFFE00000000000
00000000007FFFFFFFFFE00000000000
00000000007FFFFFFFFFE00000000000
00000000003FFFFFFFFFC00000000000
ENDCHAR
STARTCHAR 0055
ENCODING 85
SWIDTH 761 0
DWIDTH 137 0
BBX 124 151 3 -2
BITMAP
0000001FFFFFFFFFFC001FFFFFFFFFF0
0000003FFFFFFFFFFE003FFFFFFFFFF0
0000007FFFFFFFFFFC003FFFFFFFFFF0
0000007FFFFFFFFFFC003FFFFFFFFFF0
000000F0000000003C003C0000000070
000000F00000000078003C0000000070
000001E00000000078003C0000000070
000001E000000000F0003C0000000070
000003C000000000F0003C0000000070
000003C000000001E0003C0000000070
0000078000000001E0003C0000000070
0000078000000003C0003C0000000070
00000F0000000003C0003C0000000070
00000F000000000780003C0000000070
00001E000000000780003C0000000070
00001E000000000700003C0000000070
00003C000000000F00003C0000000070
00003C000000000F00003C0000000070
000038000000001E00003C0000000070
000078000000001E00003C0000000070
000070000000003C00003C0000000070
0000F0000000003C00003C0000000070
0000E0000000007800003C0000000070
0001E0000000007800003C0000000070
0001E0000000007000003C0000000070
0001C000000000F000003C0000000070
0003C000000000F000003C0000000070
00038000000001E000003C0000000070
00078000000001E000003C0000000070
00078000000003C000003C0000000070
000F0000000003C000003C0000000070
000F00000000038000003C0000000070
000E00000000078000003C0000000070
001E00000000078000003C0000000070
001E000000000F0000003C0000000070
001C000000000F0000003C0000000070
003C000000000E0000003C0000000070
0038000000001E0000003C0000000070
0078000000001E0000003C0000000070
0078000000003C0000003C0000000070
0070000000003C0000003C0000000070
00F000000000380000003C0000000070
00F000000000780000003C0000000070
00E000000000780000003C0000000070
01E000000000F00000003C0000000070
01E000000000F00000003C0000000070
01C000000000E00000003C0000000070
03C000000001E00000003C0000000070
03C000000001E00000003C0000000070
038000000001C00000003C0000000070
078000000003C00000003C0000000070
078000000003C00000003C0000000070
070000000003800000003C0000000070
0F0000000007800000003C0000000070
0F0000000007800000003C0000000070
0F0000000007800000003C0000000070
0E000000000F000000003C0000000070
1E000000000F000000003C0000000070
1E000000000F000000003C0000000070
1E000000000E000000003C0000000070
1C000000001E000000003C0000000070
1C000000001E000000003C0000000070
3C000000001E000000003C0000000070
3C000000003C000000003C0000000070
3C000000003C000000003C0000000070
3C000000003C000000003C0000000070
38000000003C000000003C0000000070
780000000038000000003C0000000070
780000000078000000003C0000000070
780000000078000000003C0000000070
780000000078000000003C0000000070
780000000078000000003C0000000070
700000000070000000003C0000000070
7000000000F0000000003C0000000070
7000000000F0000000003C0000000070
F000000000F0000000003C0000000070
F000000000F0000000003C0000000070
F000000000F0000000003C0000000070
F000000000F0000000003C0000000070
F000000000E0000000003C0000000070
F000000000E0000000003C0000000070
F000000000E0000000003C0000000070
F000000001E0000000003C0000000070
F000000001E0000000003C0000000070
F000000001E0000000003C0000000070
F000000001E0000000003C0000000070
E000000001E0000000003C0000000070
E000000001E0000000003C0000000070
E000000001E0000000003C0000000070
E000000001E0000000003C0000000070
E000000001E0000000003C0000000070
F000000001E0000000003C0000000070
F000000001E0000000003C0000000070
F000000000E0000000003C0000000070
F000000000E0000000003C0000000070
F000000000E0000000003C0000000070
F000000000F0000000003C0000000070
F000000000F0000000003C0000000070
F000000000F0000000003C0000000070
F000000000F0000000003C0000000070
700000000078000000003C0000000070
700000000078000000003C0000000070
780000000078000000003C0000000070
78000000003C000000003C0000000070
78000000003E000000003C0000000070
78000000001E000000003C0000000070
38000000001F000000003C0000000070
3C000000000F800000003C0000000070
3C0000000007C00000003C0000000070
3C0000000003E00000003C0000000070
1C0000000001F80000003C0000000070
1E0000000000FC0000003C0000000070
1E00000000007F8000003C0000000070
1E00000000001FF000003C0000000070
0F00000000000FFFFFFFFC0000000070
0F000000000003FFFFFFFC0000000070
0F0000000000007FFFFFFC0000000070
0780000000000003FFFFF80000000070
07800000000000000000000000000070
03C00000000000000000000000000070
03C00000000000000000000000000070
03E00000000000000000000000000070
01E00000000000000000000000000070
01F00000000000000000000000000070
00F00000000000000000000000000070
00F80000000000000000000000000070
00780000000000000000000000000070
003C0000000000000000000000000070
003E0000000000000000000000000070
001E0000000000000000000000000070
000F0000000000000000000000000070
000F8000000000000000000000000070
0007C000000000000000000000000070
0003C000000000000000000000000070
0003E000000000000000000000000070
0001F800000000000000000000000070
0000FC00000000000000000000000070
00007E00000000000000000000000070
00003F00000000000000000000000070
00000FC0000000000000000000000070
000007F0000000000000000000000070
000003FC000000000000000000000070
000000FF000000000000000000000070
0000003FE00000000000000000000070
0000001FFC0000000000000000000070
00000003FFC000000000000000000070
00000000FFFF00000000000000000070
000000001FFFFFFFFFFFFFFFFFFFFFF0
0000000001FFFFFFFFFFFFFFFFFFFFF0
00000000000FFFFFFFFFFFFFFFFFFFF0
00000000000000FFFFFFFFFFFFFFFFE0
ENDCHAR
ENDFONT
